<?xml version="1.0" encoding="utf-8"?>
<!-- Generator: Adobe Illustrator 16.0.3, SVG Export Plug-In . SVG Version: 6.00 Build 0)  -->
<!DOCTYPE svg PUBLIC "-//W3C//DTD SVG 1.1//EN" "http://www.w3.org/Graphics/SVG/1.1/DTD/svg11.dtd">
<svg version="1.1" xmlns="http://www.w3.org/2000/svg" xmlns:xlink="http://www.w3.org/1999/xlink" x="0px" y="0px"
	 width="170.75px" height="50px" viewBox="0 0 170.75 50" enable-background="new 0 0 170.75 50" xml:space="preserve">
<g id="Layer_1" display="none">
	<g display="inline">
		<path fill="#0091AA" d="M17.292,13.688c0-0.035,0-0.047,0.058-0.093c0.336-0.314,1.198-0.767,2.22-0.019
			c0.018,0.014,0.086,0.079,0.096,0.111c0,0.183-0.01,13.479-0.01,13.479s-0.243,2.166-0.605,3.688
			c-0.505,2.576-1.03,1.547-1.312-0.053c-0.052,0.168-0.447-3.822-0.447-3.822S17.292,13.874,17.292,13.688z"/>
		<path fill="#0091AA" d="M29.021,15.048c-0.023-0.112-0.032-0.152-0.008-0.31c0.108-1.081,0.635-2.719,2.156-0.531
			c0.028,0.04,0.14,0.234,0.172,0.338c0.467,2.003,1.057,4.034,1.681,6.051c0.625,2.021,1.287,4.048,1.898,6.109
			c0.611,2.061,1.17,4.16,1.575,6.309c0.405,2.148,0.65,4.348,0.656,6.561c-0.788-0.027-1.575-0.057-2.362-0.086
			c0.231-3.143,0.525-6.299,1-9.445c0.475-3.146,1.136-6.286,2.104-9.351c0,0,0.155-0.43,0.416-1.149
			c0.132-0.358,0.321-0.78,0.519-1.259c0.201-0.478,0.416-1.012,0.697-1.563c1.039-2.236,2.625-4.923,4.229-6.898
			c0.155-0.22,0.321-0.418,0.479-0.606c0.159-0.188,0.31-0.367,0.454-0.538c0.289-0.34,0.551-0.644,0.788-0.913
			c0.503-0.514,0.901-0.894,1.202-1.161c0.6-0.535,0.828-0.607,0.77-0.364c-0.055,0.247-0.385,0.816-0.892,1.581
			c-0.124,0.193-0.271,0.39-0.406,0.613c-0.137,0.221-0.281,0.456-0.431,0.7c-0.153,0.241-0.313,0.492-0.477,0.751
			c-0.083,0.129-0.167,0.26-0.252,0.393c-0.079,0.137-0.158,0.276-0.238,0.417c0.084-0.106-0.271,0.505-0.848,1.475
			c-0.263,0.5-0.574,1.094-0.912,1.737c-0.042,0.081-0.085,0.162-0.128,0.243c-0.038,0.084-0.077,0.168-0.116,0.254
			c-0.078,0.17-0.157,0.344-0.237,0.518c-0.16,0.35-0.322,0.705-0.485,1.062c-0.302,0.724-0.583,1.461-0.856,2.148
			c-0.237,0.702-0.459,1.359-0.651,1.924c-0.331,1.146-0.552,1.915-0.552,1.915c-0.858,2.835-1.45,5.76-1.882,8.721
			c-0.433,2.961-0.71,5.957-0.931,8.969l-2.371-0.088c-0.004-2.043-0.23-4.09-0.614-6.123c-0.384-2.033-0.92-4.053-1.52-6.072
			c-0.599-2.018-1.26-4.038-1.892-6.082C30.122,19.249,29.52,17.19,29.021,15.048z"/>
		<path fill="#0091AA" d="M2.69,12.463c-0.07,0.004-0.095,0.005-0.19-0.045c-0.655-0.292-1.625-1.09-0.188-2.212
			c0.026-0.021,0.153-0.097,0.218-0.111c0.055,0.002,0.489-0.044,1.211-0.121c0.365-0.043,0.812-0.109,1.317-0.179
			C5.564,9.708,6.132,9.624,6.75,9.5c1.236-0.232,2.67-0.552,4.213-0.915c1.543-0.361,3.198-0.761,4.883-1.102
			c0.422-0.084,0.842-0.171,1.268-0.242c0.423-0.077,0.845-0.15,1.269-0.209c0.211-0.032,0.421-0.063,0.63-0.094
			c0.212-0.025,0.422-0.05,0.63-0.075c0.197-0.023,0.393-0.046,0.586-0.069c0.199-0.025,0.396-0.051,0.592-0.076
			c1.563-0.203,3.021-0.392,4.269-0.554c1.241-0.174,2.276-0.311,2.993-0.426c0.718-0.114,1.127-0.179,1.127-0.179
			s0.27-0.026,0.722-0.07c0.45-0.052,1.081-0.124,1.806-0.208c1.452-0.166,3.271-0.426,4.783-0.653
			c0.643-0.091,1.164-0.203,1.596-0.266c0.431-0.067,0.767-0.104,1.018-0.116c0.502-0.022,0.662,0.051,0.568,0.203
			c-0.094,0.149-0.444,0.37-0.962,0.631c-0.52,0.254-1.199,0.58-1.974,0.84c0.171-0.024-1.683,0.612-3.621,1.114
			c-0.482,0.141-0.972,0.242-1.43,0.356c-0.46,0.109-0.891,0.212-1.261,0.3c-0.742,0.157-1.239,0.261-1.239,0.261
			s-0.413,0.066-1.135,0.181c-0.721,0.101-1.752,0.245-2.99,0.417c-1.234,0.16-2.674,0.347-4.219,0.548
			c-0.389,0.047-0.784,0.095-1.184,0.144c-0.384,0.039-0.773,0.106-1.166,0.163c-0.785,0.122-1.584,0.272-2.386,0.436
			c-1.603,0.329-3.214,0.72-4.746,1.079c-1.531,0.361-2.985,0.684-4.255,0.921c-0.632,0.127-1.225,0.214-1.749,0.304
			C4.855,12.218,4.396,12.289,4,12.333C3.204,12.419,2.729,12.466,2.69,12.463z"/>
	</g>
	<g display="inline">
		<path fill="#0091AA" d="M51.98,16.114c-0.115-0.032-0.158-0.043-0.292-0.139c-0.248-0.148-0.462-0.345-0.64-0.556
			c-0.178-0.209-0.311-0.434-0.338-0.646c-0.027-0.211,0.051-0.412,0.295-0.573c0.122-0.081,0.285-0.152,0.497-0.21
			c0.106-0.029,0.225-0.056,0.356-0.078c0.066-0.01,0.134-0.021,0.206-0.033c0.067-0.014,0.139-0.028,0.212-0.042
			c0.043-0.008,0.239-0.026,0.331-0.013l0.376,0.099l0.397,0.083c0.264,0.057,0.529,0.114,0.799,0.152
			c0.536,0.095,1.082,0.158,1.631,0.216c1.099,0.11,2.222,0.151,3.36,0.174c2.275,0.05,4.621,0.011,7.021,0.294l1.057,0.125
			l-0.015,1.051c-0.02,1.415-0.44,2.711-0.986,3.859c-0.558,1.147-1.248,2.176-1.982,3.145c-1.479,1.933-3.152,3.625-4.859,5.249
			c-1.711,1.623-3.477,3.158-5.224,4.686c-0.873,0.764-1.743,1.525-2.59,2.295c-0.845,0.771-1.673,1.555-2.413,2.359
			c-0.224-0.65-0.449-1.303-0.673-1.955l0.463,0.066c0,0,0.404,0.074,1.082,0.197c0.337,0.07,0.751,0.121,1.217,0.186
			c0.233,0.031,0.479,0.066,0.737,0.102c0.257,0.037,0.526,0.074,0.808,0.098c2.234,0.268,5.101,0.422,7.477,0.582
			c4.034,0.209,5.251,0.475,4.826,0.701c-0.424,0.23-2.47,0.445-4.974,0.611c0.247,0.014-2.423,0.176-5.342,0.182
			c-0.729,0.006-1.476-0.023-2.191-0.033c-0.716-0.02-1.407-0.078-2.022-0.109c-0.154-0.012-0.304-0.016-0.448-0.029
			c-0.145-0.016-0.284-0.031-0.417-0.047c-0.267-0.027-0.51-0.055-0.724-0.078c-0.428-0.049-0.739-0.082-0.89-0.1L45.91,37.74
			l1.521-1.721c0.046-0.051,0.07-0.078,0.07-0.078c0.832-0.896,1.694-1.705,2.563-2.496c0.869-0.789,1.744-1.555,2.616-2.318
			c1.743-1.525,3.478-3.037,5.132-4.607c1.649-1.571,3.245-3.194,4.583-4.951c0.665-0.877,1.268-1.789,1.722-2.729
			c0.448-0.939,0.732-1.909,0.747-2.821l1.044,1.178c-2.181-0.259-4.456-0.228-6.786-0.276C56.79,16.876,54.392,16.743,51.98,16.114
			z"/>
		<path fill="#0091AA" d="M68.193,25.492c-0.026-0.094-0.037-0.128-0.018-0.266c0.031-0.478,0.198-1.04,0.525-1.298
			c0.165-0.127,0.375-0.173,0.637-0.082c0.132,0.044,0.276,0.125,0.435,0.245c0.159,0.122,0.333,0.284,0.524,0.478
			c0.028,0.029,0.14,0.171,0.173,0.249c0.551,1.821,1.215,3.635,2.013,5.352c0.4,0.859,0.832,1.697,1.31,2.488
			c0.48,0.783,1.015,1.525,1.602,2.102l-1.844,0.25c0.595-1.025,1.01-2.223,1.287-3.455c0.275-1.232,0.417-2.514,0.419-3.781
			l2.288-0.414c1.238,3.305,2.468,6.559,4.254,9.439l-1.517-0.439c0.319-0.18,0.637-0.357,0.885-0.621
			c0.141-0.111,0.242-0.268,0.366-0.4l0.156-0.23l0.079-0.117c0.024-0.039,0.045-0.084,0.068-0.125
			c0.372-0.668,0.603-1.482,0.712-2.348c0,0,0.014-0.082,0.04-0.232c0.031-0.146,0.052-0.371,0.088-0.65
			c0.06-0.561,0.11-1.369,0.096-2.32c-0.012-0.949-0.081-2.035-0.184-3.141c-0.104-1.104-0.237-2.223-0.349-3.244
			c-0.223-1.725-0.318-2.871-0.295-3.537c0.022-0.667,0.127-0.848,0.264-0.683c0.14,0.165,0.314,0.667,0.549,1.388
			c0.231,0.721,0.513,1.661,0.795,2.707c-0.01-0.113,0.143,0.456,0.363,1.386c0.22,0.931,0.505,2.221,0.712,3.561
			c0.217,1.336,0.326,2.73,0.315,3.807c-0.002,0.268-0.017,0.518-0.025,0.738c-0.014,0.223-0.035,0.418-0.048,0.578
			c-0.011,0.16-0.034,0.287-0.046,0.375c-0.013,0.086-0.019,0.133-0.019,0.133c-0.182,0.971-0.478,1.975-1.057,2.9
			c-0.57,0.926-1.441,1.729-2.434,2.207l-0.965,0.463l-0.562-0.908c-1.947-3.143-3.219-6.551-4.46-9.854l2.298-0.418
			c-0.002,1.449-0.16,2.883-0.475,4.299c-0.32,1.412-0.788,2.814-1.557,4.143l-0.765,1.32l-1.083-1.07
			c-0.816-0.807-1.426-1.682-1.976-2.57c-0.541-0.891-1.008-1.803-1.438-2.725C69.473,29.32,68.782,27.434,68.193,25.492z"/>
		<path fill="#0091AA" d="M88.818,17.95c0-0.03,0-0.041,0.056-0.079c0.337-0.267,1.198-0.65,2.221-0.016
			c0.019,0.011,0.086,0.066,0.096,0.095c0,0.155-0.01,11.425-0.01,11.425s-0.243,1.836-0.604,3.123
			c-0.506,2.184-1.031,1.311-1.313-0.043c-0.051,0.141-0.445-3.24-0.445-3.24S88.818,18.107,88.818,17.95z"/>
		<path fill="#0091AA" d="M97.756,34.014c-0.003,0.133-0.003,0.182-0.063,0.354c-0.354,1.197-1.241,2.918-2.223,0.049
			c-0.017-0.053-0.08-0.303-0.089-0.428l0.287-19.175l2.284-0.438c1.748,4.429,3.431,8.844,5.393,13.112
			c0.983,2.133,2.032,4.225,3.2,6.232c1.169,2.004,2.458,3.93,3.952,5.631c-0.686,0.215-1.369,0.428-2.055,0.643l0.18-1.885
			l0.09-0.941c0.024-0.314,0.036-0.631,0.055-0.947c0,0,0.045-0.508,0.118-1.359c0.02-0.215,0.04-0.449,0.062-0.703
			c0.016-0.256,0.031-0.529,0.047-0.818c0.035-0.582,0.073-1.229,0.114-1.92c0.132-2.773,0.214-6.291,0.326-9.198
			c0.041-1.235,0.082-2.253,0.132-3.078c0.057-0.826,0.114-1.458,0.173-1.919c0.116-0.922,0.239-1.162,0.354-0.904
			c0.234,0.517,0.446,3.019,0.658,6.066c0.012-0.318,0.234,3.324,0.353,7.079c0.027,0.938,0.062,1.883,0.056,2.773
			c0.002,0.447,0.004,0.877,0.006,1.287c0.003,0.41,0.007,0.799-0.009,1.158c-0.039,1.439-0.066,2.406-0.066,2.406
			c-0.088,1.061-0.199,2.123-0.298,3.184l-0.251,2.717l-1.815-2.07c-1.642-1.871-3.002-3.914-4.225-6.008
			c-1.22-2.098-2.301-4.254-3.306-6.434c-2.007-4.361-3.706-8.827-5.446-13.227l2.289-0.438L97.756,34.014z"/>
		<path fill="#0091AA" d="M132.327,16.329c0.138,0.044,0.191,0.064,0.355,0.181c0.144,0.094,0.288,0.199,0.425,0.31
			c0.07,0.055,0.136,0.111,0.179,0.171c0.049,0.059,0.097,0.119,0.142,0.18c0.174,0.243,0.301,0.491,0.313,0.709
			c0.011,0.218-0.092,0.407-0.372,0.528c-0.143,0.061-0.327,0.105-0.564,0.128c-0.116,0.014-0.255,0.011-0.392,0.024
			c-0.132,0.022-0.27,0.044-0.415,0.062c-0.045,0.006-0.231,0.01-0.32-0.009c-0.759-0.208-1.552-0.285-2.35-0.243
			c-0.2,0.021-0.402,0.016-0.601,0.054l-0.602,0.098l-0.595,0.15c-0.101,0.021-0.2,0.051-0.298,0.087l-0.294,0.099
			c-1.57,0.537-3.042,1.467-4.342,2.592c-1.299,1.131-2.434,2.47-3.333,3.939c-0.899,1.466-1.556,3.076-1.824,4.705
			c-0.125,0.813-0.139,1.625-0.021,2.4l0.042,0.291c0.02,0.096,0.048,0.186,0.07,0.281l0.073,0.281l0.018,0.068
			c0.002,0.008,0.009,0.035,0.005,0.025l0.014,0.041l0.055,0.164l0.053,0.162l0.05,0.127c0.031,0.082,0.065,0.168,0.104,0.256
			c0.037,0.088,0.077,0.176,0.119,0.256c0.041,0.086,0.084,0.166,0.13,0.242c0.18,0.309,0.385,0.57,0.607,0.752
			c0.111,0.096,0.226,0.168,0.344,0.227c0.119,0.061,0.242,0.102,0.376,0.129c0.526,0.117,1.239-0.031,1.935-0.371
			c0.701-0.33,1.385-0.82,2.024-1.369c0.639-0.555,1.233-1.182,1.777-1.848c0.54-0.668,1.032-1.379,1.438-2.113
			c0.2-0.367,0.382-0.742,0.525-1.113c0.145-0.369,0.251-0.738,0.297-1.066l2.337,0.318c-0.107,0.926-0.228,1.852-0.325,2.781
			c0,0-0.058,0.465-0.155,1.244c-0.044,0.389-0.114,0.855-0.169,1.387s-0.116,1.121-0.182,1.752
			c-0.253,2.529-0.483,5.736-0.686,8.389c-0.276,4.504-0.52,5.863-0.754,5.389c-0.229-0.473-0.434-2.771-0.555-5.576
			c-0.022,0.291-0.129-3.061-0.084-6.504c0.005-0.432,0.01-0.863,0.016-1.289c0.015-0.426,0.028-0.846,0.042-1.254
			s0.027-0.803,0.041-1.178s0.041-0.73,0.059-1.059c0.039-0.656,0.071-1.205,0.096-1.59c0.01-0.193,0.027-0.344,0.036-0.447
			c0.008-0.104,0.014-0.158,0.014-0.158l0.261-2.203l2.353,0.32c-0.086,0.588-0.246,1.109-0.436,1.602
			c-0.191,0.49-0.416,0.949-0.657,1.395c-0.486,0.883-1.053,1.697-1.675,2.467c-0.624,0.766-1.306,1.484-2.063,2.143
			c-0.761,0.654-1.586,1.258-2.559,1.721c-0.485,0.232-1.011,0.426-1.586,0.541c-0.573,0.113-1.211,0.146-1.852,0.008
			c-0.64-0.129-1.265-0.441-1.747-0.852c-0.492-0.408-0.856-0.895-1.141-1.383c-0.071-0.121-0.138-0.244-0.198-0.369
			c-0.064-0.123-0.121-0.248-0.174-0.371c-0.055-0.123-0.106-0.252-0.155-0.385l-0.074-0.199l-0.056-0.166l-0.055-0.164
			l-0.014-0.041c-0.013-0.039-0.011-0.039-0.016-0.061l-0.027-0.098l-0.101-0.391c-0.033-0.129-0.072-0.26-0.097-0.391l-0.062-0.395
			c-0.158-1.053-0.133-2.107,0.022-3.121c0.334-2.025,1.115-3.894,2.144-5.576c1.031-1.685,2.313-3.196,3.799-4.494
			c1.49-1.288,3.194-2.38,5.126-3.045C128.072,15.923,130.272,15.76,132.327,16.329z"/>
		<path fill="#0091AA" d="M151.171,12.299c0.068-0.01,0.093-0.014,0.189,0.028c0.646,0.236,1.735,0.921,0.39,2.185
			c-0.023,0.023-0.144,0.111-0.21,0.131c-0.044,0.007-0.499,0.078-1.26,0.196c-0.756,0.119-1.809,0.281-3.043,0.517
			c-1.227,0.239-2.652,0.54-4.06,1.019c-0.699,0.238-1.398,0.529-1.975,0.889c-0.287,0.177-0.534,0.377-0.695,0.566
			c-0.038,0.047-0.068,0.093-0.106,0.137c-0.042,0.071,0.055-0.091,0.043-0.071l-0.005,0.008l-0.009,0.018l-0.019,0.035
			l-0.039,0.069l-0.075,0.138l-0.04,0.069c-0.012,0.023-0.008,0.029-0.014,0.044l-0.023,0.076c-0.018,0.056-0.039,0.08-0.062,0.176
			c-0.193,0.637-0.292,1.425-0.344,2.2c-0.053,0.781-0.062,1.572-0.057,2.344c0.006,0.773,0.027,1.523,0.038,2.264
			c0.002,0.181,0.003,0.36,0.005,0.537c0.004,0.171,0.002,0.357,0.009,0.507c0.009,0.309,0.025,0.619,0.046,0.916
			c0.087,1.184,0.275,2.139,0.446,2.785c0.087,0.32,0.162,0.572,0.221,0.736c0.055,0.17,0.089,0.256,0.089,0.256
			s0.019,0.059,0.051,0.166c0.031,0.109,0.084,0.262,0.154,0.453c0.14,0.381,0.357,0.908,0.692,1.459
			c0.33,0.557,0.789,1.125,1.355,1.607c0.563,0.49,1.239,0.871,1.898,1.154c0.139,0.061,0.279,0.104,0.411,0.15
			c0.133,0.049,0.26,0.094,0.384,0.125c0.123,0.039,0.241,0.074,0.354,0.107c0.112,0.029,0.221,0.057,0.323,0.082
			c0.413,0.104,0.733,0.184,0.971,0.244c0.477,0.125,0.613,0.242,0.479,0.359c-0.135,0.109-0.54,0.24-1.137,0.295
			c-0.595,0.057-1.385,0.049-2.248-0.133c0.086,0.033-0.392-0.039-1.128-0.322c-0.369-0.135-0.793-0.346-1.236-0.607
			c-0.439-0.268-0.882-0.609-1.29-0.992c-0.822-0.77-1.441-1.723-1.826-2.459c-0.092-0.188-0.176-0.359-0.249-0.512
			c-0.066-0.154-0.125-0.289-0.175-0.4c-0.092-0.225-0.139-0.354-0.139-0.354s-0.039-0.107-0.101-0.311
			c-0.06-0.203-0.146-0.5-0.235-0.883c-0.185-0.762-0.371-1.857-0.446-3.166c-0.043-0.664-0.038-1.383-0.05-2.053
			c-0.014-0.701-0.034-1.464-0.036-2.258c-0.001-0.796,0.014-1.626,0.081-2.491c0.03-0.432,0.08-0.874,0.153-1.327
			c0.031-0.223,0.091-0.461,0.137-0.691c0.025-0.117,0.065-0.239,0.098-0.358c0.037-0.125,0.057-0.225,0.121-0.382
			c0.057-0.146,0.116-0.29,0.18-0.432l0.022-0.054l0.021-0.035l0.037-0.068l0.075-0.136l0.038-0.069l0.019-0.034l0.004-0.008
			c-0.04,0.066,0.061-0.101,0.055-0.088l0.017-0.023l0.135-0.182c0.089-0.126,0.187-0.229,0.286-0.332
			c0.393-0.409,0.812-0.702,1.224-0.953c0.827-0.488,1.646-0.805,2.436-1.073c1.58-0.524,3.055-0.83,4.321-1.077
			c1.269-0.241,2.33-0.404,3.082-0.523C150.677,12.376,151.125,12.307,151.171,12.299z"/>
		<path fill="#0091AA" d="M157.802,37.822c0,0.117,0,0.16-0.057,0.314c-0.326,1.07-1.176,2.615-2.219,0.08
			c-0.019-0.047-0.089-0.268-0.099-0.379l-0.104-9.699c0-1.625-0.019-3.247-0.001-4.873l0.123-4.889l0.092-3.622l2.065,3.004
			c2.208,3.214,3.853,6.689,5.511,10.054c1.658,3.363,3.353,6.666,5.634,9.465c-0.677,0.121-1.352,0.242-2.028,0.363
			c0.376-1.141,0.668-2.32,0.885-3.525c0,0,0.007-0.025,0.02-0.076c0.008-0.055,0.023-0.131,0.042-0.232
			c0.038-0.199,0.093-0.492,0.161-0.857c0.071-0.365,0.126-0.813,0.205-1.314c0.071-0.502,0.132-1.068,0.198-1.67
			c0.116-1.213,0.202-2.592,0.246-3.991c0.034-1.399,0.036-2.817,0.019-4.102c-0.062-2.178-0.133-3.602-0.119-4.429
			c0.01-0.827,0.099-1.058,0.246-0.847c0.287,0.421,0.827,2.613,1.193,5.337c-0.013-0.287,0.438,2.969,0.467,6.357
			c0.025,1.693-0.057,3.412-0.182,4.713c-0.077,0.646-0.137,1.191-0.193,1.57c-0.064,0.381-0.101,0.6-0.101,0.6
			c-0.2,1.088-0.506,2.166-0.852,3.236l-0.661,2.057l-1.38-1.693c-1.244-1.527-2.31-3.168-3.27-4.838
			c-0.959-1.674-1.817-3.381-2.653-5.076c-1.668-3.388-3.271-6.75-5.342-9.756l2.164-0.62l-0.119,4.809
			c-0.018,1.606,0.003,3.219,0.001,4.827L157.802,37.822z"/>
		<path fill="#0091AA" d="M141.066,27.734c-0.019,0-0.025,0-0.056-0.055c-0.2-0.322-0.515-1.166-0.161-2.214
			c0.007-0.019,0.039-0.089,0.057-0.1c0.027-0.002,0.516-0.034,1.237-0.08c0.36-0.022,0.776-0.055,1.228-0.077
			c0.456-0.014,0.941-0.029,1.426-0.045c0.483-0.014,0.971-0.035,1.419-0.041c0.447-0.005,0.863-0.01,1.22-0.014
			c0.715-0.007,1.188-0.012,1.188-0.012s0.31,0.058,0.727,0.164c0.415,0.104,0.94,0.255,1.372,0.436
			c1.465,0.502,0.879,1.028-0.027,1.311c0.048,0.025-0.493,0.139-1.046,0.244c-0.554,0.105-1.116,0.211-1.116,0.211
			s-0.461,0.006-1.155,0.014c-0.347,0.004-0.754,0.008-1.188,0.014c-0.429,0.014-0.887,0.027-1.345,0.041
			c-0.46,0.016-0.918,0.031-1.351,0.045c-0.439,0.027-0.852,0.055-1.207,0.076C141.578,27.701,141.094,27.732,141.066,27.734z"/>
		<path fill="#0091AA" d="M90.3,2.092c0.024-0.008,0.032-0.011,0.084,0.031c0.335,0.235,0.947,0.928,0.777,2.079
			c-0.001,0.021-0.023,0.102-0.044,0.119c-0.007,0.003-0.052,0.019-0.127,0.046c-0.071,0.027-0.193,0.067-0.289,0.114
			c-0.107,0.047-0.235,0.104-0.381,0.167c-0.146,0.077-0.314,0.162-0.488,0.258c-0.337,0.2-0.706,0.458-0.981,0.757l-0.103,0.112
			c-0.034,0.037-0.053,0.077-0.082,0.114c-0.024,0.038-0.059,0.075-0.077,0.112c-0.018,0.037-0.036,0.073-0.057,0.109
			c-0.062,0.142-0.104,0.27-0.092,0.357c0.005,0.09,0.025,0.158,0.071,0.236c0.05,0.077,0.148,0.155,0.267,0.23
			c0.255,0.141,0.617,0.212,0.947,0.208c0.162,0.011,0.326-0.021,0.465-0.027c0.144-0.027,0.271-0.051,0.373-0.07
			c0.21-0.058,0.328-0.091,0.328-0.091s0.022-0.002,0.06-0.005c0.038-0.006,0.094-0.015,0.164-0.026
			c0.07-0.01,0.157-0.023,0.253-0.037c0.098-0.018,0.207-0.045,0.325-0.069c0.119-0.023,0.246-0.051,0.378-0.091
			c0.131-0.038,0.271-0.07,0.41-0.111c0.274-0.092,0.57-0.171,0.834-0.265c0.446-0.16,0.75-0.273,0.969-0.288
			c0.218-0.019,0.334,0.04,0.373,0.159c0.037,0.118-0.007,0.296-0.111,0.51c-0.053,0.106-0.118,0.223-0.2,0.343
			c-0.083,0.115-0.181,0.236-0.288,0.359c0.068-0.02-0.464,0.534-1.139,1c-0.161,0.125-0.344,0.226-0.51,0.331
			c-0.166,0.107-0.333,0.19-0.479,0.264c-0.285,0.152-0.497,0.229-0.497,0.229s-0.045,0.012-0.125,0.035
			c-0.084,0.021-0.202,0.061-0.364,0.087c-0.162,0.025-0.351,0.078-0.585,0.094c-0.116,0.01-0.239,0.021-0.369,0.033
			c-0.133,0.003-0.275,0.002-0.422,0.001c-0.298-0.01-0.626-0.043-0.979-0.132c-0.175-0.031-0.359-0.11-0.544-0.172
			c-0.092-0.031-0.185-0.085-0.278-0.129c-0.094-0.05-0.188-0.088-0.28-0.155c-0.373-0.227-0.735-0.568-1.009-1.004
			c-0.278-0.435-0.417-0.99-0.405-1.505c-0.005-0.265,0.052-0.504,0.103-0.747c0.075-0.222,0.147-0.457,0.255-0.644
			c0.052-0.098,0.101-0.199,0.157-0.29c0.059-0.085,0.118-0.17,0.177-0.255c0.114-0.176,0.247-0.308,0.374-0.453
			c0.517-0.547,1.058-0.9,1.522-1.181c0.236-0.128,0.452-0.241,0.648-0.34c0.207-0.09,0.386-0.169,0.537-0.235
			c0.158-0.072,0.251-0.1,0.328-0.129C90.247,2.111,90.291,2.095,90.3,2.092z"/>
	</g>
	<g display="inline">
		<path fill="#FFFFFF" d="M16.473,12.56c0.001-0.034,0.001-0.047,0.058-0.092c0.336-0.314,1.198-0.767,2.22-0.019
			c0.019,0.013,0.086,0.078,0.096,0.111c0,0.184-0.01,13.479-0.01,13.479s-0.243,2.166-0.604,3.686
			c-0.505,2.578-1.03,1.547-1.312-0.049c-0.052,0.166-0.448-3.823-0.448-3.823S16.473,12.746,16.473,12.56z"/>
		<path fill="#FFFFFF" d="M28.203,13.92c-0.024-0.111-0.033-0.152-0.008-0.31c0.108-1.081,0.635-2.719,2.156-0.532
			c0.027,0.041,0.139,0.235,0.172,0.338c0.467,2.003,1.057,4.034,1.681,6.051c0.625,2.021,1.287,4.048,1.899,6.109
			c0.611,2.06,1.17,4.16,1.575,6.308c0.405,2.148,0.65,4.348,0.655,6.563c-0.787-0.029-1.574-0.059-2.362-0.086
			c0.231-3.145,0.525-6.301,1-9.447c0.475-3.145,1.135-6.285,2.104-9.351c0,0,0.155-0.429,0.415-1.148
			c0.132-0.359,0.321-0.78,0.518-1.259c0.202-0.478,0.417-1.012,0.698-1.563c1.039-2.237,2.625-4.923,4.229-6.898
			c0.155-0.22,0.32-0.418,0.479-0.605c0.159-0.188,0.31-0.367,0.454-0.538c0.289-0.34,0.551-0.644,0.788-0.912
			c0.503-0.514,0.901-0.894,1.202-1.161c0.6-0.536,0.829-0.607,0.77-0.365c-0.055,0.247-0.386,0.816-0.893,1.582
			c-0.124,0.193-0.271,0.39-0.406,0.613c-0.137,0.221-0.281,0.455-0.431,0.699c-0.153,0.242-0.312,0.493-0.477,0.752
			c-0.083,0.128-0.167,0.259-0.252,0.392c-0.078,0.137-0.158,0.276-0.238,0.417c0.084-0.106-0.271,0.504-0.848,1.475
			c-0.262,0.5-0.574,1.094-0.912,1.737c-0.042,0.081-0.085,0.161-0.128,0.243c-0.038,0.084-0.077,0.168-0.116,0.254
			c-0.078,0.171-0.157,0.344-0.237,0.519c-0.16,0.349-0.322,0.705-0.485,1.061c-0.302,0.724-0.583,1.461-0.856,2.149
			c-0.237,0.702-0.46,1.359-0.651,1.924c-0.331,1.146-0.552,1.915-0.552,1.915c-0.858,2.835-1.45,5.762-1.882,8.723
			c-0.433,2.959-0.71,5.957-0.931,8.967l-2.371-0.086c-0.004-2.045-0.23-4.092-0.615-6.125c-0.383-2.033-0.92-4.053-1.519-6.07
			c-0.599-2.02-1.26-4.039-1.892-6.083C29.304,18.12,28.702,16.063,28.203,13.92z"/>
		<path fill="#FFFFFF" d="M1.872,11.334c-0.07,0.004-0.095,0.006-0.189-0.044c-0.655-0.292-1.625-1.091-0.188-2.212
			C1.521,9.057,1.646,8.98,1.712,8.966c0.055,0.002,0.489-0.044,1.211-0.121C3.288,8.803,3.735,8.737,4.24,8.667
			C4.746,8.58,5.313,8.496,5.932,8.372c1.236-0.232,2.67-0.552,4.213-0.915c1.543-0.362,3.199-0.762,4.883-1.102
			c0.422-0.084,0.842-0.171,1.268-0.242c0.423-0.077,0.845-0.15,1.269-0.209c0.211-0.032,0.421-0.063,0.631-0.095
			c0.211-0.025,0.421-0.049,0.63-0.074c0.197-0.023,0.392-0.046,0.586-0.069c0.199-0.025,0.396-0.051,0.592-0.076
			c1.564-0.203,3.021-0.392,4.27-0.554c1.24-0.174,2.276-0.311,2.993-0.426c0.718-0.113,1.127-0.178,1.127-0.178
			s0.27-0.026,0.721-0.07c0.45-0.052,1.081-0.124,1.806-0.207c1.452-0.167,3.272-0.426,4.783-0.654
			c0.643-0.09,1.164-0.202,1.596-0.266c0.431-0.066,0.766-0.104,1.017-0.116c0.502-0.022,0.662,0.051,0.568,0.203
			c-0.093,0.149-0.444,0.37-0.962,0.631c-0.519,0.254-1.198,0.58-1.974,0.84c0.171-0.023-1.682,0.612-3.621,1.114
			c-0.481,0.141-0.972,0.242-1.43,0.356c-0.46,0.109-0.891,0.212-1.26,0.3c-0.742,0.156-1.24,0.262-1.24,0.262
			s-0.413,0.066-1.135,0.18c-0.721,0.101-1.752,0.245-2.99,0.417c-1.233,0.16-2.674,0.348-4.219,0.548
			c-0.389,0.047-0.784,0.095-1.184,0.144c-0.383,0.04-0.773,0.107-1.165,0.164c-0.786,0.122-1.585,0.273-2.386,0.436
			c-1.603,0.329-3.214,0.72-4.746,1.079c-1.531,0.361-2.985,0.684-4.255,0.921c-0.631,0.127-1.225,0.214-1.749,0.305
			c-0.531,0.072-0.99,0.142-1.386,0.187C2.386,11.29,1.911,11.338,1.872,11.334z"/>
	</g>
	<g display="inline">
		<path fill="#FFFFFF" d="M50.994,14.406c-0.115-0.031-0.158-0.043-0.292-0.138c-0.248-0.147-0.462-0.345-0.64-0.556
			c-0.178-0.21-0.31-0.434-0.337-0.646c-0.027-0.211,0.05-0.411,0.294-0.573c0.121-0.081,0.285-0.152,0.497-0.21
			c0.106-0.03,0.225-0.056,0.356-0.079c0.066-0.01,0.134-0.021,0.206-0.033c0.067-0.014,0.139-0.028,0.212-0.043
			c0.043-0.008,0.239-0.026,0.331-0.012l0.376,0.099l0.397,0.083c0.264,0.057,0.529,0.114,0.799,0.152
			c0.536,0.095,1.083,0.158,1.631,0.216c1.099,0.11,2.222,0.151,3.36,0.175c2.275,0.05,4.621,0.011,7.021,0.295l1.057,0.125
			l-0.015,1.05c-0.021,1.416-0.44,2.712-0.986,3.859c-0.558,1.148-1.248,2.176-1.983,3.146c-1.479,1.932-3.152,3.624-4.859,5.248
			c-1.711,1.621-3.476,3.156-5.224,4.686c-0.873,0.764-1.743,1.525-2.59,2.297c-0.844,0.77-1.672,1.553-2.413,2.357
			c-0.225-0.65-0.449-1.303-0.673-1.955l0.464,0.066c0,0,0.404,0.074,1.082,0.197c0.337,0.072,0.751,0.121,1.217,0.186
			c0.233,0.031,0.479,0.064,0.737,0.1c0.257,0.039,0.526,0.076,0.807,0.1c2.234,0.268,5.101,0.422,7.477,0.58
			c4.035,0.211,5.251,0.475,4.827,0.703c-0.424,0.23-2.47,0.445-4.974,0.609c0.247,0.016-2.423,0.178-5.343,0.184
			c-0.729,0.006-1.476-0.023-2.191-0.033c-0.716-0.02-1.406-0.078-2.022-0.109c-0.154-0.012-0.303-0.016-0.448-0.029
			c-0.145-0.018-0.283-0.031-0.417-0.047c-0.267-0.029-0.51-0.055-0.724-0.08c-0.428-0.047-0.739-0.082-0.889-0.098l-2.197-0.244
			l1.521-1.721c0.045-0.051,0.069-0.078,0.069-0.078c0.832-0.896,1.695-1.705,2.563-2.496c0.868-0.789,1.744-1.555,2.615-2.318
			c1.743-1.525,3.478-3.035,5.132-4.608c1.649-1.57,3.245-3.193,4.583-4.951c0.666-0.877,1.268-1.788,1.722-2.729
			c0.449-0.939,0.732-1.909,0.747-2.821l1.044,1.178c-2.181-0.259-4.456-0.229-6.786-0.276
			C55.804,15.168,53.405,15.035,50.994,14.406z"/>
		<path fill="#FFFFFF" d="M67.208,23.786c-0.026-0.095-0.037-0.129-0.018-0.268c0.031-0.478,0.197-1.039,0.524-1.298
			c0.166-0.127,0.375-0.173,0.637-0.082c0.131,0.045,0.276,0.125,0.435,0.245c0.158,0.123,0.333,0.285,0.524,0.479
			c0.028,0.028,0.14,0.171,0.173,0.249c0.551,1.819,1.215,3.635,2.013,5.352c0.4,0.859,0.832,1.699,1.31,2.488
			c0.48,0.783,1.015,1.525,1.602,2.102l-1.844,0.25c0.595-1.023,1.01-2.223,1.287-3.453c0.275-1.234,0.417-2.516,0.418-3.781
			l2.288-0.417c1.238,3.305,2.468,6.559,4.254,9.44l-1.517-0.439c0.319-0.18,0.637-0.359,0.885-0.619
			c0.141-0.113,0.242-0.271,0.366-0.402l0.156-0.232l0.08-0.115c0.024-0.039,0.045-0.084,0.068-0.127
			c0.371-0.668,0.603-1.48,0.711-2.346c0,0,0.014-0.082,0.04-0.23c0.03-0.148,0.052-0.373,0.088-0.652
			c0.06-0.563,0.109-1.369,0.095-2.32c-0.012-0.949-0.081-2.037-0.184-3.14c-0.104-1.105-0.237-2.225-0.35-3.245
			c-0.223-1.725-0.318-2.871-0.295-3.537c0.022-0.667,0.128-0.848,0.264-0.683c0.139,0.165,0.314,0.667,0.549,1.388
			c0.231,0.72,0.514,1.66,0.795,2.707c-0.01-0.113,0.143,0.457,0.364,1.386c0.22,0.93,0.505,2.222,0.712,3.563
			c0.217,1.336,0.326,2.729,0.314,3.805c-0.002,0.27-0.017,0.518-0.024,0.738c-0.015,0.223-0.035,0.418-0.049,0.578
			c-0.011,0.16-0.034,0.289-0.046,0.375c-0.012,0.086-0.019,0.133-0.019,0.133c-0.182,0.971-0.477,1.975-1.057,2.9
			c-0.57,0.924-1.441,1.729-2.433,2.205l-0.965,0.465L78.8,36.34c-1.946-3.145-3.219-6.553-4.46-9.855l2.298-0.416
			c-0.002,1.445-0.16,2.881-0.475,4.297c-0.32,1.412-0.788,2.814-1.558,4.143l-0.765,1.32l-1.083-1.07
			c-0.816-0.807-1.426-1.682-1.975-2.57c-0.541-0.891-1.009-1.803-1.438-2.727C68.487,27.613,67.796,25.726,67.208,23.786z"/>
		<path fill="#FFFFFF" d="M87.832,16.243c0-0.029,0-0.04,0.058-0.079c0.335-0.266,1.196-0.649,2.219-0.016
			c0.019,0.011,0.087,0.066,0.098,0.094c-0.002,0.156-0.011,11.423-0.011,11.423s-0.244,1.836-0.604,3.123
			c-0.506,2.186-1.031,1.313-1.313-0.043c-0.051,0.143-0.445-3.238-0.445-3.238S87.832,16.399,87.832,16.243z"/>
		<path fill="#FFFFFF" d="M96.77,32.307c-0.003,0.133-0.003,0.18-0.063,0.354c-0.354,1.197-1.241,2.918-2.221,0.047
			c-0.019-0.051-0.082-0.301-0.091-0.426l0.287-19.175l2.284-0.437c1.75,4.428,3.431,8.844,5.395,13.112
			c0.981,2.131,2.03,4.225,3.198,6.233c1.169,2.004,2.458,3.93,3.952,5.631c-0.686,0.215-1.369,0.428-2.055,0.641l0.181-1.883
			l0.091-0.941c0.022-0.314,0.036-0.631,0.054-0.947c0,0,0.044-0.508,0.117-1.361c0.02-0.213,0.04-0.449,0.062-0.701
			c0.016-0.254,0.031-0.529,0.048-0.818c0.034-0.582,0.072-1.23,0.113-1.922c0.132-2.771,0.215-6.289,0.326-9.197
			c0.041-1.234,0.082-2.252,0.132-3.078c0.057-0.826,0.114-1.458,0.173-1.919c0.116-0.923,0.239-1.163,0.354-0.905
			c0.234,0.517,0.446,3.019,0.658,6.066c0.012-0.318,0.234,3.324,0.354,7.08c0.026,0.938,0.061,1.881,0.055,2.773
			c0.002,0.447,0.004,0.877,0.007,1.287c0.002,0.41,0.006,0.799-0.008,1.158c-0.041,1.439-0.068,2.406-0.068,2.406
			c-0.088,1.061-0.198,2.121-0.298,3.184l-0.251,2.717l-1.815-2.07c-1.642-1.871-3-3.914-4.224-6.008
			c-1.221-2.098-2.302-4.254-3.307-6.434c-2.007-4.361-3.706-8.828-5.446-13.228l2.289-0.438L96.77,32.307z"/>
		<path fill="#FFFFFF" d="M131.341,14.622c0.138,0.044,0.191,0.064,0.355,0.18c0.144,0.094,0.288,0.2,0.425,0.31
			c0.07,0.055,0.136,0.112,0.179,0.171c0.049,0.059,0.097,0.12,0.14,0.18c0.176,0.242,0.303,0.491,0.314,0.708
			c0.011,0.218-0.092,0.406-0.374,0.528c-0.141,0.061-0.325,0.104-0.563,0.127c-0.116,0.015-0.255,0.011-0.392,0.025
			c-0.132,0.023-0.27,0.043-0.415,0.062c-0.045,0.006-0.231,0.009-0.32-0.009c-0.759-0.208-1.552-0.286-2.35-0.242
			c-0.2,0.021-0.4,0.016-0.603,0.054l-0.6,0.098l-0.595,0.15c-0.101,0.021-0.2,0.051-0.298,0.087l-0.294,0.099
			c-1.57,0.537-3.042,1.468-4.342,2.592c-1.297,1.132-2.434,2.471-3.331,3.94c-0.901,1.465-1.558,3.076-1.826,4.703
			c-0.124,0.813-0.138,1.627-0.021,2.4l0.043,0.291c0.018,0.096,0.048,0.188,0.07,0.281l0.071,0.281l0.018,0.07
			c0.002,0.008,0.01,0.035,0.007,0.023l0.014,0.041l0.053,0.164l0.055,0.164l0.05,0.125c0.029,0.084,0.063,0.168,0.104,0.258
			c0.037,0.088,0.075,0.176,0.119,0.256c0.039,0.086,0.082,0.164,0.128,0.24c0.18,0.311,0.387,0.572,0.609,0.754
			c0.109,0.094,0.224,0.168,0.343,0.225c0.118,0.061,0.243,0.102,0.377,0.129c0.526,0.117,1.237-0.029,1.933-0.369
			c0.701-0.33,1.387-0.82,2.024-1.371c0.639-0.553,1.235-1.18,1.777-1.848c0.54-0.666,1.034-1.377,1.438-2.111
			c0.2-0.369,0.382-0.742,0.525-1.113c0.145-0.369,0.251-0.738,0.299-1.066l2.335,0.316c-0.107,0.928-0.228,1.854-0.325,2.783
			c0,0-0.058,0.465-0.155,1.244c-0.044,0.389-0.114,0.855-0.167,1.387c-0.057,0.531-0.118,1.121-0.184,1.752
			c-0.251,2.529-0.483,5.734-0.684,8.389c-0.278,4.504-0.521,5.861-0.756,5.389c-0.227-0.473-0.434-2.773-0.555-5.576
			c-0.022,0.291-0.129-3.061-0.084-6.504c0.005-0.432,0.012-0.863,0.017-1.289c0.014-0.426,0.027-0.848,0.041-1.254
			c0.016-0.408,0.027-0.803,0.041-1.178s0.041-0.73,0.059-1.059c0.041-0.658,0.073-1.207,0.096-1.59
			c0.01-0.193,0.027-0.344,0.036-0.447c0.01-0.104,0.014-0.158,0.014-0.158l0.261-2.203l2.353,0.32
			c-0.084,0.588-0.246,1.109-0.436,1.6c-0.19,0.492-0.416,0.951-0.657,1.395c-0.486,0.885-1.053,1.699-1.675,2.467
			c-0.624,0.768-1.304,1.486-2.063,2.143c-0.761,0.654-1.586,1.26-2.559,1.723c-0.485,0.23-1.01,0.426-1.586,0.539
			c-0.573,0.115-1.209,0.146-1.852,0.01c-0.64-0.129-1.264-0.441-1.745-0.854c-0.494-0.406-0.856-0.893-1.141-1.381
			c-0.073-0.123-0.14-0.246-0.2-0.369c-0.063-0.123-0.121-0.248-0.174-0.373c-0.055-0.121-0.106-0.25-0.155-0.383l-0.074-0.199
			l-0.056-0.166l-0.054-0.166l-0.014-0.041c-0.012-0.037-0.012-0.037-0.017-0.059l-0.027-0.098l-0.101-0.391
			c-0.031-0.129-0.072-0.26-0.096-0.391l-0.061-0.395c-0.159-1.053-0.135-2.109,0.022-3.123c0.333-2.023,1.113-3.893,2.142-5.574
			c1.031-1.685,2.313-3.196,3.799-4.494c1.49-1.288,3.194-2.381,5.126-3.046C127.086,14.215,129.286,14.053,131.341,14.622z"/>
		<path fill="#FFFFFF" d="M150.185,10.592c0.068-0.01,0.093-0.014,0.189,0.028c0.646,0.236,1.735,0.921,0.39,2.186
			c-0.023,0.022-0.144,0.11-0.208,0.131c-0.046,0.007-0.501,0.078-1.262,0.196c-0.756,0.119-1.809,0.281-3.043,0.517
			c-1.227,0.239-2.652,0.54-4.06,1.019c-0.699,0.238-1.398,0.529-1.975,0.889c-0.285,0.177-0.534,0.376-0.695,0.566
			c-0.037,0.047-0.068,0.093-0.106,0.137c-0.042,0.069,0.056-0.091,0.043-0.071l-0.003,0.009l-0.011,0.017l-0.019,0.035
			l-0.039,0.069l-0.075,0.138l-0.04,0.069c-0.012,0.022-0.008,0.029-0.014,0.044l-0.023,0.076c-0.018,0.056-0.038,0.08-0.062,0.176
			c-0.193,0.637-0.291,1.425-0.344,2.201c-0.053,0.781-0.062,1.572-0.057,2.343c0.006,0.774,0.027,1.523,0.038,2.263
			c0.002,0.183,0.003,0.361,0.005,0.537c0.004,0.171,0.002,0.357,0.009,0.508c0.009,0.31,0.025,0.619,0.046,0.916
			c0.087,1.184,0.275,2.139,0.446,2.784c0.087,0.322,0.162,0.574,0.223,0.74c0.053,0.168,0.089,0.254,0.087,0.254
			c0,0,0.019,0.059,0.051,0.166c0.033,0.109,0.086,0.264,0.154,0.453c0.14,0.381,0.358,0.908,0.692,1.459
			c0.33,0.557,0.789,1.123,1.355,1.607c0.563,0.49,1.239,0.871,1.898,1.152c0.139,0.064,0.279,0.105,0.411,0.154
			c0.133,0.047,0.26,0.09,0.384,0.123c0.123,0.039,0.241,0.074,0.354,0.107c0.112,0.029,0.221,0.057,0.323,0.082
			c0.413,0.104,0.733,0.184,0.971,0.242c0.477,0.127,0.613,0.244,0.479,0.361c-0.135,0.109-0.54,0.24-1.137,0.295
			c-0.595,0.057-1.385,0.049-2.248-0.133c0.086,0.033-0.392-0.039-1.128-0.322c-0.369-0.135-0.793-0.346-1.236-0.607
			c-0.438-0.27-0.882-0.609-1.29-0.992c-0.82-0.77-1.441-1.723-1.826-2.461c-0.092-0.188-0.174-0.357-0.249-0.51
			c-0.066-0.154-0.125-0.289-0.175-0.4c-0.092-0.223-0.139-0.354-0.139-0.354s-0.039-0.107-0.099-0.311
			c-0.062-0.203-0.148-0.502-0.237-0.883c-0.185-0.762-0.371-1.857-0.446-3.167c-0.043-0.661-0.039-1.383-0.05-2.052
			c-0.014-0.702-0.034-1.463-0.036-2.258c-0.001-0.796,0.014-1.627,0.081-2.491c0.032-0.431,0.08-0.873,0.153-1.327
			c0.031-0.223,0.091-0.461,0.137-0.691c0.025-0.116,0.065-0.239,0.098-0.358c0.039-0.125,0.057-0.225,0.123-0.382
			c0.055-0.146,0.116-0.29,0.178-0.433l0.023-0.053l0.02-0.036l0.037-0.068l0.075-0.136l0.038-0.068l0.019-0.034l0.005-0.009
			c-0.041,0.066,0.061-0.099,0.054-0.086l0.017-0.023l0.135-0.182c0.089-0.126,0.188-0.229,0.286-0.332
			c0.393-0.409,0.812-0.702,1.224-0.953c0.827-0.489,1.646-0.805,2.436-1.074c1.58-0.524,3.055-0.83,4.321-1.077
			c1.269-0.241,2.33-0.405,3.082-0.523C149.69,10.669,150.139,10.599,150.185,10.592z"/>
		<path fill="#FFFFFF" d="M156.815,36.115c0,0.117,0,0.158-0.057,0.314c-0.326,1.07-1.176,2.615-2.219,0.08
			c-0.019-0.047-0.089-0.268-0.099-0.379l-0.104-9.699c0-1.625-0.019-3.247-0.001-4.873l0.123-4.889l0.092-3.622l2.065,3.004
			c2.208,3.214,3.853,6.688,5.511,10.053c1.658,3.363,3.353,6.666,5.634,9.465c-0.677,0.121-1.352,0.242-2.028,0.361
			c0.376-1.139,0.668-2.318,0.885-3.523c0,0,0.007-0.027,0.02-0.078c0.01-0.051,0.023-0.129,0.042-0.229
			c0.038-0.201,0.093-0.494,0.163-0.859c0.069-0.367,0.124-0.813,0.203-1.314c0.072-0.504,0.132-1.068,0.198-1.672
			c0.116-1.211,0.202-2.591,0.246-3.99c0.034-1.399,0.036-2.816,0.019-4.101c-0.062-2.178-0.133-3.602-0.119-4.429
			c0.01-0.827,0.099-1.058,0.246-0.847c0.287,0.421,0.827,2.613,1.193,5.337c-0.013-0.288,0.438,2.968,0.467,6.357
			c0.025,1.691-0.057,3.412-0.182,4.711c-0.077,0.648-0.137,1.191-0.193,1.572c-0.063,0.379-0.101,0.598-0.101,0.598
			c-0.2,1.088-0.506,2.168-0.852,3.238l-0.661,2.057l-1.38-1.693c-1.244-1.527-2.31-3.168-3.27-4.84
			c-0.959-1.674-1.817-3.379-2.653-5.074c-1.668-3.388-3.271-6.75-5.34-9.756l2.162-0.62l-0.119,4.809
			c-0.018,1.606,0.003,3.218,0.001,4.827L156.815,36.115z"/>
		<path fill="#FFFFFF" d="M89.936,0.384c0.024-0.008,0.033-0.011,0.084,0.031c0.335,0.235,0.949,0.929,0.779,2.079
			c-0.003,0.021-0.025,0.101-0.044,0.119c-0.009,0.003-0.054,0.019-0.127,0.046s-0.193,0.066-0.29,0.114
			c-0.106,0.047-0.236,0.103-0.382,0.167c-0.145,0.077-0.314,0.162-0.488,0.257c-0.337,0.201-0.706,0.458-0.981,0.757l-0.101,0.112
			c-0.036,0.037-0.054,0.076-0.082,0.113c-0.024,0.038-0.059,0.075-0.079,0.113c-0.017,0.037-0.036,0.073-0.055,0.11
			c-0.063,0.141-0.105,0.269-0.092,0.356c0.005,0.091,0.023,0.158,0.071,0.237c0.05,0.077,0.148,0.155,0.265,0.23
			c0.255,0.141,0.619,0.211,0.947,0.208c0.164,0.011,0.326-0.022,0.465-0.028c0.146-0.027,0.271-0.05,0.373-0.07
			c0.21-0.058,0.33-0.091,0.33-0.091s0.021-0.001,0.058-0.005c0.038-0.006,0.094-0.016,0.164-0.027
			c0.072-0.01,0.157-0.023,0.255-0.037c0.098-0.018,0.205-0.045,0.323-0.069c0.119-0.022,0.248-0.051,0.378-0.09
			c0.131-0.038,0.271-0.069,0.412-0.112c0.274-0.092,0.568-0.17,0.834-0.264c0.444-0.16,0.748-0.273,0.967-0.288
			c0.218-0.019,0.336,0.039,0.373,0.159c0.038,0.119-0.007,0.296-0.111,0.51c-0.051,0.106-0.117,0.223-0.198,0.343
			c-0.085,0.115-0.183,0.236-0.289,0.359c0.067-0.021-0.465,0.534-1.138,1c-0.161,0.125-0.346,0.226-0.512,0.332
			c-0.164,0.107-0.333,0.19-0.477,0.264c-0.285,0.153-0.499,0.229-0.499,0.229s-0.043,0.012-0.125,0.035
			c-0.084,0.021-0.202,0.061-0.364,0.087c-0.162,0.025-0.349,0.078-0.584,0.094c-0.116,0.011-0.24,0.022-0.37,0.034
			c-0.133,0.004-0.274,0.001-0.422,0c-0.297-0.01-0.626-0.042-0.979-0.131c-0.174-0.032-0.358-0.11-0.542-0.173
			c-0.092-0.031-0.187-0.085-0.28-0.129c-0.092-0.05-0.188-0.088-0.28-0.155c-0.372-0.226-0.735-0.568-1.007-1.004
			c-0.28-0.435-0.417-0.99-0.406-1.505c-0.005-0.265,0.051-0.504,0.102-0.747c0.076-0.222,0.147-0.456,0.254-0.644
			c0.052-0.097,0.103-0.198,0.157-0.289c0.061-0.085,0.118-0.17,0.177-0.255c0.116-0.176,0.249-0.308,0.374-0.453
			c0.518-0.547,1.059-0.9,1.523-1.181c0.235-0.127,0.453-0.241,0.649-0.34c0.205-0.09,0.386-0.169,0.536-0.235
			c0.157-0.071,0.252-0.099,0.329-0.128C89.885,0.403,89.928,0.387,89.936,0.384z"/>
		<path fill="#FFFFFF" d="M140.08,26.027c-0.019,0-0.025,0-0.056-0.055c-0.2-0.322-0.515-1.165-0.161-2.213
			c0.007-0.02,0.039-0.089,0.057-0.102c0.025-0.001,0.516-0.033,1.237-0.08c0.36-0.022,0.776-0.055,1.228-0.076
			c0.456-0.015,0.941-0.029,1.426-0.045c0.483-0.014,0.971-0.036,1.419-0.041c0.445-0.006,0.863-0.01,1.22-0.014
			c0.715-0.007,1.188-0.013,1.188-0.013s0.31,0.059,0.727,0.165c0.417,0.104,0.94,0.255,1.372,0.436
			c1.466,0.503,0.879,1.027-0.027,1.311c0.048,0.026-0.493,0.139-1.046,0.246c-0.554,0.104-1.116,0.209-1.116,0.209
			s-0.461,0.005-1.155,0.014c-0.347,0.004-0.754,0.009-1.188,0.014c-0.429,0.014-0.887,0.027-1.347,0.042
			c-0.458,0.015-0.918,0.03-1.349,0.044c-0.439,0.028-0.852,0.055-1.207,0.077C140.592,25.993,140.107,26.025,140.08,26.027z"/>
	</g>
</g>
<g id="Layer_2">
	<g>
		<path fill="#2B66FF" d="M17.514,19.052c0.001-0.033,0.001-0.044,0.056-0.087c0.317-0.296,1.133-0.72,2.095-0.011
			c0.018,0.014,0.082,0.075,0.09,0.106c-0.001,0.173-0.057,12.72-0.057,12.72s-0.237,2.043-0.584,3.476
			c-0.486,2.43-0.977,1.456-1.238-0.053c-0.048,0.156-0.409-3.606-0.409-3.606S17.514,19.227,17.514,19.052z"/>
		<path fill="#2B66FF" d="M28.579,20.377c-0.022-0.106-0.031-0.144-0.006-0.292c0.105-1.021,0.608-2.564,2.036-0.495
			c0.026,0.039,0.13,0.222,0.162,0.32c0.434,1.893,0.982,3.811,1.564,5.716c0.582,1.91,1.2,3.824,1.77,5.772
			c0.569,1.947,1.09,3.93,1.464,5.958c0.375,2.027,0.599,4.104,0.596,6.195c-0.744-0.032-1.486-0.062-2.229-0.092
			c0.229-2.967,0.517-5.941,0.976-8.909c0.459-2.966,1.094-5.928,2.02-8.816c0,0,0.148-0.406,0.396-1.084
			c0.126-0.338,0.306-0.734,0.493-1.185c0.193-0.45,0.397-0.954,0.664-1.473c0.989-2.107,2.495-4.636,4.016-6.495
			c0.146-0.207,0.303-0.393,0.455-0.57c0.15-0.177,0.293-0.345,0.43-0.505c0.274-0.32,0.522-0.605,0.747-0.858
			c0.477-0.483,0.854-0.84,1.139-1.091c0.569-0.503,0.784-0.57,0.728-0.341c-0.053,0.232-0.367,0.769-0.848,1.489
			c-0.117,0.182-0.257,0.367-0.385,0.577c-0.13,0.209-0.267,0.429-0.409,0.659c-0.146,0.227-0.297,0.463-0.453,0.707
			c-0.079,0.122-0.159,0.245-0.239,0.37c-0.075,0.129-0.15,0.26-0.227,0.392c0.08-0.099-0.257,0.475-0.805,1.388
			c-0.25,0.472-0.546,1.031-0.867,1.638c-0.04,0.075-0.08,0.151-0.121,0.229c-0.037,0.079-0.074,0.159-0.111,0.239
			c-0.074,0.161-0.149,0.324-0.225,0.489c-0.152,0.329-0.307,0.663-0.461,1c-0.289,0.682-0.556,1.377-0.816,2.025
			c-0.226,0.661-0.438,1.28-0.622,1.813c-0.315,1.079-0.527,1.805-0.527,1.805c-0.82,2.673-1.389,5.431-1.807,8.224
			c-0.419,2.791-0.691,5.62-0.911,8.458l-2.237-0.089c0.004-1.929-0.203-3.861-0.558-5.782c-0.354-1.919-0.854-3.825-1.411-5.733
			c-0.559-1.907-1.175-3.814-1.765-5.747C29.602,24.345,29.042,22.4,28.579,20.377z"/>
		<path fill="#2B66FF" d="M3.74,17.844c-0.066,0.003-0.09,0.005-0.179-0.044c-0.617-0.277-1.529-1.035-0.169-2.087
			c0.025-0.02,0.145-0.091,0.207-0.105c0.052,0.002,0.461-0.039,1.143-0.109c0.344-0.039,0.767-0.1,1.243-0.165
			c0.479-0.08,1.015-0.157,1.598-0.272c1.167-0.214,2.521-0.511,3.979-0.848c1.458-0.335,3.021-0.708,4.612-1.022
			c0.398-0.078,0.795-0.158,1.197-0.224c0.399-0.071,0.798-0.14,1.198-0.194c0.2-0.028,0.398-0.057,0.595-0.086
			c0.2-0.022,0.398-0.045,0.595-0.067c0.186-0.022,0.37-0.043,0.554-0.064c0.187-0.023,0.374-0.046,0.559-0.069
			c1.476-0.186,2.852-0.359,4.031-0.507c1.171-0.161,2.148-0.285,2.825-0.393c0.678-0.104,1.065-0.164,1.065-0.164
			s0.254-0.024,0.681-0.064c0.424-0.047,1.02-0.113,1.705-0.189c1.371-0.152,3.089-0.39,4.516-0.6
			c0.606-0.083,1.098-0.187,1.506-0.245c0.407-0.061,0.724-0.095,0.96-0.106c0.474-0.019,0.625,0.051,0.536,0.194
			c-0.089,0.14-0.421,0.347-0.91,0.592c-0.491,0.238-1.133,0.543-1.866,0.786c0.162-0.021-1.59,0.572-3.421,1.038
			c-0.455,0.131-0.917,0.226-1.351,0.332c-0.435,0.103-0.841,0.197-1.191,0.279c-0.7,0.145-1.17,0.242-1.17,0.242
			s-0.39,0.061-1.072,0.167c-0.681,0.092-1.654,0.224-2.823,0.383c-1.165,0.147-2.525,0.319-3.983,0.502
			c-0.367,0.043-0.74,0.087-1.117,0.132c-0.362,0.036-0.73,0.098-1.101,0.149c-0.741,0.112-1.497,0.252-2.253,0.404
			c-1.514,0.304-3.036,0.667-4.482,1.001c-1.447,0.335-2.82,0.635-4.02,0.854c-0.596,0.117-1.157,0.198-1.651,0.281
			c-0.501,0.066-0.936,0.131-1.308,0.172C4.225,17.803,3.777,17.846,3.74,17.844z"/>
		<path fill="#2B66FF" d="M57.761,17.423c-0.109-0.03-0.149-0.041-0.275-0.131c-0.234-0.141-0.435-0.328-0.602-0.527
			c-0.167-0.199-0.291-0.41-0.317-0.61c-0.025-0.2,0.049-0.388,0.28-0.54c0.115-0.076,0.27-0.143,0.47-0.197
			c0.1-0.028,0.211-0.051,0.336-0.073c0.063-0.01,0.127-0.019,0.195-0.03c0.063-0.013,0.13-0.026,0.2-0.04
			c0.042-0.007,0.227-0.024,0.313-0.011l0.354,0.095l0.375,0.08c0.25,0.055,0.499,0.109,0.754,0.147
			c0.505,0.091,1.021,0.153,1.538,0.209c1.037,0.108,2.096,0.15,3.17,0.177c2.146,0.055,4.36,0.027,6.624,0.303l0.997,0.121
			l-0.017,0.991c-0.024,1.335-0.425,2.558-0.945,3.639c-0.531,1.081-1.185,2.049-1.882,2.96c-1.402,1.819-2.987,3.409-4.604,4.937
			c-1.62,1.522-3.292,2.966-4.946,4.4c-0.826,0.719-1.65,1.434-2.451,2.159c-0.8,0.723-1.584,1.458-2.286,2.216
			c-0.21-0.615-0.419-1.23-0.629-1.847l0.438,0.063c0,0,0.381,0.072,1.02,0.192c0.318,0.069,0.708,0.116,1.147,0.179
			c0.221,0.03,0.453,0.064,0.695,0.098c0.243,0.037,0.496,0.072,0.762,0.095c2.107,0.261,4.812,0.418,7.053,0.575
			c3.807,0.213,4.954,0.467,4.551,0.681c-0.4,0.216-2.332,0.41-4.694,0.558c0.232,0.015-2.288,0.157-5.042,0.153
			c-0.688,0.004-1.393-0.028-2.068-0.04c-0.676-0.021-1.327-0.078-1.908-0.111c-0.146-0.009-0.286-0.014-0.423-0.027
			c-0.136-0.015-0.267-0.03-0.393-0.046c-0.251-0.027-0.48-0.053-0.683-0.076c-0.403-0.047-0.696-0.079-0.838-0.097l-2.074-0.237
			l1.442-1.619c0.043-0.048,0.066-0.074,0.066-0.074c0.789-0.842,1.605-1.603,2.427-2.345c0.822-0.743,1.652-1.462,2.477-2.178
			c1.65-1.435,3.293-2.854,4.859-4.331c1.562-1.476,3.072-3.003,4.341-4.655c0.631-0.826,1.204-1.684,1.635-2.57
			c0.427-0.885,0.698-1.798,0.715-2.659l0.98,1.116c-2.057-0.253-4.204-0.233-6.401-0.285
			C62.297,18.159,60.034,18.025,57.761,17.423z"/>
		<path fill="#2B66FF" d="M73.027,26.332c-0.025-0.089-0.035-0.121-0.016-0.253c0.031-0.45,0.189-0.98,0.499-1.222
			c0.157-0.12,0.354-0.163,0.602-0.076c0.124,0.044,0.26,0.119,0.41,0.235c0.149,0.114,0.313,0.268,0.493,0.45
			c0.027,0.028,0.132,0.163,0.162,0.237c0.514,1.721,1.134,3.434,1.881,5.057c0.374,0.813,0.778,1.606,1.227,2.354
			c0.451,0.741,0.952,1.443,1.504,1.989l-1.742,0.229c0.566-0.965,0.961-2.094,1.227-3.254c0.264-1.165,0.402-2.372,0.409-3.567
			l2.161-0.385c1.156,3.122,2.305,6.199,3.98,8.925l-1.43-0.42c0.302-0.17,0.603-0.338,0.837-0.583
			c0.133-0.104,0.229-0.255,0.346-0.377l0.149-0.22l0.075-0.107c0.023-0.038,0.043-0.08,0.065-0.12
			c0.352-0.628,0.574-1.396,0.679-2.212c0,0,0.014-0.076,0.038-0.218c0.03-0.138,0.051-0.351,0.086-0.614
			c0.059-0.529,0.108-1.291,0.099-2.188c-0.007-0.896-0.069-1.922-0.162-2.965c-0.094-1.042-0.216-2.1-0.319-3.063
			c-0.204-1.629-0.291-2.71-0.265-3.339c0.022-0.629,0.122-0.8,0.25-0.644c0.13,0.156,0.294,0.632,0.513,1.313
			c0.215,0.68,0.479,1.568,0.741,2.557c-0.01-0.106,0.133,0.431,0.337,1.31c0.204,0.878,0.47,2.098,0.66,3.363
			c0.2,1.26,0.297,2.577,0.284,3.592c-0.004,0.253-0.02,0.49-0.026,0.696c-0.015,0.211-0.034,0.394-0.047,0.545
			c-0.011,0.151-0.034,0.272-0.045,0.354c-0.012,0.082-0.019,0.125-0.019,0.125c-0.175,0.914-0.457,1.86-1.007,2.732
			c-0.542,0.872-1.367,1.625-2.306,2.073l-0.912,0.437l-0.526-0.859c-1.826-2.973-3.014-6.194-4.174-9.314l2.17-0.387
			c-0.007,1.366-0.161,2.72-0.463,4.056c-0.307,1.329-0.754,2.653-1.484,3.901l-0.726,1.244l-1.019-1.013
			c-0.767-0.764-1.34-1.593-1.854-2.435c-0.507-0.842-0.946-1.702-1.348-2.577C74.221,29.95,73.576,28.165,73.027,26.332z"/>
		<path fill="#2B66FF" d="M92.515,19.287c0.001-0.028,0.001-0.038,0.054-0.074c0.319-0.25,1.134-0.609,2.095-0.007
			c0.018,0.011,0.082,0.063,0.091,0.089c0,0.147-0.05,10.779-0.05,10.779s-0.236,1.733-0.581,2.946
			c-0.485,2.06-0.978,1.235-1.238-0.045c-0.05,0.134-0.412-3.057-0.412-3.057S92.514,19.436,92.515,19.287z"/>
		<path fill="#2B66FF" d="M100.893,34.479c-0.004,0.123-0.004,0.169-0.061,0.333c-0.337,1.127-1.182,2.747-2.096,0.036
			c-0.017-0.049-0.076-0.284-0.084-0.404l0.339-18.092l2.156-0.404c1.637,4.185,3.207,8.357,5.045,12.394
			c0.918,2.014,1.901,3.992,2.996,5.892c1.096,1.895,2.306,3.716,3.709,5.327c-0.647,0.198-1.294,0.399-1.94,0.599l0.177-1.776
			l0.088-0.889c0.023-0.297,0.036-0.595,0.056-0.894c0,0,0.043-0.48,0.116-1.283c0.018-0.203,0.038-0.423,0.06-0.663
			c0.016-0.239,0.03-0.498,0.048-0.772c0.034-0.549,0.072-1.16,0.112-1.811c0.135-2.616,0.227-5.934,0.342-8.679
			c0.042-1.165,0.086-2.125,0.136-2.904c0.056-0.779,0.113-1.375,0.169-1.811c0.112-0.87,0.23-1.096,0.338-0.853
			c0.219,0.489,0.41,2.85,0.599,5.727c0.013-0.301,0.209,3.137,0.308,6.681c0.022,0.887,0.051,1.776,0.043,2.618
			c0.001,0.421,0.001,0.829,0.002,1.215c0,0.386,0.003,0.751-0.013,1.093c-0.044,1.357-0.072,2.269-0.072,2.269
			c-0.085,1.002-0.194,2.003-0.291,3.004l-0.247,2.563l-1.705-1.96c-1.543-1.771-2.818-3.703-3.966-5.683
			c-1.146-1.984-2.156-4.023-3.097-6.085c-1.879-4.122-3.465-8.342-5.092-12.501l2.163-0.405L100.893,34.479z"/>
		<path fill="#2B66FF" d="M133.578,17.912c0.131,0.042,0.181,0.062,0.335,0.172c0.134,0.089,0.273,0.189,0.399,0.294
			c0.067,0.052,0.128,0.105,0.168,0.162c0.047,0.056,0.092,0.113,0.133,0.171c0.164,0.229,0.282,0.463,0.293,0.669
			c0.01,0.206-0.089,0.384-0.354,0.497c-0.134,0.057-0.308,0.098-0.532,0.12c-0.11,0.013-0.24,0.009-0.37,0.021
			c-0.123,0.021-0.254,0.041-0.392,0.057c-0.041,0.005-0.218,0.008-0.303-0.01c-0.715-0.2-1.463-0.275-2.216-0.237
			c-0.19,0.019-0.379,0.014-0.567,0.049l-0.567,0.09l-0.563,0.14c-0.094,0.02-0.188,0.047-0.279,0.081l-0.279,0.093
			c-1.483,0.501-2.876,1.374-4.106,2.431c-1.229,1.063-2.306,2.323-3.158,3.707c-0.854,1.379-1.479,2.896-1.738,4.433
			c-0.12,0.766-0.136,1.531-0.028,2.263l0.038,0.276c0.017,0.089,0.046,0.177,0.067,0.266l0.066,0.265l0.016,0.066
			c0.002,0.006,0.009,0.032,0.006,0.021l0.012,0.041l0.051,0.155l0.05,0.151l0.047,0.121c0.028,0.078,0.06,0.158,0.098,0.241
			c0.035,0.085,0.071,0.167,0.112,0.244c0.037,0.079,0.077,0.153,0.121,0.226c0.167,0.294,0.361,0.541,0.57,0.713
			c0.104,0.089,0.211,0.16,0.323,0.215c0.111,0.058,0.229,0.095,0.354,0.124c0.496,0.111,1.168-0.027,1.827-0.343
			c0.662-0.311,1.31-0.77,1.914-1.287c0.605-0.521,1.169-1.109,1.683-1.735c0.514-0.629,0.98-1.297,1.365-1.99
			c0.19-0.346,0.362-0.696,0.5-1.046c0.137-0.349,0.239-0.697,0.285-1.008l2.202,0.309c-0.105,0.876-0.222,1.747-0.316,2.625
			c0,0-0.057,0.438-0.15,1.173c-0.045,0.367-0.111,0.807-0.164,1.308c-0.054,0.501-0.113,1.058-0.179,1.652
			c-0.247,2.386-0.477,5.412-0.676,7.914c-0.278,4.248-0.512,5.529-0.73,5.083c-0.214-0.447-0.401-2.618-0.504-5.264
			c-0.022,0.273-0.11-2.888-0.057-6.141c0.006-0.404,0.014-0.812,0.02-1.214c0.016-0.401,0.031-0.8,0.044-1.185
			c0.015-0.383,0.029-0.755,0.042-1.109c0.016-0.354,0.043-0.689,0.061-1c0.04-0.62,0.072-1.136,0.096-1.499
			c0.01-0.181,0.026-0.324,0.035-0.424c0.01-0.097,0.014-0.148,0.014-0.148l0.255-2.076l2.219,0.311
			c-0.083,0.554-0.236,1.045-0.419,1.509c-0.181,0.464-0.394,0.896-0.623,1.313c-0.464,0.832-1,1.598-1.59,2.321
			c-0.592,0.721-1.237,1.397-1.955,2.014c-0.72,0.614-1.501,1.183-2.421,1.617c-0.458,0.215-0.953,0.397-1.498,0.502
			c-0.541,0.106-1.142,0.135-1.748,0.002c-0.603-0.125-1.19-0.421-1.644-0.81c-0.464-0.388-0.807-0.847-1.071-1.31
			c-0.067-0.114-0.131-0.23-0.187-0.349c-0.062-0.115-0.112-0.233-0.163-0.352c-0.05-0.114-0.1-0.237-0.146-0.363l-0.068-0.187
			l-0.053-0.158l-0.049-0.154l-0.015-0.04c-0.011-0.036-0.01-0.036-0.016-0.056l-0.024-0.093l-0.094-0.368
			c-0.03-0.123-0.066-0.246-0.089-0.371l-0.056-0.371c-0.147-0.994-0.119-1.988,0.03-2.944c0.323-1.91,1.066-3.67,2.042-5.255
			c0.979-1.585,2.194-3.007,3.602-4.227c1.411-1.21,3.023-2.235,4.847-2.855C129.565,17.514,131.642,17.368,133.578,17.912z"/>
		<path fill="#2B66FF" d="M151.374,14.177c0.064-0.01,0.086-0.013,0.181,0.026c0.608,0.226,1.633,0.875,0.359,2.064
			c-0.023,0.021-0.137,0.104-0.199,0.123c-0.043,0.006-0.473,0.072-1.189,0.18c-0.713,0.109-1.708,0.26-2.873,0.478
			c-1.159,0.221-2.506,0.5-3.835,0.947c-0.66,0.222-1.321,0.495-1.865,0.832c-0.271,0.166-0.507,0.354-0.659,0.532
			c-0.035,0.044-0.064,0.088-0.1,0.129c-0.041,0.066,0.052-0.085,0.04-0.066l-0.005,0.008l-0.009,0.017l-0.018,0.033l-0.036,0.064
			l-0.074,0.13l-0.035,0.065c-0.012,0.021-0.008,0.027-0.014,0.041l-0.022,0.071c-0.018,0.053-0.037,0.076-0.059,0.166
			c-0.186,0.601-0.28,1.344-0.334,2.076c-0.052,0.737-0.063,1.483-0.061,2.21c0.002,0.73,0.021,1.439,0.028,2.138
			c0.001,0.171,0.002,0.338,0.003,0.506c0.002,0.162-0.001,0.337,0.006,0.479c0.007,0.293,0.021,0.586,0.039,0.866
			c0.078,1.116,0.253,2.018,0.412,2.628c0.08,0.306,0.152,0.541,0.205,0.696c0.052,0.161,0.084,0.242,0.084,0.242
			s0.017,0.056,0.048,0.156c0.029,0.103,0.078,0.247,0.144,0.428c0.13,0.36,0.334,0.859,0.647,1.381
			c0.31,0.524,0.741,1.063,1.273,1.521c0.528,0.462,1.167,0.826,1.788,1.095c0.132,0.059,0.263,0.099,0.388,0.144
			c0.124,0.047,0.243,0.088,0.361,0.121c0.116,0.035,0.227,0.07,0.334,0.103c0.107,0.025,0.208,0.054,0.304,0.078
			c0.393,0.099,0.691,0.175,0.916,0.232c0.45,0.121,0.577,0.231,0.45,0.343c-0.128,0.1-0.512,0.224-1.074,0.274
			c-0.561,0.048-1.308,0.041-2.12-0.137c0.081,0.034-0.37-0.038-1.064-0.306c-0.347-0.13-0.745-0.329-1.163-0.578
			c-0.414-0.256-0.83-0.58-1.215-0.941c-0.771-0.729-1.354-1.629-1.714-2.328c-0.085-0.177-0.163-0.339-0.232-0.483
			c-0.064-0.146-0.118-0.271-0.164-0.376c-0.087-0.215-0.13-0.336-0.13-0.336s-0.036-0.101-0.093-0.293
			c-0.056-0.19-0.138-0.472-0.221-0.832c-0.17-0.722-0.342-1.756-0.409-2.991c-0.039-0.626-0.031-1.305-0.04-1.938
			c-0.01-0.662-0.027-1.38-0.026-2.13c0.002-0.751,0.019-1.535,0.085-2.351c0.032-0.408,0.08-0.824,0.151-1.251
			c0.028-0.211,0.086-0.435,0.13-0.651c0.024-0.11,0.063-0.226,0.094-0.338c0.037-0.118,0.055-0.211,0.116-0.36
			c0.056-0.137,0.11-0.273,0.171-0.407l0.021-0.051l0.019-0.033l0.036-0.065l0.072-0.128l0.035-0.063l0.017-0.032l0.006-0.008
			c-0.039,0.062,0.057-0.093,0.051-0.082l0.015-0.022l0.13-0.171c0.084-0.118,0.177-0.215,0.27-0.312
			c0.373-0.384,0.77-0.66,1.159-0.896c0.782-0.458,1.557-0.754,2.302-1.004c1.494-0.489,2.886-0.772,4.083-1.001
			c1.196-0.223,2.199-0.374,2.909-0.483C150.908,14.248,151.33,14.184,151.374,14.177z"/>
		<path fill="#2B66FF" d="M157.54,38.283c0,0.113,0,0.153-0.054,0.298c-0.312,1.009-1.119,2.462-2.094,0.069
			c-0.019-0.045-0.083-0.254-0.093-0.36l-0.062-9.151c0.007-1.532-0.008-3.063,0.016-4.598l0.133-4.613l0.1-3.417l1.938,2.843
			c2.072,3.04,3.611,6.324,5.165,9.505c1.552,3.18,3.14,6.305,5.282,8.953c-0.638,0.111-1.277,0.222-1.915,0.334
			c0.359-1.073,0.64-2.188,0.849-3.322c0,0,0.005-0.023,0.018-0.074c0.009-0.049,0.022-0.121,0.04-0.218
			c0.037-0.188,0.09-0.463,0.156-0.809c0.067-0.344,0.12-0.767,0.197-1.238c0.068-0.475,0.129-1.007,0.194-1.577
			c0.113-1.141,0.199-2.443,0.245-3.766c0.038-1.319,0.044-2.657,0.032-3.869c-0.05-2.055-0.111-3.399-0.097-4.179
			c0.013-0.78,0.097-0.998,0.234-0.798c0.271,0.399,0.773,2.469,1.107,5.041c-0.01-0.271,0.403,2.803,0.419,6.001
			c0.016,1.596-0.065,3.219-0.188,4.446c-0.075,0.61-0.132,1.122-0.188,1.48c-0.062,0.359-0.096,0.563-0.096,0.563
			c-0.193,1.028-0.486,2.044-0.815,3.053l-0.633,1.938l-1.296-1.604c-1.168-1.444-2.169-2.996-3.066-4.578
			c-0.901-1.581-1.704-3.194-2.486-4.796c-1.563-3.205-3.063-6.383-5.005-9.227l2.043-0.577l-0.131,4.538
			c-0.021,1.516-0.008,3.037-0.014,4.555L157.54,38.283z"/>
		<path fill="#2B66FF" d="M94.558,4.33c0.023-0.007,0.032-0.01,0.08,0.03c0.315,0.222,0.89,0.879,0.728,1.964
			c-0.004,0.02-0.025,0.095-0.043,0.112c-0.008,0.003-0.05,0.018-0.12,0.043c-0.067,0.025-0.182,0.062-0.273,0.106
			c-0.101,0.044-0.223,0.097-0.361,0.156c-0.137,0.072-0.296,0.152-0.461,0.242c-0.319,0.188-0.667,0.43-0.929,0.711L93.081,7.8
			c-0.033,0.035-0.05,0.072-0.077,0.108c-0.023,0.035-0.056,0.07-0.074,0.105c-0.017,0.036-0.034,0.07-0.053,0.103
			c-0.06,0.134-0.101,0.254-0.089,0.337c0.004,0.085,0.023,0.149,0.066,0.224c0.047,0.073,0.14,0.147,0.251,0.218
			c0.24,0.133,0.581,0.202,0.894,0.2c0.152,0.011,0.308-0.019,0.438-0.024c0.136-0.025,0.255-0.046,0.352-0.064
			c0.198-0.054,0.31-0.085,0.31-0.085s0.021-0.001,0.057-0.004c0.035-0.005,0.088-0.014,0.154-0.024
			c0.067-0.01,0.149-0.021,0.241-0.034c0.091-0.017,0.192-0.042,0.305-0.064c0.112-0.021,0.234-0.047,0.357-0.084
			c0.123-0.035,0.256-0.065,0.389-0.104c0.259-0.085,0.538-0.159,0.787-0.246c0.421-0.149,0.708-0.256,0.916-0.268
			c0.205-0.018,0.315,0.038,0.351,0.15s-0.006,0.28-0.106,0.481c-0.049,0.1-0.112,0.209-0.189,0.323
			c-0.08,0.108-0.173,0.222-0.274,0.337c0.064-0.019-0.439,0.502-1.078,0.94c-0.152,0.118-0.326,0.212-0.482,0.311
			c-0.155,0.101-0.314,0.179-0.452,0.247c-0.27,0.143-0.47,0.214-0.47,0.214s-0.042,0.012-0.12,0.033
			c-0.078,0.02-0.189,0.057-0.343,0.081c-0.152,0.024-0.33,0.072-0.551,0.087c-0.109,0.009-0.226,0.02-0.35,0.03
			c-0.125,0.002-0.26,0-0.398-0.001c-0.281-0.011-0.59-0.043-0.923-0.127c-0.164-0.031-0.338-0.106-0.512-0.166
			c-0.087-0.03-0.175-0.081-0.264-0.123c-0.087-0.048-0.176-0.083-0.262-0.147c-0.352-0.215-0.692-0.538-0.948-0.951
			c-0.262-0.411-0.39-0.936-0.377-1.421c-0.005-0.25,0.05-0.477,0.099-0.705c0.071-0.208,0.14-0.43,0.243-0.606
			c0.048-0.091,0.096-0.187,0.149-0.272c0.055-0.081,0.111-0.161,0.167-0.241c0.109-0.166,0.235-0.29,0.355-0.426
			c0.489-0.514,1.001-0.845,1.442-1.109c0.223-0.12,0.427-0.226,0.613-0.318c0.194-0.084,0.365-0.158,0.508-0.22
			c0.149-0.066,0.236-0.092,0.309-0.12C94.509,4.347,94.55,4.333,94.558,4.33z"/>
		<path fill="#2B66FF" d="M141.786,28.707c-0.021,0-0.026,0-0.054-0.052c-0.188-0.308-0.482-1.103-0.145-2.09
			c0.007-0.018,0.037-0.085,0.055-0.096c0.023,0,0.487-0.028,1.169-0.07c0.339-0.02,0.73-0.05,1.156-0.067
			c0.431-0.013,0.889-0.027,1.346-0.04c0.457-0.009,0.916-0.028,1.34-0.032c0.421-0.003,0.814-0.005,1.151-0.007
			c0.675-0.006,1.122-0.008,1.122-0.008s0.291,0.054,0.685,0.156c0.392,0.101,0.887,0.245,1.292,0.416
			c1.382,0.48,0.826,0.974-0.029,1.237c0.045,0.025-0.466,0.13-0.989,0.229c-0.521,0.096-1.053,0.192-1.053,0.192
			s-0.436,0.004-1.091,0.01c-0.328,0.002-0.711,0.004-1.12,0.008c-0.406,0.01-0.839,0.023-1.272,0.034
			c-0.432,0.013-0.865,0.026-1.273,0.037c-0.415,0.024-0.804,0.049-1.138,0.069C142.267,28.675,141.81,28.704,141.786,28.707z"/>
	</g>
	<g>
		<path fill="#002A96" d="M16.795,17.299c0.001-0.033,0.001-0.044,0.055-0.087c0.318-0.295,1.133-0.719,2.095-0.01
			c0.018,0.014,0.082,0.075,0.09,0.105c0,0.173-0.057,12.72-0.057,12.72s-0.237,2.045-0.584,3.476
			c-0.486,2.432-0.978,1.457-1.238-0.051c-0.049,0.157-0.408-3.609-0.408-3.609S16.795,17.475,16.795,17.299z"/>
		<path fill="#002A96" d="M27.858,18.625c-0.021-0.105-0.029-0.144-0.006-0.292c0.106-1.02,0.609-2.563,2.037-0.494
			c0.026,0.038,0.131,0.222,0.161,0.32c0.434,1.892,0.983,3.81,1.565,5.715c0.582,1.909,1.2,3.824,1.77,5.771
			c0.569,1.948,1.089,3.929,1.464,5.959c0.375,2.028,0.598,4.104,0.595,6.194c-0.743-0.031-1.486-0.059-2.229-0.09
			c0.229-2.966,0.519-5.94,0.978-8.911c0.458-2.965,1.094-5.926,2.019-8.815c0,0,0.148-0.405,0.396-1.083
			c0.126-0.338,0.306-0.735,0.494-1.186c0.192-0.451,0.396-0.954,0.664-1.473c0.988-2.107,2.495-4.636,4.016-6.495
			c0.146-0.207,0.304-0.393,0.454-0.57c0.151-0.177,0.293-0.345,0.43-0.505c0.274-0.32,0.523-0.605,0.747-0.858
			c0.477-0.483,0.854-0.84,1.139-1.091c0.568-0.503,0.784-0.57,0.728-0.341c-0.052,0.233-0.366,0.769-0.847,1.489
			c-0.118,0.182-0.257,0.367-0.385,0.577c-0.13,0.209-0.267,0.429-0.41,0.659c-0.145,0.228-0.296,0.464-0.452,0.708
			c-0.079,0.122-0.159,0.244-0.24,0.37c-0.075,0.129-0.15,0.26-0.226,0.392c0.08-0.099-0.258,0.476-0.806,1.389
			c-0.25,0.471-0.546,1.031-0.866,1.636c-0.04,0.075-0.081,0.152-0.122,0.229c-0.037,0.079-0.074,0.159-0.111,0.24
			c-0.074,0.16-0.148,0.323-0.225,0.488c-0.152,0.329-0.306,0.665-0.462,1c-0.288,0.682-0.556,1.377-0.816,2.025
			c-0.226,0.662-0.438,1.281-0.62,1.813c-0.316,1.081-0.529,1.806-0.529,1.806c-0.82,2.671-1.389,5.432-1.807,8.224
			c-0.418,2.791-0.691,5.618-0.911,8.458l-2.237-0.091c0.003-1.928-0.202-3.861-0.558-5.779c-0.355-1.922-0.854-3.828-1.413-5.735
			c-0.558-1.905-1.174-3.813-1.763-5.746C28.883,22.592,28.323,20.648,27.858,18.625z"/>
		<path fill="#002A96" d="M3.021,16.092c-0.066,0.003-0.09,0.005-0.179-0.043c-0.617-0.278-1.529-1.036-0.169-2.088
			c0.025-0.02,0.144-0.091,0.206-0.104c0.052,0.002,0.462-0.04,1.144-0.109c0.344-0.039,0.766-0.1,1.243-0.164
			c0.478-0.08,1.014-0.158,1.597-0.272c1.167-0.215,2.521-0.511,3.979-0.848c1.458-0.336,3.02-0.708,4.611-1.023
			c0.399-0.077,0.796-0.158,1.197-0.224c0.399-0.07,0.798-0.139,1.198-0.193c0.2-0.029,0.398-0.058,0.596-0.087
			c0.2-0.022,0.397-0.045,0.595-0.067c0.185-0.022,0.37-0.042,0.553-0.064c0.188-0.023,0.375-0.046,0.559-0.069
			c1.476-0.187,2.852-0.359,4.031-0.507c1.171-0.161,2.149-0.286,2.826-0.392c0.677-0.104,1.064-0.164,1.064-0.164
			s0.254-0.024,0.681-0.064c0.425-0.046,1.021-0.112,1.705-0.188c1.371-0.152,3.089-0.391,4.516-0.599
			c0.607-0.084,1.1-0.188,1.506-0.246c0.407-0.062,0.724-0.096,0.961-0.106c0.474-0.02,0.624,0.05,0.535,0.193
			c-0.089,0.141-0.42,0.348-0.91,0.592c-0.492,0.238-1.133,0.543-1.866,0.786c0.162-0.021-1.59,0.572-3.42,1.039
			c-0.455,0.132-0.917,0.225-1.351,0.331c-0.434,0.102-0.841,0.197-1.19,0.279c-0.7,0.145-1.17,0.243-1.17,0.243
			s-0.39,0.06-1.073,0.166c-0.681,0.092-1.654,0.224-2.822,0.383c-1.166,0.147-2.525,0.318-3.984,0.502
			c-0.367,0.043-0.739,0.087-1.118,0.132c-0.362,0.036-0.73,0.098-1.1,0.15c-0.741,0.111-1.497,0.251-2.253,0.402
			c-1.513,0.305-3.035,0.668-4.483,1.001c-1.446,0.335-2.819,0.635-4.018,0.854c-0.598,0.118-1.157,0.198-1.651,0.282
			c-0.501,0.066-0.935,0.13-1.308,0.171C3.505,16.052,3.058,16.095,3.021,16.092z"/>
	</g>
	<g>
		<path fill="#5AF0FF" d="M15.827,16.232c0.001-0.033,0.001-0.044,0.055-0.087c0.318-0.295,1.133-0.72,2.095-0.01
			c0.018,0.013,0.082,0.074,0.09,0.105c0,0.173-0.057,12.718-0.057,12.718s-0.237,2.045-0.584,3.477
			c-0.485,2.431-0.977,1.456-1.238-0.054c-0.049,0.158-0.408-3.607-0.408-3.607S15.826,16.407,15.827,16.232z"/>
		<path fill="#5AF0FF" d="M26.891,17.558c-0.021-0.106-0.029-0.144-0.006-0.293c0.105-1.02,0.608-2.564,2.036-0.494
			c0.026,0.038,0.13,0.222,0.161,0.319c0.434,1.893,0.983,3.811,1.564,5.716c0.583,1.909,1.201,3.823,1.771,5.771
			c0.569,1.947,1.09,3.93,1.463,5.958c0.375,2.029,0.599,4.104,0.596,6.195c-0.743-0.031-1.486-0.061-2.229-0.09
			c0.229-2.967,0.518-5.943,0.977-8.911c0.459-2.967,1.094-5.926,2.019-8.815c0,0,0.148-0.405,0.396-1.083
			c0.126-0.337,0.307-0.735,0.495-1.186c0.191-0.45,0.396-0.954,0.663-1.472c0.989-2.107,2.495-4.636,4.016-6.495
			c0.147-0.207,0.304-0.393,0.455-0.569c0.15-0.177,0.294-0.346,0.43-0.506c0.273-0.32,0.522-0.605,0.746-0.858
			c0.477-0.484,0.854-0.841,1.139-1.092c0.568-0.503,0.783-0.57,0.728-0.341c-0.053,0.232-0.367,0.769-0.848,1.488
			c-0.118,0.182-0.256,0.367-0.385,0.578c-0.13,0.208-0.267,0.428-0.409,0.658c-0.146,0.227-0.297,0.463-0.453,0.708
			c-0.079,0.121-0.159,0.245-0.24,0.37c-0.074,0.129-0.15,0.26-0.226,0.392c0.08-0.099-0.257,0.476-0.806,1.389
			c-0.25,0.471-0.545,1.03-0.866,1.636c-0.04,0.076-0.081,0.152-0.122,0.229c-0.037,0.079-0.074,0.159-0.111,0.239
			c-0.074,0.161-0.148,0.324-0.225,0.488c-0.151,0.329-0.306,0.664-0.461,1c-0.288,0.682-0.555,1.377-0.815,2.024
			c-0.228,0.662-0.439,1.281-0.622,1.813c-0.316,1.08-0.529,1.805-0.529,1.805c-0.819,2.673-1.388,5.431-1.806,8.222
			c-0.419,2.794-0.692,5.62-0.911,8.461l-2.237-0.09c0.003-1.931-0.203-3.862-0.558-5.782c-0.354-1.92-0.854-3.827-1.412-5.735
			c-0.558-1.906-1.174-3.814-1.764-5.746C27.915,21.524,27.354,19.58,26.891,17.558z"/>
		<path fill="#5AF0FF" d="M2.053,15.023c-0.066,0.004-0.09,0.005-0.18-0.043c-0.617-0.278-1.528-1.035-0.169-2.088
			c0.025-0.02,0.145-0.091,0.206-0.104c0.052,0.002,0.462-0.04,1.144-0.109c0.345-0.039,0.767-0.1,1.243-0.164
			c0.478-0.08,1.014-0.159,1.598-0.272c1.167-0.215,2.521-0.512,3.979-0.849c1.458-0.335,3.021-0.707,4.612-1.022
			c0.398-0.078,0.795-0.158,1.196-0.224c0.4-0.071,0.798-0.138,1.199-0.193c0.199-0.029,0.397-0.058,0.596-0.087
			c0.199-0.022,0.397-0.045,0.594-0.067c0.187-0.021,0.371-0.042,0.554-0.063c0.188-0.024,0.374-0.047,0.559-0.07
			c1.477-0.186,2.852-0.359,4.031-0.507c1.171-0.16,2.149-0.285,2.825-0.391c0.678-0.105,1.065-0.165,1.065-0.165
			s0.254-0.024,0.681-0.064c0.425-0.047,1.021-0.113,1.706-0.189c1.37-0.152,3.088-0.39,4.515-0.599
			c0.607-0.083,1.099-0.188,1.507-0.246c0.407-0.061,0.723-0.095,0.96-0.105c0.474-0.021,0.625,0.051,0.535,0.193
			c-0.09,0.14-0.42,0.348-0.911,0.592c-0.49,0.237-1.132,0.544-1.865,0.785c0.162-0.021-1.59,0.572-3.421,1.04
			c-0.455,0.131-0.917,0.224-1.351,0.331c-0.434,0.102-0.841,0.197-1.191,0.278c-0.699,0.145-1.17,0.242-1.17,0.242
			s-0.389,0.061-1.071,0.166c-0.681,0.093-1.654,0.226-2.823,0.383c-1.165,0.147-2.524,0.319-3.983,0.503
			c-0.367,0.043-0.739,0.087-1.118,0.131c-0.361,0.036-0.73,0.098-1.1,0.151c-0.741,0.112-1.496,0.251-2.252,0.402
			c-1.513,0.305-3.036,0.669-4.482,1.001c-1.446,0.335-2.82,0.635-4.02,0.855c-0.596,0.117-1.157,0.197-1.651,0.28
			C4.096,14.8,3.663,14.865,3.29,14.906C2.538,14.984,2.089,15.026,2.053,15.023z"/>
	</g>
	<g>
		<path fill="#002A96" d="M56.998,16.217c-0.109-0.029-0.148-0.041-0.274-0.132c-0.234-0.14-0.436-0.327-0.602-0.526
			c-0.167-0.198-0.292-0.41-0.316-0.61c-0.025-0.201,0.049-0.388,0.28-0.54c0.115-0.076,0.27-0.143,0.47-0.197
			c0.1-0.028,0.212-0.052,0.336-0.073c0.063-0.009,0.126-0.02,0.195-0.03c0.063-0.013,0.13-0.025,0.2-0.04
			c0.041-0.008,0.226-0.024,0.313-0.011l0.354,0.094l0.375,0.081c0.249,0.055,0.498,0.109,0.753,0.147
			c0.505,0.091,1.021,0.152,1.538,0.209c1.037,0.107,2.096,0.15,3.17,0.176c2.147,0.055,4.36,0.027,6.624,0.303l0.997,0.121
			l-0.018,0.991c-0.023,1.335-0.424,2.557-0.944,3.639c-0.531,1.081-1.185,2.049-1.882,2.961c-1.402,1.818-2.988,3.41-4.604,4.937
			c-1.621,1.522-3.292,2.966-4.946,4.4c-0.826,0.719-1.649,1.434-2.452,2.157c-0.8,0.725-1.584,1.46-2.285,2.218
			c-0.209-0.615-0.419-1.231-0.628-1.849l0.437,0.065c0,0,0.382,0.071,1.021,0.189c0.317,0.069,0.708,0.116,1.147,0.18
			c0.22,0.029,0.452,0.065,0.695,0.099c0.243,0.036,0.496,0.073,0.762,0.095c2.107,0.262,4.812,0.416,7.053,0.575
			c3.806,0.213,4.954,0.467,4.552,0.681c-0.402,0.214-2.333,0.41-4.696,0.557c0.233,0.015-2.287,0.158-5.042,0.154
			c-0.688,0.004-1.392-0.028-2.067-0.04c-0.677-0.021-1.327-0.078-1.908-0.11c-0.146-0.009-0.286-0.015-0.423-0.028
			c-0.136-0.017-0.268-0.03-0.393-0.047c-0.251-0.027-0.48-0.054-0.682-0.077c-0.404-0.045-0.697-0.079-0.839-0.096l-2.072-0.236
			l1.441-1.618c0.043-0.051,0.065-0.075,0.065-0.075c0.788-0.843,1.605-1.603,2.428-2.347c0.823-0.741,1.651-1.461,2.477-2.178
			c1.65-1.435,3.292-2.852,4.858-4.329c1.562-1.477,3.073-3.003,4.342-4.656c0.631-0.826,1.203-1.684,1.634-2.57
			c0.426-0.885,0.698-1.799,0.715-2.659l0.981,1.116c-2.058-0.253-4.203-0.232-6.402-0.285
			C61.534,16.954,59.271,16.82,56.998,16.217z"/>
		<path fill="#002A96" d="M72.264,25.125c-0.024-0.089-0.034-0.12-0.015-0.251c0.031-0.45,0.19-0.98,0.5-1.222
			c0.156-0.12,0.354-0.163,0.602-0.076c0.124,0.042,0.26,0.119,0.409,0.233c0.149,0.116,0.313,0.269,0.493,0.453
			c0.025,0.028,0.131,0.162,0.162,0.235c0.514,1.722,1.134,3.435,1.881,5.058c0.375,0.813,0.778,1.604,1.227,2.354
			c0.451,0.741,0.953,1.443,1.505,1.989l-1.741,0.229c0.565-0.966,0.96-2.094,1.227-3.256c0.263-1.163,0.402-2.37,0.408-3.565
			l2.161-0.384c1.156,3.122,2.305,6.198,3.981,8.922l-1.43-0.418c0.302-0.169,0.603-0.338,0.838-0.583
			c0.133-0.106,0.229-0.255,0.346-0.379l0.149-0.217l0.075-0.108c0.023-0.039,0.042-0.08,0.063-0.121
			c0.353-0.629,0.574-1.396,0.68-2.211c0,0,0.014-0.076,0.039-0.217c0.029-0.139,0.05-0.352,0.085-0.615
			c0.059-0.529,0.108-1.293,0.098-2.19c-0.007-0.894-0.068-1.92-0.162-2.963c-0.094-1.042-0.216-2.099-0.319-3.063
			c-0.204-1.627-0.29-2.709-0.266-3.338c0.023-0.629,0.124-0.799,0.251-0.644c0.131,0.157,0.294,0.631,0.514,1.312
			c0.215,0.681,0.478,1.568,0.74,2.558c-0.009-0.106,0.134,0.431,0.338,1.309c0.204,0.878,0.468,2.099,0.659,3.362
			c0.201,1.263,0.298,2.577,0.283,3.592c-0.002,0.255-0.018,0.49-0.025,0.698c-0.014,0.209-0.034,0.394-0.048,0.545
			c-0.011,0.15-0.032,0.271-0.043,0.355c-0.013,0.081-0.019,0.122-0.019,0.122c-0.176,0.916-0.458,1.862-1.008,2.734
			c-0.542,0.872-1.366,1.626-2.304,2.073l-0.912,0.436l-0.527-0.861c-1.826-2.972-3.015-6.191-4.174-9.312l2.171-0.387
			c-0.007,1.366-0.161,2.719-0.463,4.054c-0.308,1.332-0.754,2.653-1.484,3.903l-0.727,1.244l-1.018-1.015
			c-0.768-0.764-1.341-1.593-1.856-2.433c-0.507-0.842-0.945-1.705-1.347-2.576C73.458,28.745,72.813,26.96,72.264,25.125z"/>
		<path fill="#002A96" d="M91.752,18.081c0.001-0.027,0.001-0.038,0.055-0.073c0.317-0.25,1.133-0.609,2.095-0.007
			c0.017,0.011,0.082,0.063,0.091,0.089c-0.001,0.147-0.051,10.779-0.051,10.779s-0.236,1.733-0.582,2.946
			c-0.485,2.06-0.977,1.235-1.238-0.044c-0.049,0.133-0.411-3.058-0.411-3.058S91.752,18.229,91.752,18.081z"/>
		<path fill="#002A96" d="M100.129,33.271c-0.002,0.125-0.003,0.171-0.061,0.334c-0.337,1.128-1.181,2.748-2.096,0.037
			c-0.018-0.049-0.076-0.284-0.083-0.403l0.339-18.093l2.156-0.404c1.636,4.186,3.207,8.358,5.044,12.394
			c0.92,2.014,1.901,3.992,2.996,5.89c1.097,1.896,2.307,3.718,3.711,5.329c-0.647,0.199-1.295,0.399-1.94,0.597l0.176-1.775
			l0.088-0.888c0.023-0.296,0.036-0.597,0.056-0.894c0,0,0.043-0.48,0.115-1.283c0.019-0.203,0.039-0.423,0.061-0.663
			c0.016-0.24,0.03-0.498,0.047-0.772c0.034-0.549,0.073-1.16,0.115-1.81c0.132-2.619,0.224-5.935,0.341-8.68
			c0.041-1.166,0.085-2.126,0.135-2.904c0.057-0.779,0.112-1.375,0.17-1.81c0.111-0.871,0.229-1.097,0.337-0.853
			c0.22,0.489,0.409,2.85,0.599,5.727c0.013-0.3,0.209,3.138,0.309,6.681c0.021,0.888,0.05,1.777,0.043,2.619
			c0,0.421,0,0.828,0,1.215c0.001,0.386,0.003,0.752-0.011,1.093c-0.046,1.357-0.074,2.269-0.074,2.269
			c-0.085,1.002-0.193,2.003-0.29,3.004l-0.248,2.563l-1.706-1.961c-1.54-1.771-2.817-3.702-3.964-5.684
			c-1.145-1.982-2.156-4.022-3.097-6.083c-1.877-4.123-3.466-8.342-5.093-12.501l2.164-0.405L100.129,33.271z"/>
		<path fill="#002A96" d="M132.816,16.707c0.129,0.042,0.181,0.061,0.334,0.172c0.135,0.089,0.271,0.189,0.4,0.294
			c0.066,0.052,0.126,0.105,0.168,0.163c0.046,0.055,0.091,0.112,0.132,0.17c0.165,0.229,0.282,0.463,0.292,0.669
			c0.01,0.207-0.088,0.383-0.354,0.497c-0.132,0.057-0.307,0.098-0.531,0.119c-0.11,0.013-0.24,0.01-0.369,0.021
			c-0.125,0.021-0.255,0.041-0.392,0.057c-0.041,0.005-0.218,0.009-0.304-0.01c-0.714-0.199-1.462-0.274-2.216-0.236
			c-0.188,0.018-0.379,0.013-0.567,0.048l-0.566,0.09l-0.563,0.138c-0.095,0.021-0.188,0.048-0.279,0.082l-0.279,0.093
			c-1.483,0.501-2.876,1.374-4.105,2.431c-1.229,1.063-2.306,2.322-3.158,3.705c-0.856,1.38-1.481,2.898-1.74,4.434
			c-0.12,0.766-0.136,1.532-0.028,2.264l0.039,0.276c0.017,0.089,0.045,0.177,0.065,0.264l0.067,0.267l0.017,0.067
			c0.001,0.006,0.008,0.031,0.005,0.021l0.014,0.041l0.05,0.155l0.051,0.152l0.045,0.12c0.028,0.078,0.061,0.158,0.098,0.242
			c0.036,0.084,0.071,0.166,0.112,0.241c0.037,0.081,0.078,0.155,0.122,0.228c0.167,0.293,0.361,0.542,0.57,0.713
			c0.103,0.089,0.211,0.159,0.322,0.215c0.112,0.058,0.229,0.095,0.355,0.124c0.495,0.111,1.168-0.027,1.826-0.343
			c0.662-0.311,1.311-0.771,1.915-1.287c0.604-0.52,1.168-1.11,1.684-1.735c0.513-0.628,0.979-1.297,1.364-1.989
			c0.191-0.348,0.363-0.699,0.499-1.047c0.138-0.349,0.24-0.697,0.285-1.008l2.203,0.309c-0.105,0.876-0.221,1.747-0.316,2.623
			c0,0-0.058,0.439-0.151,1.175c-0.043,0.367-0.111,0.807-0.164,1.308c-0.053,0.5-0.114,1.056-0.178,1.652
			c-0.247,2.386-0.477,5.412-0.676,7.914c-0.279,4.248-0.512,5.529-0.73,5.083c-0.214-0.447-0.4-2.619-0.504-5.264
			c-0.022,0.273-0.111-2.889-0.058-6.141c0.007-0.405,0.014-0.813,0.02-1.213c0.017-0.402,0.031-0.802,0.045-1.185
			c0.016-0.386,0.027-0.758,0.043-1.112c0.014-0.354,0.041-0.688,0.06-0.997c0.039-0.621,0.072-1.139,0.096-1.5
			c0.009-0.183,0.026-0.325,0.034-0.423c0.01-0.097,0.015-0.149,0.015-0.149l0.254-2.078l2.219,0.312
			c-0.082,0.554-0.235,1.046-0.417,1.508c-0.182,0.464-0.396,0.897-0.626,1.313c-0.462,0.835-0.999,1.6-1.588,2.323
			c-0.592,0.721-1.236,1.397-1.955,2.014c-0.72,0.615-1.501,1.183-2.42,1.617c-0.459,0.216-0.955,0.397-1.5,0.502
			c-0.541,0.106-1.142,0.135-1.747,0.002c-0.603-0.124-1.191-0.421-1.645-0.81c-0.464-0.388-0.806-0.848-1.07-1.31
			c-0.069-0.113-0.131-0.232-0.187-0.349c-0.061-0.117-0.113-0.233-0.163-0.352c-0.052-0.114-0.1-0.236-0.146-0.363l-0.069-0.188
			l-0.054-0.157l-0.048-0.154l-0.015-0.04c-0.012-0.036-0.011-0.036-0.015-0.056l-0.024-0.093l-0.094-0.37
			c-0.029-0.121-0.067-0.245-0.089-0.368l-0.057-0.371c-0.146-0.995-0.119-1.992,0.032-2.947c0.321-1.907,1.065-3.669,2.042-5.253
			c0.978-1.584,2.193-3.007,3.601-4.226c1.412-1.21,3.022-2.236,4.846-2.855C128.804,16.308,130.879,16.163,132.816,16.707z"/>
		<path fill="#002A96" d="M150.611,12.972c0.065-0.009,0.088-0.014,0.18,0.026c0.61,0.226,1.635,0.876,0.36,2.064
			c-0.022,0.021-0.138,0.104-0.197,0.123c-0.045,0.006-0.474,0.072-1.19,0.181c-0.715,0.109-1.71,0.259-2.874,0.477
			c-1.159,0.222-2.506,0.5-3.835,0.947c-0.66,0.222-1.321,0.494-1.865,0.832c-0.273,0.166-0.507,0.354-0.66,0.533
			c-0.034,0.044-0.063,0.087-0.099,0.128c-0.042,0.066,0.051-0.086,0.04-0.067l-0.005,0.008l-0.01,0.017l-0.017,0.032l-0.037,0.065
			l-0.071,0.13l-0.037,0.065c-0.012,0.021-0.009,0.028-0.015,0.042l-0.021,0.071c-0.016,0.053-0.037,0.075-0.06,0.167
			c-0.185,0.6-0.28,1.344-0.332,2.075c-0.052,0.737-0.064,1.483-0.063,2.211c0.002,0.73,0.021,1.438,0.029,2.136
			c0.001,0.172,0.002,0.34,0.003,0.507c0.002,0.16,0,0.336,0.006,0.479c0.007,0.293,0.022,0.584,0.04,0.866
			c0.078,1.117,0.252,2.018,0.41,2.626c0.081,0.306,0.151,0.541,0.208,0.698c0.05,0.161,0.083,0.242,0.083,0.242
			s0.017,0.054,0.046,0.156s0.078,0.247,0.144,0.428c0.131,0.361,0.335,0.859,0.649,1.379c0.309,0.525,0.74,1.065,1.272,1.521
			c0.527,0.464,1.167,0.826,1.787,1.097c0.132,0.058,0.264,0.099,0.389,0.144c0.124,0.047,0.243,0.088,0.361,0.121
			c0.116,0.034,0.228,0.068,0.332,0.101c0.108,0.028,0.21,0.056,0.306,0.078c0.391,0.101,0.691,0.177,0.916,0.234
			c0.45,0.119,0.577,0.229,0.449,0.341c-0.127,0.103-0.51,0.224-1.072,0.274c-0.563,0.05-1.309,0.041-2.122-0.135
			c0.081,0.033-0.368-0.037-1.063-0.306c-0.348-0.13-0.747-0.329-1.164-0.578c-0.414-0.255-0.831-0.58-1.215-0.941
			c-0.772-0.729-1.354-1.631-1.714-2.327c-0.086-0.178-0.163-0.34-0.233-0.484c-0.063-0.146-0.117-0.273-0.163-0.378
			c-0.087-0.213-0.13-0.333-0.13-0.333s-0.037-0.104-0.094-0.294c-0.055-0.192-0.136-0.474-0.22-0.834
			c-0.171-0.72-0.344-1.756-0.409-2.99c-0.039-0.626-0.031-1.304-0.039-1.937c-0.009-0.662-0.027-1.38-0.026-2.13
			c0.002-0.751,0.019-1.535,0.084-2.351c0.032-0.406,0.08-0.824,0.151-1.251c0.028-0.211,0.086-0.435,0.131-0.651
			c0.024-0.11,0.061-0.226,0.093-0.338c0.036-0.118,0.055-0.211,0.116-0.36c0.055-0.137,0.11-0.273,0.171-0.408l0.021-0.05
			l0.02-0.034l0.036-0.064l0.072-0.128l0.035-0.064l0.017-0.032l0.004-0.007c-0.037,0.062,0.059-0.095,0.053-0.083l0.016-0.021
			l0.128-0.171c0.085-0.119,0.178-0.215,0.271-0.312c0.373-0.384,0.77-0.66,1.159-0.895c0.783-0.458,1.557-0.754,2.302-1.004
			c1.493-0.49,2.886-0.773,4.083-1.001c1.197-0.223,2.199-0.374,2.908-0.483C150.145,13.042,150.569,12.978,150.611,12.972z"/>
		<path fill="#002A96" d="M156.778,37.079c-0.001,0.112,0,0.151-0.054,0.297c-0.313,1.008-1.119,2.463-2.096,0.066
			c-0.017-0.042-0.081-0.251-0.093-0.356l-0.061-9.152c0.007-1.532-0.007-3.064,0.016-4.598l0.133-4.614l0.101-3.417l1.937,2.843
			c2.074,3.041,3.613,6.326,5.167,9.507c1.552,3.179,3.139,6.302,5.281,8.952c-0.638,0.112-1.276,0.221-1.915,0.334
			c0.359-1.075,0.639-2.188,0.849-3.322c0,0,0.006-0.025,0.018-0.074c0.009-0.049,0.021-0.12,0.04-0.217
			c0.038-0.188,0.089-0.464,0.156-0.81c0.068-0.346,0.121-0.767,0.197-1.238c0.069-0.477,0.129-1.007,0.193-1.579
			c0.114-1.139,0.198-2.441,0.245-3.763c0.039-1.319,0.045-2.657,0.033-3.87c-0.049-2.055-0.113-3.398-0.097-4.179
			c0.013-0.781,0.097-0.999,0.235-0.798c0.27,0.398,0.771,2.468,1.106,5.04c-0.01-0.271,0.402,2.804,0.418,6
			c0.018,1.598-0.063,3.221-0.188,4.446c-0.075,0.612-0.133,1.125-0.188,1.482c-0.062,0.359-0.097,0.565-0.097,0.565
			c-0.192,1.026-0.485,2.042-0.814,3.049l-0.633,1.94l-1.295-1.603c-1.169-1.445-2.168-2.997-3.067-4.578
			c-0.9-1.582-1.704-3.197-2.485-4.797c-1.563-3.205-3.064-6.383-5.007-9.227l2.044-0.578l-0.13,4.538
			c-0.021,1.516-0.009,3.038-0.014,4.556L156.778,37.079z"/>
		<path fill="#002A96" d="M141.023,27.501c-0.02,0-0.026,0-0.053-0.051c-0.188-0.308-0.483-1.103-0.146-2.091
			c0.006-0.018,0.038-0.084,0.055-0.094c0.024-0.001,0.487-0.031,1.168-0.071c0.341-0.021,0.731-0.05,1.157-0.069
			c0.432-0.011,0.891-0.025,1.348-0.038c0.456-0.011,0.916-0.03,1.338-0.033c0.421-0.003,0.814-0.005,1.151-0.007
			c0.675-0.006,1.121-0.009,1.121-0.009s0.292,0.056,0.686,0.158c0.392,0.101,0.886,0.245,1.292,0.416
			c1.381,0.48,0.826,0.974-0.028,1.238c0.044,0.025-0.468,0.13-0.989,0.227c-0.523,0.098-1.054,0.195-1.054,0.195
			s-0.436,0.004-1.091,0.01c-0.327,0.002-0.711,0.005-1.121,0.007c-0.405,0.011-0.839,0.022-1.271,0.033
			c-0.432,0.015-0.864,0.028-1.273,0.039c-0.413,0.025-0.803,0.047-1.138,0.068C141.504,27.471,141.048,27.499,141.023,27.501z"/>
		<path fill="#002A96" d="M93.207,3.123c0.024-0.007,0.031-0.01,0.08,0.03c0.315,0.223,0.891,0.879,0.727,1.964
			c-0.004,0.02-0.025,0.095-0.043,0.112c-0.007,0.003-0.048,0.018-0.12,0.043c-0.067,0.025-0.182,0.062-0.273,0.106
			c-0.103,0.044-0.223,0.098-0.361,0.156c-0.137,0.073-0.295,0.152-0.461,0.242c-0.319,0.188-0.669,0.431-0.929,0.711l-0.096,0.105
			c-0.033,0.036-0.05,0.073-0.077,0.107c-0.024,0.036-0.056,0.071-0.075,0.106c-0.016,0.035-0.034,0.068-0.053,0.102
			c-0.06,0.134-0.099,0.254-0.088,0.337c0.005,0.085,0.023,0.149,0.067,0.224c0.047,0.073,0.14,0.147,0.25,0.218
			c0.24,0.133,0.583,0.203,0.894,0.2c0.153,0.011,0.307-0.019,0.438-0.024c0.136-0.025,0.254-0.046,0.353-0.064
			c0.197-0.054,0.31-0.085,0.31-0.085s0.019-0.001,0.055-0.004c0.036-0.006,0.089-0.014,0.155-0.025
			c0.067-0.009,0.148-0.021,0.24-0.033c0.092-0.017,0.194-0.042,0.306-0.064c0.113-0.021,0.233-0.047,0.357-0.084
			c0.125-0.035,0.257-0.064,0.388-0.104c0.26-0.085,0.538-0.159,0.788-0.246c0.421-0.15,0.708-0.255,0.915-0.268
			c0.204-0.018,0.315,0.038,0.35,0.15c0.035,0.112-0.007,0.28-0.105,0.481c-0.049,0.101-0.113,0.21-0.189,0.323
			c-0.08,0.108-0.172,0.222-0.274,0.338c0.064-0.02-0.439,0.502-1.078,0.939c-0.152,0.117-0.325,0.212-0.482,0.311
			c-0.157,0.101-0.315,0.179-0.452,0.248c-0.27,0.143-0.47,0.214-0.47,0.214s-0.041,0.011-0.119,0.033
			c-0.079,0.02-0.189,0.057-0.343,0.081c-0.154,0.023-0.331,0.072-0.552,0.086c-0.11,0.01-0.226,0.02-0.349,0.031
			c-0.126,0.002-0.26,0-0.4-0.001c-0.279-0.011-0.589-0.043-0.922-0.127c-0.164-0.031-0.338-0.105-0.512-0.165
			c-0.086-0.03-0.174-0.082-0.263-0.124c-0.087-0.047-0.177-0.083-0.263-0.146c-0.35-0.216-0.692-0.54-0.947-0.952
			c-0.263-0.411-0.391-0.935-0.378-1.421c-0.005-0.25,0.049-0.476,0.099-0.704c0.071-0.209,0.14-0.431,0.243-0.607
			c0.049-0.092,0.096-0.187,0.149-0.272c0.057-0.081,0.112-0.16,0.167-0.24c0.109-0.166,0.236-0.29,0.355-0.426
			c0.49-0.514,1.002-0.846,1.442-1.109c0.223-0.12,0.427-0.226,0.613-0.318c0.195-0.084,0.365-0.158,0.507-0.22
			c0.149-0.067,0.238-0.093,0.31-0.121C93.159,3.14,93.2,3.125,93.207,3.123z"/>
	</g>
	<g>
		<path fill="#5AF0FF" d="M56.073,14.603c-0.108-0.03-0.148-0.041-0.274-0.131c-0.233-0.141-0.435-0.327-0.602-0.527
			c-0.167-0.198-0.292-0.41-0.317-0.61s0.049-0.388,0.28-0.54c0.116-0.076,0.27-0.143,0.471-0.197
			c0.1-0.027,0.212-0.052,0.336-0.072c0.062-0.01,0.127-0.02,0.194-0.03c0.065-0.013,0.131-0.026,0.201-0.04
			c0.042-0.008,0.226-0.024,0.313-0.011l0.354,0.094l0.374,0.08c0.249,0.055,0.499,0.109,0.754,0.146
			c0.505,0.091,1.021,0.153,1.539,0.21c1.037,0.108,2.096,0.15,3.17,0.177c2.146,0.055,4.36,0.027,6.624,0.303l0.997,0.122
			l-0.019,0.991c-0.023,1.335-0.424,2.557-0.945,3.638c-0.53,1.081-1.185,2.05-1.882,2.961c-1.401,1.818-2.986,3.409-4.604,4.937
			c-1.62,1.523-3.292,2.967-4.945,4.4c-0.827,0.72-1.65,1.435-2.453,2.16c-0.799,0.724-1.584,1.458-2.285,2.217
			c-0.209-0.616-0.418-1.233-0.629-1.85l0.438,0.065c0,0,0.381,0.072,1.02,0.189c0.318,0.068,0.709,0.116,1.148,0.179
			c0.219,0.031,0.452,0.065,0.695,0.1c0.243,0.037,0.496,0.07,0.761,0.095c2.108,0.261,4.813,0.415,7.054,0.575
			c3.807,0.211,4.953,0.467,4.551,0.68c-0.4,0.215-2.332,0.412-4.695,0.558c0.233,0.016-2.287,0.157-5.042,0.154
			c-0.688,0.002-1.393-0.028-2.068-0.04c-0.675-0.021-1.327-0.077-1.908-0.11c-0.146-0.01-0.286-0.016-0.423-0.029
			c-0.136-0.016-0.267-0.029-0.393-0.045c-0.251-0.029-0.48-0.053-0.683-0.075c-0.404-0.049-0.697-0.082-0.839-0.098l-2.073-0.238
			l1.442-1.618c0.043-0.048,0.065-0.074,0.065-0.074c0.789-0.844,1.605-1.604,2.427-2.345c0.822-0.743,1.651-1.462,2.477-2.181
			c1.65-1.433,3.292-2.852,4.859-4.329c1.562-1.476,3.072-3.003,4.341-4.655c0.631-0.826,1.203-1.683,1.635-2.57
			c0.426-0.884,0.697-1.798,0.714-2.659l0.981,1.116c-2.057-0.252-4.204-0.232-6.401-0.286
			C60.609,15.339,58.347,15.205,56.073,14.603z"/>
		<path fill="#5AF0FF" d="M71.34,23.512c-0.025-0.089-0.034-0.122-0.016-0.252c0.031-0.451,0.19-0.98,0.5-1.223
			c0.156-0.119,0.353-0.163,0.601-0.075c0.124,0.043,0.259,0.118,0.41,0.233c0.149,0.116,0.313,0.27,0.492,0.453
			c0.027,0.027,0.132,0.161,0.162,0.235c0.514,1.72,1.134,3.435,1.882,5.058c0.374,0.813,0.777,1.605,1.227,2.354
			c0.451,0.741,0.952,1.443,1.504,1.989l-1.742,0.229c0.566-0.966,0.961-2.096,1.227-3.256c0.264-1.164,0.402-2.371,0.409-3.567
			l2.161-0.383c1.157,3.121,2.304,6.198,3.981,8.923l-1.431-0.422c0.302-0.167,0.603-0.335,0.838-0.58
			c0.133-0.106,0.229-0.255,0.346-0.379l0.148-0.218l0.075-0.108c0.023-0.037,0.042-0.08,0.064-0.119
			c0.354-0.63,0.574-1.396,0.681-2.212c0,0,0.014-0.076,0.037-0.218c0.031-0.14,0.051-0.351,0.086-0.614
			c0.059-0.529,0.109-1.293,0.098-2.188c-0.007-0.896-0.069-1.922-0.162-2.965c-0.094-1.042-0.216-2.101-0.319-3.063
			c-0.204-1.628-0.289-2.709-0.266-3.338c0.024-0.629,0.124-0.8,0.251-0.643c0.131,0.156,0.294,0.631,0.514,1.312
			c0.215,0.681,0.478,1.569,0.74,2.557c-0.009-0.106,0.134,0.432,0.338,1.309c0.204,0.879,0.469,2.099,0.659,3.364
			c0.2,1.261,0.298,2.578,0.284,3.591c-0.003,0.256-0.018,0.489-0.026,0.699c-0.014,0.208-0.034,0.393-0.048,0.544
			c-0.011,0.15-0.033,0.271-0.045,0.353c-0.011,0.084-0.018,0.125-0.018,0.125c-0.175,0.916-0.458,1.863-1.008,2.734
			c-0.542,0.871-1.366,1.625-2.304,2.073l-0.913,0.435l-0.526-0.858c-1.826-2.974-3.014-6.195-4.173-9.315l2.17-0.384
			c-0.007,1.364-0.16,2.717-0.463,4.053c-0.307,1.332-0.754,2.653-1.484,3.903l-0.726,1.243l-1.019-1.014
			c-0.767-0.764-1.34-1.593-1.855-2.432c-0.507-0.843-0.945-1.705-1.348-2.578C72.534,27.128,71.888,25.344,71.34,23.512z"/>
		<path fill="#5AF0FF" d="M90.828,16.467c0.001-0.027,0.001-0.038,0.055-0.073c0.318-0.25,1.132-0.609,2.095-0.008
			c0.017,0.011,0.082,0.063,0.09,0.089c-0.001,0.147-0.05,10.781-0.05,10.781s-0.237,1.732-0.582,2.945
			c-0.484,2.059-0.977,1.232-1.237-0.047c-0.049,0.136-0.411-3.056-0.411-3.056S90.828,16.615,90.828,16.467z"/>
		<path fill="#5AF0FF" d="M99.206,31.657c-0.003,0.125-0.004,0.171-0.061,0.333c-0.338,1.129-1.181,2.749-2.096,0.038
			c-0.016-0.05-0.077-0.285-0.083-0.403l0.337-18.093l2.157-0.405c1.636,4.185,3.206,8.358,5.043,12.393
			c0.92,2.014,1.902,3.993,2.997,5.892c1.096,1.896,2.305,3.717,3.71,5.327c-0.648,0.2-1.294,0.4-1.941,0.599l0.177-1.776
			l0.089-0.89c0.022-0.296,0.037-0.596,0.055-0.892c0,0,0.043-0.48,0.115-1.285c0.018-0.201,0.04-0.423,0.061-0.663
			c0.015-0.239,0.03-0.497,0.048-0.771c0.034-0.548,0.072-1.159,0.114-1.812c0.132-2.616,0.225-5.934,0.342-8.678
			c0.04-1.165,0.084-2.125,0.135-2.904c0.055-0.78,0.112-1.375,0.169-1.811c0.112-0.87,0.229-1.095,0.336-0.852
			c0.222,0.489,0.411,2.85,0.6,5.726c0.012-0.3,0.21,3.138,0.309,6.681c0.022,0.889,0.051,1.776,0.043,2.618
			c0,0.421,0.001,0.829,0.001,1.214c0.001,0.39,0.003,0.755-0.013,1.093c-0.043,1.36-0.072,2.271-0.072,2.271
			c-0.086,1.002-0.193,2.003-0.291,3.004l-0.248,2.563l-1.705-1.961c-1.542-1.771-2.817-3.704-3.965-5.685
			c-1.144-1.981-2.154-4.022-3.097-6.082c-1.877-4.123-3.465-8.342-5.092-12.501l2.163-0.405L99.206,31.657z"/>
		<path fill="#5AF0FF" d="M131.892,15.092c0.131,0.042,0.181,0.061,0.334,0.171c0.136,0.089,0.272,0.19,0.401,0.294
			c0.064,0.052,0.126,0.105,0.168,0.163c0.045,0.056,0.09,0.113,0.131,0.17c0.165,0.229,0.281,0.464,0.293,0.67
			c0.01,0.206-0.089,0.383-0.354,0.497c-0.132,0.057-0.306,0.098-0.532,0.119c-0.109,0.013-0.239,0.01-0.369,0.022
			c-0.124,0.021-0.254,0.04-0.392,0.057c-0.041,0.005-0.218,0.008-0.302-0.01c-0.716-0.2-1.463-0.275-2.217-0.237
			c-0.188,0.018-0.378,0.014-0.568,0.048l-0.565,0.09l-0.563,0.14c-0.095,0.02-0.188,0.048-0.279,0.081l-0.278,0.092
			c-1.484,0.502-2.877,1.375-4.106,2.431c-1.229,1.063-2.306,2.322-3.159,3.706c-0.854,1.38-1.478,2.896-1.737,4.434
			c-0.122,0.765-0.138,1.531-0.029,2.263l0.039,0.274c0.016,0.091,0.044,0.177,0.065,0.266l0.067,0.267l0.016,0.064
			c0.001,0.008,0.009,0.033,0.005,0.023l0.014,0.041l0.051,0.153l0.051,0.154l0.044,0.118c0.029,0.08,0.061,0.16,0.098,0.243
			c0.036,0.084,0.071,0.166,0.113,0.243c0.037,0.079,0.078,0.154,0.122,0.227c0.166,0.294,0.36,0.542,0.569,0.713
			c0.104,0.09,0.211,0.16,0.324,0.213c0.11,0.06,0.228,0.098,0.354,0.124c0.496,0.112,1.167-0.025,1.826-0.342
			c0.662-0.309,1.311-0.771,1.913-1.287c0.606-0.52,1.17-1.107,1.685-1.735c0.513-0.628,0.981-1.298,1.364-1.989
			c0.19-0.346,0.363-0.698,0.499-1.046c0.139-0.35,0.241-0.697,0.286-1.008l2.202,0.309c-0.104,0.874-0.221,1.747-0.316,2.623
			c0,0-0.056,0.439-0.151,1.175c-0.043,0.367-0.11,0.807-0.162,1.307c-0.055,0.502-0.115,1.058-0.18,1.652
			c-0.245,2.386-0.476,5.411-0.675,7.915c-0.279,4.249-0.512,5.529-0.732,5.082c-0.212-0.447-0.399-2.617-0.503-5.265
			c-0.022,0.275-0.11-2.889-0.057-6.138c0.007-0.406,0.014-0.813,0.021-1.215c0.015-0.403,0.029-0.799,0.045-1.185
			c0.014-0.384,0.029-0.758,0.041-1.111c0.015-0.354,0.041-0.689,0.06-1c0.04-0.618,0.072-1.136,0.097-1.497
			c0.01-0.183,0.025-0.326,0.033-0.424c0.01-0.097,0.015-0.148,0.015-0.148l0.254-2.078l2.219,0.311
			c-0.082,0.556-0.235,1.047-0.416,1.51c-0.182,0.463-0.396,0.895-0.625,1.313c-0.463,0.831-1.001,1.599-1.59,2.322
			c-0.592,0.719-1.237,1.397-1.954,2.014c-0.721,0.614-1.501,1.183-2.422,1.614c-0.458,0.218-0.954,0.398-1.498,0.505
			c-0.541,0.104-1.142,0.133-1.747,0.002c-0.603-0.124-1.191-0.421-1.645-0.811c-0.464-0.387-0.804-0.846-1.07-1.309
			c-0.068-0.114-0.132-0.232-0.188-0.349c-0.06-0.117-0.113-0.234-0.162-0.352c-0.052-0.116-0.101-0.238-0.146-0.363l-0.069-0.187
			l-0.051-0.159l-0.051-0.155l-0.013-0.038c-0.012-0.036-0.01-0.036-0.018-0.058l-0.023-0.091l-0.094-0.37
			c-0.029-0.122-0.067-0.244-0.089-0.369l-0.057-0.373c-0.145-0.994-0.118-1.988,0.032-2.945c0.322-1.909,1.065-3.669,2.042-5.252
			c0.979-1.585,2.193-3.008,3.602-4.227c1.41-1.21,3.022-2.235,4.846-2.855C127.878,14.693,129.953,14.548,131.892,15.092z"/>
		<path fill="#5AF0FF" d="M149.687,11.356c0.065-0.009,0.087-0.012,0.18,0.028c0.609,0.225,1.635,0.875,0.361,2.064
			c-0.023,0.021-0.138,0.104-0.199,0.123c-0.043,0.006-0.473,0.071-1.189,0.18c-0.714,0.109-1.709,0.259-2.874,0.477
			c-1.159,0.222-2.506,0.5-3.834,0.947c-0.661,0.222-1.323,0.495-1.866,0.833c-0.271,0.166-0.507,0.353-0.659,0.532
			c-0.035,0.044-0.064,0.087-0.1,0.128c-0.042,0.066,0.053-0.085,0.04-0.066l-0.005,0.008l-0.009,0.016l-0.018,0.032l-0.036,0.065
			l-0.072,0.13l-0.038,0.065c-0.011,0.021-0.008,0.027-0.014,0.041l-0.021,0.072c-0.016,0.053-0.036,0.075-0.06,0.166
			c-0.185,0.601-0.279,1.344-0.331,2.075c-0.053,0.737-0.064,1.483-0.063,2.211c0.002,0.73,0.021,1.438,0.028,2.137
			c0.001,0.171,0.001,0.34,0.002,0.506c0.003,0.162,0,0.337,0.007,0.479c0.007,0.293,0.022,0.585,0.041,0.865
			c0.077,1.118,0.252,2.019,0.409,2.63c0.082,0.303,0.152,0.539,0.207,0.697c0.05,0.159,0.084,0.239,0.084,0.239
			s0.017,0.056,0.047,0.158c0.029,0.103,0.078,0.247,0.144,0.428c0.129,0.36,0.335,0.857,0.649,1.379
			c0.308,0.524,0.74,1.064,1.271,1.521c0.529,0.465,1.167,0.827,1.787,1.095c0.133,0.063,0.264,0.102,0.389,0.147
			c0.124,0.045,0.244,0.088,0.361,0.12c0.117,0.033,0.229,0.068,0.334,0.1c0.106,0.028,0.207,0.055,0.304,0.079
			c0.392,0.099,0.691,0.177,0.916,0.234c0.449,0.119,0.578,0.231,0.449,0.342c-0.127,0.102-0.511,0.223-1.073,0.274
			c-0.562,0.05-1.307,0.04-2.121-0.135c0.081,0.032-0.368-0.038-1.062-0.307c-0.348-0.132-0.748-0.329-1.164-0.579
			c-0.415-0.255-0.831-0.578-1.216-0.942c-0.771-0.727-1.353-1.629-1.714-2.328c-0.085-0.175-0.164-0.337-0.232-0.482
			c-0.063-0.146-0.118-0.273-0.164-0.377c-0.086-0.213-0.13-0.334-0.13-0.334s-0.036-0.101-0.093-0.293
			c-0.056-0.192-0.137-0.472-0.221-0.833c-0.17-0.722-0.343-1.756-0.41-2.992c-0.036-0.625-0.03-1.305-0.037-1.936
			c-0.011-0.663-0.028-1.381-0.026-2.131c0.001-0.751,0.018-1.535,0.084-2.35c0.031-0.408,0.079-0.824,0.15-1.252
			c0.029-0.21,0.086-0.435,0.131-0.651c0.025-0.11,0.063-0.226,0.094-0.338c0.036-0.119,0.054-0.211,0.117-0.36
			c0.053-0.138,0.109-0.273,0.169-0.407l0.022-0.05l0.019-0.034l0.036-0.064l0.071-0.129l0.035-0.063l0.019-0.032l0.004-0.008
			c-0.039,0.062,0.058-0.094,0.051-0.082l0.015-0.021l0.129-0.171c0.086-0.119,0.178-0.215,0.271-0.313
			c0.372-0.384,0.769-0.66,1.16-0.895c0.781-0.458,1.556-0.754,2.303-1.004c1.491-0.489,2.883-0.772,4.081-1.001
			c1.197-0.223,2.198-0.374,2.908-0.483C149.221,11.428,149.644,11.364,149.687,11.356z"/>
		<path fill="#5AF0FF" d="M155.853,35.464c0,0.111,0,0.151-0.053,0.298c-0.313,1.009-1.12,2.463-2.094,0.066
			c-0.02-0.044-0.084-0.251-0.093-0.356l-0.063-9.152c0.006-1.533-0.008-3.064,0.016-4.599l0.135-4.613l0.098-3.418l1.938,2.843
			c2.075,3.041,3.613,6.325,5.168,9.507c1.552,3.18,3.138,6.301,5.28,8.951c-0.639,0.11-1.277,0.223-1.915,0.336
			c0.358-1.076,0.639-2.188,0.849-3.323c0,0,0.007-0.026,0.018-0.074c0.009-0.049,0.023-0.121,0.041-0.217
			c0.036-0.19,0.089-0.465,0.155-0.81c0.067-0.346,0.122-0.767,0.197-1.24c0.069-0.475,0.128-1.005,0.193-1.576
			c0.113-1.143,0.199-2.444,0.246-3.764c0.037-1.32,0.043-2.658,0.032-3.87c-0.049-2.057-0.112-3.399-0.097-4.179
			c0.013-0.78,0.097-0.998,0.236-0.799c0.27,0.399,0.771,2.469,1.107,5.041c-0.01-0.271,0.4,2.802,0.417,6
			c0.018,1.599-0.065,3.222-0.188,4.445c-0.074,0.613-0.132,1.125-0.188,1.482c-0.061,0.358-0.096,0.564-0.096,0.564
			c-0.194,1.026-0.486,2.045-0.815,3.052l-0.633,1.939l-1.296-1.604c-1.168-1.446-2.167-2.998-3.066-4.577
			c-0.899-1.583-1.704-3.196-2.485-4.797c-1.563-3.205-3.063-6.383-5.006-9.227l2.044-0.577l-0.131,4.537
			c-0.022,1.516-0.008,3.039-0.015,4.556L155.853,35.464z"/>
		<path fill="#5AF0FF" d="M92.87,1.509c0.024-0.006,0.031-0.01,0.08,0.03c0.315,0.223,0.891,0.879,0.727,1.964
			c-0.002,0.02-0.023,0.095-0.042,0.112c-0.007,0.002-0.049,0.018-0.12,0.043c-0.067,0.026-0.182,0.063-0.273,0.107
			c-0.101,0.044-0.223,0.097-0.36,0.158c-0.137,0.071-0.296,0.15-0.462,0.24c-0.319,0.188-0.668,0.43-0.928,0.711L91.395,4.98
			c-0.033,0.035-0.051,0.072-0.078,0.107c-0.022,0.036-0.056,0.071-0.074,0.105c-0.017,0.035-0.035,0.069-0.053,0.104
			c-0.06,0.134-0.1,0.254-0.089,0.336c0.005,0.085,0.024,0.15,0.068,0.224c0.045,0.073,0.14,0.147,0.249,0.219
			C91.659,6.208,92,6.276,92.311,6.274c0.154,0.011,0.308-0.019,0.439-0.024c0.136-0.025,0.253-0.046,0.352-0.065
			c0.197-0.054,0.309-0.085,0.309-0.085s0.02-0.002,0.056-0.004c0.036-0.006,0.088-0.014,0.155-0.024
			c0.067-0.01,0.148-0.021,0.24-0.035c0.091-0.016,0.194-0.042,0.307-0.064c0.11-0.021,0.232-0.047,0.355-0.084
			c0.124-0.035,0.256-0.064,0.388-0.104c0.26-0.086,0.538-0.16,0.788-0.247c0.421-0.148,0.708-0.255,0.915-0.268
			c0.205-0.017,0.314,0.039,0.351,0.151c0.035,0.111-0.007,0.279-0.107,0.48c-0.049,0.101-0.113,0.211-0.189,0.323
			c-0.08,0.109-0.172,0.222-0.274,0.338c0.064-0.019-0.44,0.503-1.077,0.94c-0.153,0.118-0.327,0.212-0.483,0.311
			c-0.156,0.101-0.315,0.179-0.452,0.247c-0.27,0.143-0.471,0.214-0.471,0.214s-0.041,0.011-0.119,0.033
			c-0.079,0.019-0.19,0.057-0.344,0.081c-0.153,0.023-0.329,0.072-0.551,0.086c-0.11,0.01-0.227,0.02-0.349,0.031
			c-0.125,0.002-0.26,0-0.398-0.002c-0.281-0.011-0.59-0.043-0.924-0.127c-0.165-0.03-0.339-0.105-0.512-0.165
			c-0.086-0.03-0.175-0.081-0.262-0.123c-0.088-0.047-0.177-0.084-0.264-0.147c-0.351-0.215-0.692-0.539-0.947-0.951
			c-0.263-0.411-0.39-0.936-0.377-1.422c-0.005-0.25,0.049-0.476,0.098-0.704c0.072-0.209,0.14-0.431,0.243-0.607
			c0.049-0.091,0.096-0.187,0.149-0.271c0.057-0.081,0.111-0.161,0.167-0.24c0.11-0.166,0.235-0.289,0.354-0.426
			c0.49-0.514,1.001-0.845,1.442-1.109c0.223-0.119,0.428-0.226,0.614-0.318c0.193-0.084,0.365-0.159,0.506-0.22
			c0.15-0.067,0.238-0.093,0.311-0.121C92.821,1.528,92.862,1.512,92.87,1.509z"/>
		<path fill="#5AF0FF" d="M140.099,25.887c-0.02,0-0.025,0-0.054-0.053c-0.188-0.306-0.481-1.103-0.145-2.09
			c0.007-0.018,0.037-0.084,0.055-0.094c0.023-0.001,0.486-0.03,1.168-0.071c0.342-0.02,0.731-0.049,1.157-0.067
			c0.432-0.013,0.89-0.025,1.347-0.039c0.456-0.011,0.916-0.03,1.339-0.034c0.421-0.003,0.813-0.006,1.15-0.007
			c0.675-0.004,1.123-0.008,1.123-0.008s0.293,0.055,0.685,0.156c0.392,0.102,0.887,0.246,1.293,0.417
			c1.38,0.479,0.825,0.974-0.029,1.238c0.043,0.025-0.468,0.13-0.989,0.227c-0.521,0.097-1.054,0.195-1.054,0.195
			s-0.436,0.004-1.092,0.009c-0.326,0.003-0.71,0.006-1.12,0.007c-0.403,0.012-0.837,0.024-1.271,0.036
			c-0.432,0.012-0.865,0.025-1.272,0.037c-0.414,0.025-0.804,0.048-1.139,0.069C140.579,25.856,140.123,25.885,140.099,25.887z"/>
	</g>
	<g>
	</g>
	<g>
	</g>
	<g>
	</g>
	<g>
	</g>
	<g>
	</g>
	<g>
	</g>
	<g>
	</g>
	<g>
	</g>
	<g>
	</g>
	<g>
	</g>
	<g>
	</g>
	<g>
	</g>
	<g>
	</g>
	<g>
	</g>
	<g>
	</g>
</g>
</svg>
