<?xml version="1.0" encoding="utf-8"?>
<!-- Generator: Adobe Illustrator 16.0.3, SVG Export Plug-In . SVG Version: 6.00 Build 0)  -->
<!DOCTYPE svg PUBLIC "-//W3C//DTD SVG 1.1//EN" "http://www.w3.org/Graphics/SVG/1.1/DTD/svg11.dtd">
<svg version="1.1" id="Layer_1" xmlns="http://www.w3.org/2000/svg" xmlns:xlink="http://www.w3.org/1999/xlink" x="0px" y="0px"
	 width="170.75px" height="50px" viewBox="0 0 170.75 50" enable-background="new 0 0 170.75 50" xml:space="preserve">
<g>
	<path fill="#002A96" d="M17.292,13.688c0-0.035,0-0.047,0.058-0.093c0.336-0.314,1.198-0.767,2.22-0.019
		c0.018,0.014,0.086,0.079,0.096,0.111c0,0.183-0.01,13.479-0.01,13.479s-0.243,2.166-0.605,3.688
		c-0.505,2.576-1.03,1.547-1.312-0.053c-0.052,0.168-0.447-3.822-0.447-3.822S17.292,13.874,17.292,13.688z"/>
	<path fill="#002A96" d="M29.021,15.048c-0.023-0.112-0.032-0.152-0.008-0.31c0.108-1.081,0.635-2.719,2.156-0.531
		c0.028,0.04,0.14,0.234,0.172,0.338c0.467,2.003,1.057,4.034,1.681,6.051c0.625,2.021,1.287,4.048,1.898,6.109
		c0.611,2.061,1.17,4.16,1.575,6.309c0.405,2.148,0.65,4.348,0.656,6.561c-0.788-0.027-1.575-0.057-2.362-0.086
		c0.231-3.143,0.525-6.299,1-9.445c0.475-3.146,1.136-6.286,2.104-9.351c0,0,0.155-0.43,0.416-1.149
		c0.132-0.358,0.321-0.78,0.519-1.259c0.201-0.478,0.416-1.012,0.697-1.563c1.039-2.236,2.625-4.923,4.229-6.898
		c0.155-0.22,0.321-0.418,0.479-0.606c0.159-0.188,0.31-0.367,0.454-0.538c0.289-0.34,0.551-0.644,0.788-0.913
		c0.503-0.514,0.901-0.894,1.202-1.161c0.6-0.535,0.828-0.607,0.77-0.364c-0.055,0.247-0.385,0.816-0.892,1.581
		c-0.124,0.193-0.271,0.39-0.406,0.613c-0.137,0.221-0.281,0.456-0.431,0.7c-0.153,0.241-0.313,0.492-0.477,0.751
		c-0.083,0.129-0.167,0.26-0.252,0.393c-0.079,0.137-0.158,0.276-0.238,0.417c0.084-0.106-0.271,0.505-0.848,1.475
		c-0.263,0.5-0.574,1.094-0.912,1.737c-0.042,0.081-0.085,0.162-0.128,0.243c-0.038,0.084-0.077,0.168-0.116,0.254
		c-0.078,0.17-0.157,0.344-0.237,0.518c-0.16,0.35-0.322,0.705-0.485,1.062c-0.302,0.724-0.583,1.461-0.856,2.148
		c-0.237,0.702-0.459,1.359-0.651,1.924c-0.331,1.146-0.552,1.915-0.552,1.915c-0.858,2.835-1.45,5.76-1.882,8.721
		c-0.433,2.961-0.71,5.957-0.931,8.969l-2.371-0.088c-0.004-2.043-0.23-4.09-0.614-6.123c-0.384-2.033-0.92-4.053-1.52-6.072
		c-0.599-2.018-1.26-4.038-1.892-6.082C30.122,19.249,29.52,17.19,29.021,15.048z"/>
	<path fill="#002A96" d="M2.69,12.463c-0.07,0.004-0.095,0.005-0.19-0.045c-0.655-0.292-1.625-1.09-0.188-2.212
		c0.026-0.021,0.153-0.097,0.218-0.111c0.055,0.002,0.489-0.044,1.211-0.121c0.365-0.043,0.812-0.109,1.317-0.179
		C5.564,9.708,6.132,9.624,6.75,9.5c1.236-0.232,2.67-0.552,4.213-0.915c1.543-0.361,3.198-0.761,4.883-1.102
		c0.422-0.084,0.842-0.171,1.268-0.242c0.423-0.077,0.845-0.15,1.269-0.209c0.211-0.032,0.421-0.063,0.63-0.094
		c0.212-0.025,0.422-0.05,0.63-0.075c0.197-0.023,0.393-0.046,0.586-0.069c0.199-0.025,0.396-0.051,0.592-0.076
		c1.563-0.203,3.021-0.392,4.269-0.554c1.241-0.174,2.276-0.311,2.993-0.426c0.718-0.114,1.127-0.179,1.127-0.179
		s0.27-0.026,0.722-0.07c0.45-0.052,1.081-0.124,1.806-0.208c1.452-0.166,3.271-0.426,4.783-0.653
		c0.643-0.091,1.164-0.203,1.596-0.266c0.431-0.067,0.767-0.104,1.018-0.116c0.502-0.022,0.662,0.051,0.568,0.203
		c-0.094,0.149-0.444,0.37-0.962,0.631c-0.52,0.254-1.199,0.58-1.974,0.84c0.171-0.024-1.683,0.612-3.621,1.114
		c-0.482,0.141-0.972,0.242-1.43,0.356c-0.46,0.109-0.891,0.212-1.261,0.3c-0.742,0.157-1.239,0.261-1.239,0.261
		s-0.413,0.066-1.135,0.181c-0.721,0.101-1.752,0.245-2.99,0.417c-1.234,0.16-2.674,0.347-4.219,0.548
		c-0.389,0.047-0.784,0.095-1.184,0.144c-0.384,0.039-0.773,0.106-1.166,0.163c-0.785,0.122-1.584,0.272-2.386,0.436
		c-1.603,0.329-3.214,0.72-4.746,1.079c-1.531,0.361-2.985,0.684-4.255,0.921c-0.632,0.127-1.225,0.214-1.749,0.304
		C4.855,12.218,4.396,12.289,4,12.333C3.204,12.419,2.729,12.466,2.69,12.463z"/>
</g>
<g>
	<path fill="#002A96" d="M51.98,16.114c-0.115-0.032-0.158-0.043-0.292-0.139c-0.248-0.148-0.462-0.345-0.64-0.556
		c-0.178-0.209-0.311-0.434-0.338-0.646c-0.027-0.211,0.051-0.412,0.295-0.573c0.122-0.081,0.285-0.152,0.497-0.21
		c0.106-0.029,0.225-0.056,0.356-0.078c0.066-0.01,0.134-0.021,0.206-0.033c0.067-0.014,0.139-0.028,0.212-0.042
		c0.043-0.008,0.239-0.026,0.331-0.013l0.376,0.099l0.397,0.083c0.264,0.057,0.529,0.114,0.799,0.152
		c0.536,0.095,1.082,0.158,1.631,0.216c1.099,0.11,2.222,0.151,3.36,0.174c2.275,0.05,4.621,0.011,7.021,0.294l1.057,0.125
		l-0.015,1.051c-0.02,1.415-0.44,2.711-0.986,3.859c-0.558,1.147-1.248,2.176-1.982,3.145c-1.479,1.933-3.152,3.625-4.859,5.249
		c-1.711,1.623-3.477,3.158-5.224,4.686c-0.873,0.764-1.743,1.525-2.59,2.295c-0.845,0.771-1.673,1.555-2.413,2.359
		c-0.224-0.65-0.449-1.303-0.673-1.955l0.463,0.066c0,0,0.404,0.074,1.082,0.197c0.337,0.07,0.751,0.121,1.217,0.186
		c0.233,0.031,0.479,0.066,0.737,0.102c0.257,0.037,0.526,0.074,0.808,0.098c2.234,0.268,5.101,0.422,7.477,0.582
		c4.034,0.209,5.251,0.475,4.826,0.701c-0.424,0.23-2.47,0.445-4.974,0.611c0.247,0.014-2.423,0.176-5.342,0.182
		c-0.729,0.006-1.476-0.023-2.191-0.033c-0.716-0.02-1.407-0.078-2.022-0.109c-0.154-0.012-0.304-0.016-0.448-0.029
		c-0.145-0.016-0.284-0.031-0.417-0.047c-0.267-0.027-0.51-0.055-0.724-0.078c-0.428-0.049-0.739-0.082-0.89-0.1L45.91,37.74
		l1.521-1.721c0.046-0.051,0.07-0.078,0.07-0.078c0.832-0.896,1.694-1.705,2.563-2.496c0.869-0.789,1.744-1.555,2.616-2.318
		c1.743-1.525,3.478-3.037,5.132-4.607c1.649-1.571,3.245-3.194,4.583-4.951c0.665-0.877,1.268-1.789,1.722-2.729
		c0.448-0.939,0.732-1.909,0.747-2.821l1.044,1.178c-2.181-0.259-4.456-0.228-6.786-0.276C56.79,16.876,54.392,16.743,51.98,16.114z
		"/>
	<path fill="#002A96" d="M68.193,25.492c-0.026-0.094-0.037-0.128-0.018-0.266c0.031-0.478,0.198-1.04,0.525-1.298
		c0.165-0.127,0.375-0.173,0.637-0.082c0.132,0.044,0.276,0.125,0.435,0.245c0.159,0.122,0.333,0.284,0.524,0.478
		c0.028,0.029,0.14,0.171,0.173,0.249c0.551,1.821,1.215,3.635,2.013,5.352c0.4,0.859,0.832,1.697,1.31,2.488
		c0.48,0.783,1.015,1.525,1.602,2.102l-1.844,0.25c0.595-1.025,1.01-2.223,1.287-3.455c0.275-1.232,0.417-2.514,0.419-3.781
		l2.288-0.414c1.238,3.305,2.468,6.559,4.254,9.439l-1.517-0.439c0.319-0.18,0.637-0.357,0.885-0.621
		c0.141-0.111,0.242-0.268,0.366-0.4l0.156-0.23l0.079-0.117c0.024-0.039,0.045-0.084,0.068-0.125
		c0.372-0.668,0.603-1.482,0.712-2.348c0,0,0.014-0.082,0.04-0.232c0.031-0.146,0.052-0.371,0.088-0.65
		c0.06-0.561,0.11-1.369,0.096-2.32c-0.012-0.949-0.081-2.035-0.184-3.141c-0.104-1.104-0.237-2.223-0.349-3.244
		c-0.223-1.725-0.318-2.871-0.295-3.537c0.022-0.667,0.127-0.848,0.264-0.683c0.14,0.165,0.314,0.667,0.549,1.388
		c0.231,0.721,0.513,1.661,0.795,2.707c-0.01-0.113,0.143,0.456,0.363,1.386c0.22,0.931,0.505,2.221,0.712,3.561
		c0.217,1.336,0.326,2.73,0.315,3.807c-0.002,0.268-0.017,0.518-0.025,0.738c-0.014,0.223-0.035,0.418-0.048,0.578
		c-0.011,0.16-0.034,0.287-0.046,0.375c-0.013,0.086-0.019,0.133-0.019,0.133c-0.182,0.971-0.478,1.975-1.057,2.9
		c-0.57,0.926-1.441,1.729-2.434,2.207l-0.965,0.463l-0.562-0.908c-1.947-3.143-3.219-6.551-4.46-9.854l2.298-0.418
		c-0.002,1.449-0.16,2.883-0.475,4.299c-0.32,1.412-0.788,2.814-1.557,4.143l-0.765,1.32l-1.083-1.07
		c-0.816-0.807-1.426-1.682-1.976-2.57c-0.541-0.891-1.008-1.803-1.438-2.725C69.473,29.32,68.782,27.434,68.193,25.492z"/>
	<path fill="#002A96" d="M88.818,17.95c0-0.03,0-0.041,0.056-0.079c0.337-0.267,1.198-0.65,2.221-0.016
		c0.019,0.011,0.086,0.066,0.096,0.095c0,0.155-0.01,11.425-0.01,11.425s-0.243,1.836-0.604,3.123
		c-0.506,2.184-1.031,1.311-1.313-0.043c-0.051,0.141-0.445-3.24-0.445-3.24S88.818,18.107,88.818,17.95z"/>
	<path fill="#002A96" d="M97.756,34.014c-0.003,0.133-0.003,0.182-0.063,0.354c-0.354,1.197-1.241,2.918-2.223,0.049
		c-0.017-0.053-0.08-0.303-0.089-0.428l0.287-19.175l2.284-0.438c1.748,4.429,3.431,8.844,5.393,13.112
		c0.983,2.133,2.032,4.225,3.2,6.232c1.169,2.004,2.458,3.93,3.952,5.631c-0.686,0.215-1.369,0.428-2.055,0.643l0.18-1.885
		l0.09-0.941c0.024-0.314,0.036-0.631,0.055-0.947c0,0,0.045-0.508,0.118-1.359c0.02-0.215,0.04-0.449,0.062-0.703
		c0.016-0.256,0.031-0.529,0.047-0.818c0.035-0.582,0.073-1.229,0.114-1.92c0.132-2.773,0.214-6.291,0.326-9.198
		c0.041-1.235,0.082-2.253,0.132-3.078c0.057-0.826,0.114-1.458,0.173-1.919c0.116-0.922,0.239-1.162,0.354-0.904
		c0.234,0.517,0.446,3.019,0.658,6.066c0.012-0.318,0.234,3.324,0.353,7.079c0.027,0.938,0.062,1.883,0.056,2.773
		c0.002,0.447,0.004,0.877,0.006,1.287c0.003,0.41,0.007,0.799-0.009,1.158c-0.039,1.439-0.066,2.406-0.066,2.406
		c-0.088,1.061-0.199,2.123-0.298,3.184l-0.251,2.717l-1.815-2.07c-1.642-1.871-3.002-3.914-4.225-6.008
		c-1.22-2.098-2.301-4.254-3.306-6.434c-2.007-4.361-3.706-8.827-5.446-13.227l2.289-0.438L97.756,34.014z"/>
	<path fill="#002A96" d="M132.327,16.329c0.138,0.044,0.191,0.064,0.355,0.181c0.144,0.094,0.288,0.199,0.425,0.31
		c0.07,0.055,0.136,0.111,0.179,0.171c0.049,0.059,0.097,0.119,0.142,0.18c0.174,0.243,0.301,0.491,0.313,0.709
		c0.011,0.218-0.092,0.407-0.372,0.528c-0.143,0.061-0.327,0.105-0.564,0.128c-0.116,0.014-0.255,0.011-0.392,0.024
		c-0.132,0.022-0.27,0.044-0.415,0.062c-0.045,0.006-0.231,0.01-0.32-0.009c-0.759-0.208-1.552-0.285-2.35-0.243
		c-0.2,0.021-0.402,0.016-0.601,0.054l-0.602,0.098l-0.595,0.15c-0.101,0.021-0.2,0.051-0.298,0.087l-0.294,0.099
		c-1.57,0.537-3.042,1.467-4.342,2.592c-1.299,1.131-2.434,2.47-3.333,3.939c-0.899,1.466-1.556,3.076-1.824,4.705
		c-0.125,0.813-0.139,1.625-0.021,2.4l0.042,0.291c0.02,0.096,0.048,0.186,0.07,0.281l0.073,0.281l0.018,0.068
		c0.002,0.008,0.009,0.035,0.005,0.025l0.014,0.041l0.055,0.164l0.053,0.162l0.05,0.127c0.031,0.082,0.065,0.168,0.104,0.256
		c0.037,0.088,0.077,0.176,0.119,0.256c0.041,0.086,0.084,0.166,0.13,0.242c0.18,0.309,0.385,0.57,0.607,0.752
		c0.111,0.096,0.226,0.168,0.344,0.227c0.119,0.061,0.242,0.102,0.376,0.129c0.526,0.117,1.239-0.031,1.935-0.371
		c0.701-0.33,1.385-0.82,2.024-1.369c0.639-0.555,1.233-1.182,1.777-1.848c0.54-0.668,1.032-1.379,1.438-2.113
		c0.2-0.367,0.382-0.742,0.525-1.113c0.145-0.369,0.251-0.738,0.297-1.066l2.337,0.318c-0.107,0.926-0.228,1.852-0.325,2.781
		c0,0-0.058,0.465-0.155,1.244c-0.044,0.389-0.114,0.855-0.169,1.387s-0.116,1.121-0.182,1.752
		c-0.253,2.529-0.483,5.736-0.686,8.389c-0.276,4.504-0.52,5.863-0.754,5.389c-0.229-0.473-0.434-2.771-0.555-5.576
		c-0.022,0.291-0.129-3.061-0.084-6.504c0.005-0.432,0.01-0.863,0.016-1.289c0.015-0.426,0.028-0.846,0.042-1.254
		s0.027-0.803,0.041-1.178s0.041-0.73,0.059-1.059c0.039-0.656,0.071-1.205,0.096-1.59c0.01-0.193,0.027-0.344,0.036-0.447
		c0.008-0.104,0.014-0.158,0.014-0.158l0.261-2.203l2.353,0.32c-0.086,0.588-0.246,1.109-0.436,1.602
		c-0.191,0.49-0.416,0.949-0.657,1.395c-0.486,0.883-1.053,1.697-1.675,2.467c-0.624,0.766-1.306,1.484-2.063,2.143
		c-0.761,0.654-1.586,1.258-2.559,1.721c-0.485,0.232-1.011,0.426-1.586,0.541c-0.573,0.113-1.211,0.146-1.852,0.008
		c-0.64-0.129-1.265-0.441-1.747-0.852c-0.492-0.408-0.856-0.895-1.141-1.383c-0.071-0.121-0.138-0.244-0.198-0.369
		c-0.064-0.123-0.121-0.248-0.174-0.371c-0.055-0.123-0.106-0.252-0.155-0.385l-0.074-0.199l-0.056-0.166l-0.055-0.164l-0.014-0.041
		c-0.013-0.039-0.011-0.039-0.016-0.061l-0.027-0.098l-0.101-0.391c-0.033-0.129-0.072-0.26-0.097-0.391l-0.062-0.395
		c-0.158-1.053-0.133-2.107,0.022-3.121c0.334-2.025,1.115-3.894,2.144-5.576c1.031-1.685,2.313-3.196,3.799-4.494
		c1.49-1.288,3.194-2.38,5.126-3.045C128.072,15.923,130.272,15.76,132.327,16.329z"/>
	<path fill="#002A96" d="M151.171,12.299c0.068-0.01,0.093-0.014,0.189,0.028c0.646,0.236,1.735,0.921,0.39,2.185
		c-0.023,0.023-0.144,0.111-0.21,0.131c-0.044,0.007-0.499,0.078-1.26,0.196c-0.756,0.119-1.809,0.281-3.043,0.517
		c-1.227,0.239-2.652,0.54-4.06,1.019c-0.699,0.238-1.398,0.529-1.975,0.889c-0.287,0.177-0.534,0.377-0.695,0.566
		c-0.038,0.047-0.068,0.093-0.106,0.137c-0.042,0.071,0.055-0.091,0.043-0.071l-0.005,0.008l-0.009,0.018l-0.019,0.035l-0.039,0.069
		l-0.075,0.138l-0.04,0.069c-0.012,0.023-0.008,0.029-0.014,0.044l-0.023,0.076c-0.018,0.056-0.039,0.08-0.062,0.176
		c-0.193,0.637-0.292,1.425-0.344,2.2c-0.053,0.781-0.062,1.572-0.057,2.344c0.006,0.773,0.027,1.523,0.038,2.264
		c0.002,0.181,0.003,0.36,0.005,0.537c0.004,0.171,0.002,0.357,0.009,0.507c0.009,0.309,0.025,0.619,0.046,0.916
		c0.087,1.184,0.275,2.139,0.446,2.785c0.087,0.32,0.162,0.572,0.221,0.736c0.055,0.17,0.089,0.256,0.089,0.256
		s0.019,0.059,0.051,0.166c0.031,0.109,0.084,0.262,0.154,0.453c0.14,0.381,0.357,0.908,0.692,1.459
		c0.33,0.557,0.789,1.125,1.355,1.607c0.563,0.49,1.239,0.871,1.898,1.154c0.139,0.061,0.279,0.104,0.411,0.15
		c0.133,0.049,0.26,0.094,0.384,0.125c0.123,0.039,0.241,0.074,0.354,0.107c0.112,0.029,0.221,0.057,0.323,0.082
		c0.413,0.104,0.733,0.184,0.971,0.244c0.477,0.125,0.613,0.242,0.479,0.359c-0.135,0.109-0.54,0.24-1.137,0.295
		c-0.595,0.057-1.385,0.049-2.248-0.133c0.086,0.033-0.392-0.039-1.128-0.322c-0.369-0.135-0.793-0.346-1.236-0.607
		c-0.439-0.268-0.882-0.609-1.29-0.992c-0.822-0.77-1.441-1.723-1.826-2.459c-0.092-0.188-0.176-0.359-0.249-0.512
		c-0.066-0.154-0.125-0.289-0.175-0.4c-0.092-0.225-0.139-0.354-0.139-0.354s-0.039-0.107-0.101-0.311
		c-0.06-0.203-0.146-0.5-0.235-0.883c-0.185-0.762-0.371-1.857-0.446-3.166c-0.043-0.664-0.038-1.383-0.05-2.053
		c-0.014-0.701-0.034-1.464-0.036-2.258c-0.001-0.796,0.014-1.626,0.081-2.491c0.03-0.432,0.08-0.874,0.153-1.327
		c0.031-0.223,0.091-0.461,0.137-0.691c0.025-0.117,0.065-0.239,0.098-0.358c0.037-0.125,0.057-0.225,0.121-0.382
		c0.057-0.146,0.116-0.29,0.18-0.432l0.022-0.054l0.021-0.035l0.037-0.068l0.075-0.136l0.038-0.069l0.019-0.034l0.004-0.008
		c-0.04,0.066,0.061-0.101,0.055-0.088l0.017-0.023l0.135-0.182c0.089-0.126,0.187-0.229,0.286-0.332
		c0.393-0.409,0.812-0.702,1.224-0.953c0.827-0.488,1.646-0.805,2.436-1.073c1.58-0.524,3.055-0.83,4.321-1.077
		c1.269-0.241,2.33-0.404,3.082-0.523C150.677,12.376,151.125,12.307,151.171,12.299z"/>
	<path fill="#002A96" d="M157.802,37.822c0,0.117,0,0.16-0.057,0.314c-0.326,1.07-1.176,2.615-2.219,0.08
		c-0.019-0.047-0.089-0.268-0.099-0.379l-0.104-9.699c0-1.625-0.019-3.247-0.001-4.873l0.123-4.889l0.092-3.622l2.065,3.004
		c2.208,3.214,3.853,6.689,5.511,10.054c1.658,3.363,3.353,6.666,5.634,9.465c-0.677,0.121-1.352,0.242-2.028,0.363
		c0.376-1.141,0.668-2.32,0.885-3.525c0,0,0.007-0.025,0.02-0.076c0.008-0.055,0.023-0.131,0.042-0.232
		c0.038-0.199,0.093-0.492,0.161-0.857c0.071-0.365,0.126-0.813,0.205-1.314c0.071-0.502,0.132-1.068,0.198-1.67
		c0.116-1.213,0.202-2.592,0.246-3.991c0.034-1.399,0.036-2.817,0.019-4.102c-0.062-2.178-0.133-3.602-0.119-4.429
		c0.01-0.827,0.099-1.058,0.246-0.847c0.287,0.421,0.827,2.613,1.193,5.337c-0.013-0.287,0.438,2.969,0.467,6.357
		c0.025,1.693-0.057,3.412-0.182,4.713c-0.077,0.646-0.137,1.191-0.193,1.57c-0.064,0.381-0.101,0.6-0.101,0.6
		c-0.2,1.088-0.506,2.166-0.852,3.236l-0.661,2.057l-1.38-1.693c-1.244-1.527-2.31-3.168-3.27-4.838
		c-0.959-1.674-1.817-3.381-2.653-5.076c-1.668-3.388-3.271-6.75-5.342-9.756l2.164-0.62l-0.119,4.809
		c-0.018,1.606,0.003,3.219,0.001,4.827L157.802,37.822z"/>
	<path fill="#002A96" d="M141.066,27.734c-0.019,0-0.025,0-0.056-0.055c-0.2-0.322-0.515-1.166-0.161-2.214
		c0.007-0.019,0.039-0.089,0.057-0.1c0.027-0.002,0.516-0.034,1.237-0.08c0.36-0.022,0.776-0.055,1.228-0.077
		c0.456-0.014,0.941-0.029,1.426-0.045c0.483-0.014,0.971-0.035,1.419-0.041c0.447-0.005,0.863-0.01,1.22-0.014
		c0.715-0.007,1.188-0.012,1.188-0.012s0.31,0.058,0.727,0.164c0.415,0.104,0.94,0.255,1.372,0.436
		c1.465,0.502,0.879,1.028-0.027,1.311c0.048,0.025-0.493,0.139-1.046,0.244c-0.554,0.105-1.116,0.211-1.116,0.211
		s-0.461,0.006-1.155,0.014c-0.347,0.004-0.754,0.008-1.188,0.014c-0.429,0.014-0.887,0.027-1.345,0.041
		c-0.46,0.016-0.918,0.031-1.351,0.045c-0.439,0.027-0.852,0.055-1.207,0.076C141.578,27.701,141.094,27.732,141.066,27.734z"/>
	<path fill="#002A96" d="M90.3,2.092c0.024-0.008,0.032-0.011,0.084,0.031c0.335,0.235,0.947,0.928,0.777,2.079
		c-0.001,0.021-0.023,0.102-0.044,0.119c-0.007,0.003-0.052,0.019-0.127,0.046c-0.071,0.027-0.193,0.067-0.289,0.114
		c-0.107,0.047-0.235,0.104-0.381,0.167c-0.146,0.077-0.314,0.162-0.488,0.258c-0.337,0.2-0.706,0.458-0.981,0.757l-0.103,0.112
		c-0.034,0.037-0.053,0.077-0.082,0.114c-0.024,0.038-0.059,0.075-0.077,0.112c-0.018,0.037-0.036,0.073-0.057,0.109
		c-0.062,0.142-0.104,0.27-0.092,0.357c0.005,0.09,0.025,0.158,0.071,0.236c0.05,0.077,0.148,0.155,0.267,0.23
		c0.255,0.141,0.617,0.212,0.947,0.208c0.162,0.011,0.326-0.021,0.465-0.027c0.144-0.027,0.271-0.051,0.373-0.07
		c0.21-0.058,0.328-0.091,0.328-0.091s0.022-0.002,0.06-0.005c0.038-0.006,0.094-0.015,0.164-0.026
		c0.07-0.01,0.157-0.023,0.253-0.037c0.098-0.018,0.207-0.045,0.325-0.069c0.119-0.023,0.246-0.051,0.378-0.091
		c0.131-0.038,0.271-0.07,0.41-0.111c0.274-0.092,0.57-0.171,0.834-0.265c0.446-0.16,0.75-0.273,0.969-0.288
		c0.218-0.019,0.334,0.04,0.373,0.159c0.037,0.118-0.007,0.296-0.111,0.51c-0.053,0.106-0.118,0.223-0.2,0.343
		c-0.083,0.115-0.181,0.236-0.288,0.359c0.068-0.02-0.464,0.534-1.139,1c-0.161,0.125-0.344,0.226-0.51,0.331
		c-0.166,0.107-0.333,0.19-0.479,0.264c-0.285,0.152-0.497,0.229-0.497,0.229s-0.045,0.012-0.125,0.035
		c-0.084,0.021-0.202,0.061-0.364,0.087c-0.162,0.025-0.351,0.078-0.585,0.094c-0.116,0.01-0.239,0.021-0.369,0.033
		c-0.133,0.003-0.275,0.002-0.422,0.001c-0.298-0.01-0.626-0.043-0.979-0.132c-0.175-0.031-0.359-0.11-0.544-0.172
		c-0.092-0.031-0.185-0.085-0.278-0.129c-0.094-0.05-0.188-0.088-0.28-0.155c-0.373-0.227-0.735-0.568-1.009-1.004
		c-0.278-0.435-0.417-0.99-0.405-1.505c-0.005-0.265,0.052-0.504,0.103-0.747c0.075-0.222,0.147-0.457,0.255-0.644
		c0.052-0.098,0.101-0.199,0.157-0.29c0.059-0.085,0.118-0.17,0.177-0.255c0.114-0.176,0.247-0.308,0.374-0.453
		c0.517-0.547,1.058-0.9,1.522-1.181c0.236-0.128,0.452-0.241,0.648-0.34c0.207-0.09,0.386-0.169,0.537-0.235
		c0.158-0.072,0.251-0.1,0.328-0.129C90.247,2.111,90.291,2.095,90.3,2.092z"/>
</g>
<g>
	<path fill="#41D7F0" d="M16.473,12.56c0.001-0.034,0.001-0.047,0.058-0.092c0.336-0.314,1.198-0.767,2.22-0.019
		c0.019,0.013,0.086,0.078,0.096,0.111c0,0.184-0.01,13.479-0.01,13.479s-0.243,2.166-0.604,3.686
		c-0.505,2.578-1.03,1.547-1.312-0.049c-0.052,0.166-0.448-3.823-0.448-3.823S16.473,12.746,16.473,12.56z"/>
	<path fill="#41D7F0" d="M28.203,13.92c-0.024-0.111-0.033-0.152-0.008-0.31c0.108-1.081,0.635-2.719,2.156-0.532
		c0.027,0.041,0.139,0.235,0.172,0.338c0.467,2.003,1.057,4.034,1.681,6.051c0.625,2.021,1.287,4.048,1.899,6.109
		c0.611,2.06,1.17,4.16,1.575,6.308c0.405,2.148,0.65,4.348,0.655,6.563c-0.787-0.029-1.574-0.059-2.362-0.086
		c0.231-3.145,0.525-6.301,1-9.447c0.475-3.145,1.135-6.285,2.104-9.351c0,0,0.155-0.429,0.415-1.148
		c0.132-0.359,0.321-0.78,0.518-1.259c0.202-0.478,0.417-1.012,0.698-1.563c1.039-2.237,2.625-4.923,4.229-6.898
		c0.155-0.22,0.32-0.418,0.479-0.605c0.159-0.188,0.31-0.367,0.454-0.538c0.289-0.34,0.551-0.644,0.788-0.912
		c0.503-0.514,0.901-0.894,1.202-1.161c0.6-0.536,0.829-0.607,0.77-0.365c-0.055,0.247-0.386,0.816-0.893,1.582
		c-0.124,0.193-0.271,0.39-0.406,0.613c-0.137,0.221-0.281,0.455-0.431,0.699c-0.153,0.242-0.312,0.493-0.477,0.752
		c-0.083,0.128-0.167,0.259-0.252,0.392c-0.078,0.137-0.158,0.276-0.238,0.417c0.084-0.106-0.271,0.504-0.848,1.475
		c-0.262,0.5-0.574,1.094-0.912,1.737c-0.042,0.081-0.085,0.161-0.128,0.243c-0.038,0.084-0.077,0.168-0.116,0.254
		c-0.078,0.171-0.157,0.344-0.237,0.519c-0.16,0.349-0.322,0.705-0.485,1.061c-0.302,0.724-0.583,1.461-0.856,2.149
		c-0.237,0.702-0.46,1.359-0.651,1.924c-0.331,1.146-0.552,1.915-0.552,1.915c-0.858,2.835-1.45,5.762-1.882,8.723
		c-0.433,2.959-0.71,5.957-0.931,8.967l-2.371-0.086c-0.004-2.045-0.23-4.092-0.615-6.125c-0.383-2.033-0.92-4.053-1.519-6.07
		c-0.599-2.02-1.26-4.039-1.892-6.083C29.304,18.12,28.702,16.063,28.203,13.92z"/>
	<path fill="#41D7F0" d="M1.872,11.334c-0.07,0.004-0.095,0.006-0.189-0.044c-0.655-0.292-1.625-1.091-0.188-2.212
		C1.521,9.057,1.646,8.98,1.712,8.966c0.055,0.002,0.489-0.044,1.211-0.121C3.288,8.803,3.735,8.737,4.24,8.667
		C4.746,8.58,5.313,8.496,5.932,8.372c1.236-0.232,2.67-0.552,4.213-0.915c1.543-0.362,3.199-0.762,4.883-1.102
		c0.422-0.084,0.842-0.171,1.268-0.242c0.423-0.077,0.845-0.15,1.269-0.209c0.211-0.032,0.421-0.063,0.631-0.095
		c0.211-0.025,0.421-0.049,0.63-0.074c0.197-0.023,0.392-0.046,0.586-0.069c0.199-0.025,0.396-0.051,0.592-0.076
		c1.564-0.203,3.021-0.392,4.27-0.554c1.24-0.174,2.276-0.311,2.993-0.426c0.718-0.113,1.127-0.178,1.127-0.178
		s0.27-0.026,0.721-0.07c0.45-0.052,1.081-0.124,1.806-0.207c1.452-0.167,3.272-0.426,4.783-0.654
		c0.643-0.09,1.164-0.202,1.596-0.266c0.431-0.066,0.766-0.104,1.017-0.116c0.502-0.022,0.662,0.051,0.568,0.203
		c-0.093,0.149-0.444,0.37-0.962,0.631c-0.519,0.254-1.198,0.58-1.974,0.84c0.171-0.023-1.682,0.612-3.621,1.114
		c-0.481,0.141-0.972,0.242-1.43,0.356c-0.46,0.109-0.891,0.212-1.26,0.3c-0.742,0.156-1.24,0.262-1.24,0.262
		s-0.413,0.066-1.135,0.18c-0.721,0.101-1.752,0.245-2.99,0.417c-1.233,0.16-2.674,0.348-4.219,0.548
		c-0.389,0.047-0.784,0.095-1.184,0.144c-0.383,0.04-0.773,0.107-1.165,0.164c-0.786,0.122-1.585,0.273-2.386,0.436
		c-1.603,0.329-3.214,0.72-4.746,1.079c-1.531,0.361-2.985,0.684-4.255,0.921c-0.631,0.127-1.225,0.214-1.749,0.305
		c-0.531,0.072-0.99,0.142-1.386,0.187C2.386,11.29,1.911,11.338,1.872,11.334z"/>
</g>
<g>
	<path fill="#41D7F0" d="M50.994,14.406c-0.115-0.031-0.158-0.043-0.292-0.138c-0.248-0.147-0.462-0.345-0.64-0.556
		c-0.178-0.21-0.31-0.434-0.337-0.646c-0.027-0.211,0.05-0.411,0.294-0.573c0.121-0.081,0.285-0.152,0.497-0.21
		c0.106-0.03,0.225-0.056,0.356-0.079c0.066-0.01,0.134-0.021,0.206-0.033c0.067-0.014,0.139-0.028,0.212-0.043
		c0.043-0.008,0.239-0.026,0.331-0.012l0.376,0.099l0.397,0.083c0.264,0.057,0.529,0.114,0.799,0.152
		c0.536,0.095,1.083,0.158,1.631,0.216c1.099,0.11,2.222,0.151,3.36,0.175c2.275,0.05,4.621,0.011,7.021,0.295l1.057,0.125
		l-0.015,1.05c-0.021,1.416-0.44,2.712-0.986,3.859c-0.558,1.148-1.248,2.176-1.983,3.146c-1.479,1.932-3.152,3.624-4.859,5.248
		c-1.711,1.621-3.476,3.156-5.224,4.686c-0.873,0.764-1.743,1.525-2.59,2.297c-0.844,0.77-1.672,1.553-2.413,2.357
		c-0.225-0.65-0.449-1.303-0.673-1.955l0.464,0.066c0,0,0.404,0.074,1.082,0.197c0.337,0.072,0.751,0.121,1.217,0.186
		c0.233,0.031,0.479,0.064,0.737,0.1c0.257,0.039,0.526,0.076,0.807,0.1c2.234,0.268,5.101,0.422,7.477,0.58
		c4.035,0.211,5.251,0.475,4.827,0.703c-0.424,0.23-2.47,0.445-4.974,0.609c0.247,0.016-2.423,0.178-5.343,0.184
		c-0.729,0.006-1.476-0.023-2.191-0.033c-0.716-0.02-1.406-0.078-2.022-0.109c-0.154-0.012-0.303-0.016-0.448-0.029
		c-0.145-0.018-0.283-0.031-0.417-0.047c-0.267-0.029-0.51-0.055-0.724-0.08c-0.428-0.047-0.739-0.082-0.889-0.098l-2.197-0.244
		l1.521-1.721c0.045-0.051,0.069-0.078,0.069-0.078c0.832-0.896,1.695-1.705,2.563-2.496c0.868-0.789,1.744-1.555,2.615-2.318
		c1.743-1.525,3.478-3.035,5.132-4.608c1.649-1.57,3.245-3.193,4.583-4.951c0.666-0.877,1.268-1.788,1.722-2.729
		c0.449-0.939,0.732-1.909,0.747-2.821l1.044,1.178c-2.181-0.259-4.456-0.229-6.786-0.276
		C55.804,15.168,53.405,15.035,50.994,14.406z"/>
	<path fill="#41D7F0" d="M67.208,23.786c-0.026-0.095-0.037-0.129-0.018-0.268c0.031-0.478,0.197-1.039,0.524-1.298
		c0.166-0.127,0.375-0.173,0.637-0.082c0.131,0.045,0.276,0.125,0.435,0.245c0.158,0.123,0.333,0.285,0.524,0.479
		c0.028,0.028,0.14,0.171,0.173,0.249c0.551,1.819,1.215,3.635,2.013,5.352c0.4,0.859,0.832,1.699,1.31,2.488
		c0.48,0.783,1.015,1.525,1.602,2.102l-1.844,0.25c0.595-1.023,1.01-2.223,1.287-3.453c0.275-1.234,0.417-2.516,0.418-3.781
		l2.288-0.417c1.238,3.305,2.468,6.559,4.254,9.44l-1.517-0.439c0.319-0.18,0.637-0.359,0.885-0.619
		c0.141-0.113,0.242-0.271,0.366-0.402l0.156-0.232l0.08-0.115c0.024-0.039,0.045-0.084,0.068-0.127
		c0.371-0.668,0.603-1.48,0.711-2.346c0,0,0.014-0.082,0.04-0.23c0.03-0.148,0.052-0.373,0.088-0.652
		c0.06-0.563,0.109-1.369,0.095-2.32c-0.012-0.949-0.081-2.037-0.184-3.14c-0.104-1.105-0.237-2.225-0.35-3.245
		c-0.223-1.725-0.318-2.871-0.295-3.537c0.022-0.667,0.128-0.848,0.264-0.683c0.139,0.165,0.314,0.667,0.549,1.388
		c0.231,0.72,0.514,1.66,0.795,2.707c-0.01-0.113,0.143,0.457,0.364,1.386c0.22,0.93,0.505,2.222,0.712,3.563
		c0.217,1.336,0.326,2.729,0.314,3.805c-0.002,0.27-0.017,0.518-0.024,0.738c-0.015,0.223-0.035,0.418-0.049,0.578
		c-0.011,0.16-0.034,0.289-0.046,0.375c-0.012,0.086-0.019,0.133-0.019,0.133c-0.182,0.971-0.477,1.975-1.057,2.9
		c-0.57,0.924-1.441,1.729-2.433,2.205l-0.965,0.465L78.8,36.34c-1.946-3.145-3.219-6.553-4.46-9.855l2.298-0.416
		c-0.002,1.445-0.16,2.881-0.475,4.297c-0.32,1.412-0.788,2.814-1.558,4.143l-0.765,1.32l-1.083-1.07
		c-0.816-0.807-1.426-1.682-1.975-2.57c-0.541-0.891-1.009-1.803-1.438-2.727C68.487,27.613,67.796,25.726,67.208,23.786z"/>
	<path fill="#41D7F0" d="M87.832,16.243c0-0.029,0-0.04,0.058-0.079c0.335-0.266,1.196-0.649,2.219-0.016
		c0.019,0.011,0.087,0.066,0.098,0.094c-0.002,0.156-0.011,11.423-0.011,11.423s-0.244,1.836-0.604,3.123
		c-0.506,2.186-1.031,1.313-1.313-0.043c-0.051,0.143-0.445-3.238-0.445-3.238S87.832,16.399,87.832,16.243z"/>
	<path fill="#41D7F0" d="M96.77,32.307c-0.003,0.133-0.003,0.18-0.063,0.354c-0.354,1.197-1.241,2.918-2.221,0.047
		c-0.019-0.051-0.082-0.301-0.091-0.426l0.287-19.175l2.284-0.437c1.75,4.428,3.431,8.844,5.395,13.112
		c0.981,2.131,2.03,4.225,3.198,6.233c1.169,2.004,2.458,3.93,3.952,5.631c-0.686,0.215-1.369,0.428-2.055,0.641l0.181-1.883
		l0.091-0.941c0.022-0.314,0.036-0.631,0.054-0.947c0,0,0.044-0.508,0.117-1.361c0.02-0.213,0.04-0.449,0.062-0.701
		c0.016-0.254,0.031-0.529,0.048-0.818c0.034-0.582,0.072-1.23,0.113-1.922c0.132-2.771,0.215-6.289,0.326-9.197
		c0.041-1.234,0.082-2.252,0.132-3.078c0.057-0.826,0.114-1.458,0.173-1.919c0.116-0.923,0.239-1.163,0.354-0.905
		c0.234,0.517,0.446,3.019,0.658,6.066c0.012-0.318,0.234,3.324,0.354,7.08c0.026,0.938,0.061,1.881,0.055,2.773
		c0.002,0.447,0.004,0.877,0.007,1.287c0.002,0.41,0.006,0.799-0.008,1.158c-0.041,1.439-0.068,2.406-0.068,2.406
		c-0.088,1.061-0.198,2.121-0.298,3.184l-0.251,2.717l-1.815-2.07c-1.642-1.871-3-3.914-4.224-6.008
		c-1.221-2.098-2.302-4.254-3.307-6.434c-2.007-4.361-3.706-8.828-5.446-13.228l2.289-0.438L96.77,32.307z"/>
	<path fill="#41D7F0" d="M131.341,14.622c0.138,0.044,0.191,0.064,0.355,0.18c0.144,0.094,0.288,0.2,0.425,0.31
		c0.07,0.055,0.136,0.112,0.179,0.171c0.049,0.059,0.097,0.12,0.14,0.18c0.176,0.242,0.303,0.491,0.314,0.708
		c0.011,0.218-0.092,0.406-0.374,0.528c-0.141,0.061-0.325,0.104-0.563,0.127c-0.116,0.015-0.255,0.011-0.392,0.025
		c-0.132,0.023-0.27,0.043-0.415,0.062c-0.045,0.006-0.231,0.009-0.32-0.009c-0.759-0.208-1.552-0.286-2.35-0.242
		c-0.2,0.021-0.4,0.016-0.603,0.054l-0.6,0.098l-0.595,0.15c-0.101,0.021-0.2,0.051-0.298,0.087l-0.294,0.099
		c-1.57,0.537-3.042,1.468-4.342,2.592c-1.297,1.132-2.434,2.471-3.331,3.94c-0.901,1.465-1.558,3.076-1.826,4.703
		c-0.124,0.813-0.138,1.627-0.021,2.4l0.043,0.291c0.018,0.096,0.048,0.188,0.07,0.281l0.071,0.281l0.018,0.07
		c0.002,0.008,0.01,0.035,0.007,0.023l0.014,0.041l0.053,0.164l0.055,0.164l0.05,0.125c0.029,0.084,0.063,0.168,0.104,0.258
		c0.037,0.088,0.075,0.176,0.119,0.256c0.039,0.086,0.082,0.164,0.128,0.24c0.18,0.311,0.387,0.572,0.609,0.754
		c0.109,0.094,0.224,0.168,0.343,0.225c0.118,0.061,0.243,0.102,0.377,0.129c0.526,0.117,1.237-0.029,1.933-0.369
		c0.701-0.33,1.387-0.82,2.024-1.371c0.639-0.553,1.235-1.18,1.777-1.848c0.54-0.666,1.034-1.377,1.438-2.111
		c0.2-0.369,0.382-0.742,0.525-1.113c0.145-0.369,0.251-0.738,0.299-1.066l2.335,0.316c-0.107,0.928-0.228,1.854-0.325,2.783
		c0,0-0.058,0.465-0.155,1.244c-0.044,0.389-0.114,0.855-0.167,1.387c-0.057,0.531-0.118,1.121-0.184,1.752
		c-0.251,2.529-0.483,5.734-0.684,8.389c-0.278,4.504-0.521,5.861-0.756,5.389c-0.227-0.473-0.434-2.773-0.555-5.576
		c-0.022,0.291-0.129-3.061-0.084-6.504c0.005-0.432,0.012-0.863,0.017-1.289c0.014-0.426,0.027-0.848,0.041-1.254
		c0.016-0.408,0.027-0.803,0.041-1.178s0.041-0.73,0.059-1.059c0.041-0.658,0.073-1.207,0.096-1.59
		c0.01-0.193,0.027-0.344,0.036-0.447c0.01-0.104,0.014-0.158,0.014-0.158l0.261-2.203l2.353,0.32
		c-0.084,0.588-0.246,1.109-0.436,1.6c-0.19,0.492-0.416,0.951-0.657,1.395c-0.486,0.885-1.053,1.699-1.675,2.467
		c-0.624,0.768-1.304,1.486-2.063,2.143c-0.761,0.654-1.586,1.26-2.559,1.723c-0.485,0.23-1.01,0.426-1.586,0.539
		c-0.573,0.115-1.209,0.146-1.852,0.01c-0.64-0.129-1.264-0.441-1.745-0.854c-0.494-0.406-0.856-0.893-1.141-1.381
		c-0.073-0.123-0.14-0.246-0.2-0.369c-0.063-0.123-0.121-0.248-0.174-0.373c-0.055-0.121-0.106-0.25-0.155-0.383l-0.074-0.199
		l-0.056-0.166l-0.054-0.166l-0.014-0.041c-0.012-0.037-0.012-0.037-0.017-0.059l-0.027-0.098l-0.101-0.391
		c-0.031-0.129-0.072-0.26-0.096-0.391l-0.061-0.395c-0.159-1.053-0.135-2.109,0.022-3.123c0.333-2.023,1.113-3.893,2.142-5.574
		c1.031-1.685,2.313-3.196,3.799-4.494c1.49-1.288,3.194-2.381,5.126-3.046C127.086,14.215,129.286,14.053,131.341,14.622z"/>
	<path fill="#41D7F0" d="M150.185,10.592c0.068-0.01,0.093-0.014,0.189,0.028c0.646,0.236,1.735,0.921,0.39,2.186
		c-0.023,0.022-0.144,0.11-0.208,0.131c-0.046,0.007-0.501,0.078-1.262,0.196c-0.756,0.119-1.809,0.281-3.043,0.517
		c-1.227,0.239-2.652,0.54-4.06,1.019c-0.699,0.238-1.398,0.529-1.975,0.889c-0.285,0.177-0.534,0.376-0.695,0.566
		c-0.037,0.047-0.068,0.093-0.106,0.137c-0.042,0.069,0.056-0.091,0.043-0.071l-0.003,0.009l-0.011,0.017l-0.019,0.035l-0.039,0.069
		l-0.075,0.138l-0.04,0.069c-0.012,0.022-0.008,0.029-0.014,0.044l-0.023,0.076c-0.018,0.056-0.038,0.08-0.062,0.176
		c-0.193,0.637-0.291,1.425-0.344,2.201c-0.053,0.781-0.062,1.572-0.057,2.343c0.006,0.774,0.027,1.523,0.038,2.263
		c0.002,0.183,0.003,0.361,0.005,0.537c0.004,0.171,0.002,0.357,0.009,0.508c0.009,0.31,0.025,0.619,0.046,0.916
		c0.087,1.184,0.275,2.139,0.446,2.784c0.087,0.322,0.162,0.574,0.223,0.74c0.053,0.168,0.089,0.254,0.087,0.254
		c0,0,0.019,0.059,0.051,0.166c0.033,0.109,0.086,0.264,0.154,0.453c0.14,0.381,0.358,0.908,0.692,1.459
		c0.33,0.557,0.789,1.123,1.355,1.607c0.563,0.49,1.239,0.871,1.898,1.152c0.139,0.064,0.279,0.105,0.411,0.154
		c0.133,0.047,0.26,0.09,0.384,0.123c0.123,0.039,0.241,0.074,0.354,0.107c0.112,0.029,0.221,0.057,0.323,0.082
		c0.413,0.104,0.733,0.184,0.971,0.242c0.477,0.127,0.613,0.244,0.479,0.361c-0.135,0.109-0.54,0.24-1.137,0.295
		c-0.595,0.057-1.385,0.049-2.248-0.133c0.086,0.033-0.392-0.039-1.128-0.322c-0.369-0.135-0.793-0.346-1.236-0.607
		c-0.438-0.27-0.882-0.609-1.29-0.992c-0.82-0.77-1.441-1.723-1.826-2.461c-0.092-0.188-0.174-0.357-0.249-0.51
		c-0.066-0.154-0.125-0.289-0.175-0.4c-0.092-0.223-0.139-0.354-0.139-0.354s-0.039-0.107-0.099-0.311
		c-0.062-0.203-0.148-0.502-0.237-0.883c-0.185-0.762-0.371-1.857-0.446-3.167c-0.043-0.661-0.039-1.383-0.05-2.052
		c-0.014-0.702-0.034-1.463-0.036-2.258c-0.001-0.796,0.014-1.627,0.081-2.491c0.032-0.431,0.08-0.873,0.153-1.327
		c0.031-0.223,0.091-0.461,0.137-0.691c0.025-0.116,0.065-0.239,0.098-0.358c0.039-0.125,0.057-0.225,0.123-0.382
		c0.055-0.146,0.116-0.29,0.178-0.433l0.023-0.053l0.02-0.036l0.037-0.068l0.075-0.136l0.038-0.068l0.019-0.034l0.005-0.009
		c-0.041,0.066,0.061-0.099,0.054-0.086l0.017-0.023l0.135-0.182c0.089-0.126,0.188-0.229,0.286-0.332
		c0.393-0.409,0.812-0.702,1.224-0.953c0.827-0.489,1.646-0.805,2.436-1.074c1.58-0.524,3.055-0.83,4.321-1.077
		c1.269-0.241,2.33-0.405,3.082-0.523C149.69,10.669,150.139,10.599,150.185,10.592z"/>
	<path fill="#41D7F0" d="M156.815,36.115c0,0.117,0,0.158-0.057,0.314c-0.326,1.07-1.176,2.615-2.219,0.08
		c-0.019-0.047-0.089-0.268-0.099-0.379l-0.104-9.699c0-1.625-0.019-3.247-0.001-4.873l0.123-4.889l0.092-3.622l2.065,3.004
		c2.208,3.214,3.853,6.688,5.511,10.053c1.658,3.363,3.353,6.666,5.634,9.465c-0.677,0.121-1.352,0.242-2.028,0.361
		c0.376-1.139,0.668-2.318,0.885-3.523c0,0,0.007-0.027,0.02-0.078c0.01-0.051,0.023-0.129,0.042-0.229
		c0.038-0.201,0.093-0.494,0.163-0.859c0.069-0.367,0.124-0.813,0.203-1.314c0.072-0.504,0.132-1.068,0.198-1.672
		c0.116-1.211,0.202-2.591,0.246-3.99c0.034-1.399,0.036-2.816,0.019-4.101c-0.062-2.178-0.133-3.602-0.119-4.429
		c0.01-0.827,0.099-1.058,0.246-0.847c0.287,0.421,0.827,2.613,1.193,5.337c-0.013-0.288,0.438,2.968,0.467,6.357
		c0.025,1.691-0.057,3.412-0.182,4.711c-0.077,0.648-0.137,1.191-0.193,1.572c-0.063,0.379-0.101,0.598-0.101,0.598
		c-0.2,1.088-0.506,2.168-0.852,3.238l-0.661,2.057l-1.38-1.693c-1.244-1.527-2.31-3.168-3.27-4.84
		c-0.959-1.674-1.817-3.379-2.653-5.074c-1.668-3.388-3.271-6.75-5.34-9.756l2.162-0.62l-0.119,4.809
		c-0.018,1.606,0.003,3.218,0.001,4.827L156.815,36.115z"/>
	<path fill="#41D7F0" d="M89.936,0.384c0.024-0.008,0.033-0.011,0.084,0.031c0.335,0.235,0.949,0.929,0.779,2.079
		c-0.003,0.021-0.025,0.101-0.044,0.119c-0.009,0.003-0.054,0.019-0.127,0.046s-0.193,0.066-0.29,0.114
		c-0.106,0.047-0.236,0.103-0.382,0.167c-0.145,0.077-0.314,0.162-0.488,0.257c-0.337,0.201-0.706,0.458-0.981,0.757l-0.101,0.112
		c-0.036,0.037-0.054,0.076-0.082,0.113c-0.024,0.038-0.059,0.075-0.079,0.113c-0.017,0.037-0.036,0.073-0.055,0.11
		c-0.063,0.141-0.105,0.269-0.092,0.356c0.005,0.091,0.023,0.158,0.071,0.237c0.05,0.077,0.148,0.155,0.265,0.23
		c0.255,0.141,0.619,0.211,0.947,0.208c0.164,0.011,0.326-0.022,0.465-0.028c0.146-0.027,0.271-0.05,0.373-0.07
		c0.21-0.058,0.33-0.091,0.33-0.091s0.021-0.001,0.058-0.005c0.038-0.006,0.094-0.016,0.164-0.027
		c0.072-0.01,0.157-0.023,0.255-0.037c0.098-0.018,0.205-0.045,0.323-0.069c0.119-0.022,0.248-0.051,0.378-0.09
		c0.131-0.038,0.271-0.069,0.412-0.112c0.274-0.092,0.568-0.17,0.834-0.264c0.444-0.16,0.748-0.273,0.967-0.288
		c0.218-0.019,0.336,0.039,0.373,0.159c0.038,0.119-0.007,0.296-0.111,0.51c-0.051,0.106-0.117,0.223-0.198,0.343
		c-0.085,0.115-0.183,0.236-0.289,0.359c0.067-0.021-0.465,0.534-1.138,1c-0.161,0.125-0.346,0.226-0.512,0.332
		c-0.164,0.107-0.333,0.19-0.477,0.264c-0.285,0.153-0.499,0.229-0.499,0.229s-0.043,0.012-0.125,0.035
		c-0.084,0.021-0.202,0.061-0.364,0.087c-0.162,0.025-0.349,0.078-0.584,0.094c-0.116,0.011-0.24,0.022-0.37,0.034
		c-0.133,0.004-0.274,0.001-0.422,0c-0.297-0.01-0.626-0.042-0.979-0.131c-0.174-0.032-0.358-0.11-0.542-0.173
		c-0.092-0.031-0.187-0.085-0.28-0.129c-0.092-0.05-0.188-0.088-0.28-0.155c-0.372-0.226-0.735-0.568-1.007-1.004
		c-0.28-0.435-0.417-0.99-0.406-1.505c-0.005-0.265,0.051-0.504,0.102-0.747c0.076-0.222,0.147-0.456,0.254-0.644
		c0.052-0.097,0.103-0.198,0.157-0.289c0.061-0.085,0.118-0.17,0.177-0.255c0.116-0.176,0.249-0.308,0.374-0.453
		c0.518-0.547,1.059-0.9,1.523-1.181c0.235-0.127,0.453-0.241,0.649-0.34c0.205-0.09,0.386-0.169,0.536-0.235
		c0.157-0.071,0.252-0.099,0.329-0.128C89.885,0.403,89.928,0.387,89.936,0.384z"/>
	<path fill="#41D7F0" d="M140.08,26.027c-0.019,0-0.025,0-0.056-0.055c-0.2-0.322-0.515-1.165-0.161-2.213
		c0.007-0.02,0.039-0.089,0.057-0.102c0.025-0.001,0.516-0.033,1.237-0.08c0.36-0.022,0.776-0.055,1.228-0.076
		c0.456-0.015,0.941-0.029,1.426-0.045c0.483-0.014,0.971-0.036,1.419-0.041c0.445-0.006,0.863-0.01,1.22-0.014
		c0.715-0.007,1.188-0.013,1.188-0.013s0.31,0.059,0.727,0.165c0.417,0.104,0.94,0.255,1.372,0.436
		c1.466,0.503,0.879,1.027-0.027,1.311c0.048,0.026-0.493,0.139-1.046,0.246c-0.554,0.104-1.116,0.209-1.116,0.209
		s-0.461,0.005-1.155,0.014c-0.347,0.004-0.754,0.009-1.188,0.014c-0.429,0.014-0.887,0.027-1.347,0.042
		c-0.458,0.015-0.918,0.03-1.349,0.044c-0.439,0.028-0.852,0.055-1.207,0.077C140.592,25.993,140.107,26.025,140.08,26.027z"/>
</g>
<g>
</g>
<g>
</g>
<g>
</g>
<g>
</g>
<g>
</g>
<g>
</g>
<g>
</g>
<g>
</g>
<g>
</g>
<g>
</g>
<g>
</g>
<g>
</g>
<g>
</g>
<g>
</g>
<g>
</g>
</svg>
