<?xml version="1.0" encoding="utf-8"?>
<!-- Generator: Adobe Illustrator 16.0.3, SVG Export Plug-In . SVG Version: 6.00 Build 0)  -->
<!DOCTYPE svg PUBLIC "-//W3C//DTD SVG 1.1//EN" "http://www.w3.org/Graphics/SVG/1.1/DTD/svg11.dtd">
<svg version="1.1" xmlns="http://www.w3.org/2000/svg" xmlns:xlink="http://www.w3.org/1999/xlink" x="0px" y="0px"
	 width="201.942px" height="258.252px" viewBox="0 0 201.942 258.252" enable-background="new 0 0 201.942 258.252"
	 xml:space="preserve">
<g id="Layer_1">
	<g>
		<g>
			<path fill-rule="evenodd" clip-rule="evenodd" fill="#5AF0FF" d="M55.322,167.248c0.634-1.664-1.842-4.007-1.22-5.697
				c-0.132-4.755-0.818-6.188-0.952-7.614c-0.659-1.821-0.225-4.023-1.12-6.49c1.366-2.957,2.329-2.316,1.478-5.007
				c1.467-3.203,2.859-9.554,5.106-11.257c-0.242-0.703-0.311-1.589,0.012-2.873c0.748-1.453,2.24-1.479,2.949-3.012
				c0.103-5.488,2.271-10.211-0.117-13.237c-1.673,0.27-2.645,0.306-3.586-1.109c0.16-2.583,1.321-3.245,1.976-4.88
				c0.063-2.291-0.511-3.932-0.302-6.367c-0.516-0.909-0.816-2.031-1.706-2.554c-0.251-1.811,0.319-4.461-1.372-4.802
				c0.52-2.44-0.734-3.066-0.47-5.245c-0.156-0.793-0.717-1.176-1.465-1.366c-0.049-0.666-0.504-1.532-0.729-0.684
				c-0.434-0.954-0.324-3.496,0.176-3.997c-2.913-4.499-2.421-12.477-3.935-18.406c0.03-2.187,0.131-2.747,1.077-4.437
				c-0.405-0.738-0.924-3.775-0.233-4.058c-0.177-0.613-0.848-0.72-0.564-1.808c-0.549-1.666-1.399-3.023-1.777-4.865
				c-1.485,0.034-2.767,0.847-2.689-1.548c-0.933,1.82-2.05,3.288-3.523,4.076c-1.239-2.445,2.618-4.215,1.412-6.689
				c-0.115-1.314-2.255-0.56-3.18-1.048c-1.255-0.628-1.903-1.873-1.944-3.738c-1.373-0.506-1.616-2.166-2.437-3.235
				c1.099-10.629,12.14-6.12,13.876-0.813c3.82-1.864,8.791-0.387,9.286,4.83c-0.842,2.479-1.83,4.679-3.043,6.446
				c0.508,3.615,2.316,5.904,4.709,7.597c1.243,2.865,1.745,6.487,2.737,9.604c0.44,0.983,1.195,1.647,2.197,2.052
				c0.407,4.355,2.005,7.494,3.389,10.85c1.186,0.381,1.938,1.203,2.605,2.111c-0.167,1.603,0.399,2.455,0.233,4.059
				c2.258,2.144,4.463,4.348,5.029,8.221c3.09-0.809,5.576-2.784,8.501-3.911c2.824-2.285,5.257-5.323,8.51-6.783
				c2.913-3.563,5.769-7.238,8.69-10.778c3.303,0.802,4.295-2.834,7.436-2.343c1.323-4.206,4.413-5.02,5.905-8.895
				c2.417-0.418,4.361-1.743,5.972-3.713c1.809,0.098,3.284-0.433,4.737-1.02c1.491-0.509,2.008-2.889,3.763-2.889
				c0.104-1.488,0.511-2.397,1.559-2.067c-0.188-1.83-0.026-1.625,1.15-2.128c0.721-1.705,0.228-1.269,0.5-3.375
				c3.504-3.155,5.528-9.143,8.939-12.468c-0.1-1.639,0.793-1.371,0.828-2.752c0.019-0.924,0.527-0.91,0.662-1.626
				c3.867,0.185,4.977,3.184,5.685,6.594c0.007,2.908-1.408,3.079-1.651,5.503c-2.582,2.504-5.538,4.297-6.806,9.336
				c-1.138-0.258-1.26,1.438-1.965,2.007c-4.086,1.307-6.593,5.648-9.014,10.157c-0.287,2.363,1.479,2.622,2.353,3.799
				c-1.229,2.697-3.215,3.943-5.97,3.71c0.229,1.507-1.637,2.498-0.502,3.375c-1.035,0.906-2.266,1.43-3.274,2.386
				c-0.806,1.825-2.147,2.62-2.791,4.76c-1.488,0.509-2.522,1.897-3.438,3.514c-1.542-0.553-1.694,1.565-2.783,1.886
				c-1.109,0.033-1.593,1.269-2.048,2.568c-0.741-0.356-0.844-1.364-1.872-1.428c-1.558,2.065-3.483,3.431-4.025,7.45
				c-1.91,0.667-2.75,3.397-4.748,3.891c-0.211,2.488-1.597,2.721-1.976,4.881c-0.99,0.506-1.634,1.681-2.781,1.887
				c-0.261,1.904-1.312,2.298-2.132,3.131c-1.105,0.284-1.105,2.694-2.458,2.508c0.394,2.045-1.143,3.187-1.976,4.881
				c-0.572,1.541,0.36,1.543-0.011,2.873c-0.536,2.341-2.251,2.422-3.438,3.512c-0.484,1.068-0.781,3.629-1.558,2.069
				c-0.139,0.936-0.278,1.874-0.419,2.811c-0.382,1.819,1.405,1.427,1.214,3.054c-1.025,0.186,0.707,0.67,0.867,1.209
				c0.484,2.211,2.401-0.458,2.964,1.412c1.317,4.379-0.485,12.98-1.779,17.229c-0.208,4.667,0.691,8.199,1.099,12.234
				c0.403,1.18,2.81,10.913,1.67,12.308c-0.675,0.826,0.728,7.547,2.814,21.167c0.32,2.101,0.182,2.875-0.368,5.122
				c-0.899,3.679-3.046,6.528-4.095,15.638c0.274-2.384-1.053,3.375-1.134,7.001c-0.188,2.356-0.732,6.214-0.156,7.834
				c0.509,1.425,1.673,3.319,2.856,4.091c0.67,0.438,1.169,2.563,0.811,4.36c-0.95-0.139-3.025-2.793-3.976-2.932
				c-1.091-1.749-1.118-0.465-3.55-4.632c-0.772-1.323-2.16,3.547-4.246,2.432c0.137-1.836,3.211-5.905,3.262-8.766
				c0.132-7.545,0.771-21.052,1.371-23.509c0,0,0.787-0.887,0.675-1.329c-0.126-0.499-3.571-13.749-3.571-13.749
				c-1.481,0.04-15.571-0.601-15.333-2.593c-1.997-0.708,0.199-2.533-1.363-2.402c-1.387,3.724-3.431-3.925-5.626,0.308"/>
			<path fill-rule="evenodd" clip-rule="evenodd" fill="#5AF0FF" d="M54.029,172.737c4.184-1.743-0.891-8.144-0.891-8.144
				c-1.099-2.24-6.026-4.241-7.456-11.92c-0.717-3.856-5.368-9.951-5.368-9.951c-4.434,0.722-11.63,2.053-22.035,1.349
				c-1.125-0.075-3.644,0.784-4.856,0.704c-0.727-0.047,0.968-1.602,0.207-1.648c-2.258-0.14-4.455,1.05-7.013,0.927
				c0,0-2.32-4.283,7.576-3.995c0.674,0.021,10.826,0.339,28.875-4.15c0.05,0.075-0.346,0.411-0.168,0.574l8.23,5.075
				c1.397,3.031,10.378,12.388,7.566,20.424l7.296,7.006l-3.618,13.245"/>
		</g>
		<path fill="#5AF0FF" d="M64.62,187.865c-0.949,6.571-6.476,11.211-12.346,10.364c-5.875-0.848-9.865-6.864-8.916-13.437
			c0.95-6.572,6.478-11.211,12.349-10.364C61.579,175.277,65.57,181.293,64.62,187.865"/>
	</g>
	<path fill-rule="evenodd" clip-rule="evenodd" fill="#231F20" d="M22.591,142.736c0.187,0.014-0.004,0.146,0.109,0.16
		c-0.003,0.16-0.32,0.148-0.27-0.051C22.522,142.848,22.568,142.805,22.591,142.736"/>
	<g>
		<g>
			<path fill="#002A96" d="M52.025,57.369c0.013,0.38-0.184,3.709,0.016,1.905c-0.131,1.174-0.507,2.305-0.594,3.488
				c-0.092,1.27-0.118,2.551-0.077,3.825c0.105,3.206,0.778,6.574,1.055,9.796c0.255,2.957,1.733,5.752,1.75,8.734
				c0.006-0.864,0.014-1.728,0.022-2.592c-0.176,1.647-0.415,3.457-0.204,5.115c0.159,1.264,0.872,1.772,1.771,2.583
				c0.686,0.616,0.823,2.65,0.744,3.121c-0.054,0.338-0.22,2.936-0.011,3.037c1.145,0.552,1.247,2.385,1.451,3.485
				c0.283,1.523,0.853,2.89,1.206,4.387c0.687,2.924-1.809,5.5-1.821,8.432c-0.009,2.372,0.447,3.759,3.251,3.446
				c2.691-0.299,5.639,0.823,8.107,1.738c5.659,2.095,10.93,5.144,16.223,8.002c0.991,0.537,2.572,1.75,3.766,1.72
				c0.222-0.005,0.223-2.941,0.056-3.324c0.367,0.842-0.383,2.179-0.01,3.037c0.03,0.054,0.05,0.111,0.055,0.173
				c0.006-1.012,0.009-2.025,0.014-3.037c-0.081,0.477-3.61-1.467-3.868-1.605c-3.016-1.62-6.008-3.28-9.068-4.816
				c-3.317-1.662-6.727-3.2-10.298-4.231c-1.488-0.429-3.022-0.708-4.572-0.71c-1.537-0.003-3.57,0.294-3.631-1.857
				c-0.004,0.994-0.012,1.988-0.015,2.983c0.399-2.192,1.795-3.931,1.966-6.249c0.103-1.434,0.102-2.878,0.084-4.315
				c-0.024-1.865-0.615-3.388-1.103-5.146c-0.401-1.432-0.227-4.399-1.782-5.15l-0.011,3.037c0.266-1.606,0.201-3.371,0.12-4.992
				c-0.067-1.334-0.144-2.716-0.667-3.961c-0.512-1.211-1.752-1.297-1.946-2.826c-0.001,0.944-0.003,1.886-0.003,2.83
				c0.07-2.568,0.392-4.983-0.103-7.545c-0.423-2.199-1.185-4.31-1.459-6.541c-0.402-3.253-0.437-6.511-1.052-9.743
				c-0.003,0.995-0.006,1.989-0.008,2.984c0.159-2.184,0.75-4.271,0.773-6.467c0.019-1.895-0.04-3.786-0.106-5.68
				C52.07,55.156,51.993,56.454,52.025,57.369"/>
			<path fill="#002A96" d="M60.043,52.627c-0.808-1.652-3.306-4.28-2.164-6.026c1.607-2.461,3.746-6.267,1.686-9.011
				c-0.648-0.865-2.214-1.449-3.144-1.959c-1.643-0.902-3.552,0.564-5.165,0.212c0.868,0.519,1.738,1.038,2.607,1.557
				c-1.059-0.772-1.649-2.22-2.615-3.152c-0.4-0.386-0.877-0.687-1.351-0.975c-1.021-0.625-2.043-1.27-3.125-1.792
				c-2.526-1.222-5.778-2.189-8.594-1.724c-4.385,0.725-0.973,6.336,0.286,8.285c0.735,1.136,1.507,2.299,1.748,3.659
				c0.188,1.07,0.914,1.738,1.778,2.26c0.593,0.358,1.186,0.716,1.787,1.061c1.013,0.581,2.134,0.412,3.2,0.833
				c-0.87-0.519-1.738-1.039-2.606-1.557c2.122,1.662-1.808,5.114-1.178,7.31c0.208,0.725,2.409,0.863,2.607,1.557
				c-0.628-2.196,3.301-5.649,1.177-7.31c-0.588-0.46-1.312-0.805-1.955-1.183c-1.18-0.694-2.468-0.545-3.672-1.108
				c0.87,0.52,1.739,1.039,2.609,1.558c-1.014-1.016-1.254-2.057-1.303-3.466c0.016,0.504-1.255-1.297-1.301-1.371
				c-0.388-0.621-0.704-1.338-1.093-1.976c-0.916-1.503-1.917-3.412-1.602-5.232c0.457-2.62,4.633-1.87,6.346-1.509
				c1.307,0.277,2.587,0.71,3.821,1.223c0.337,0.139,0.667,0.298,0.992,0.465c-3.726-1.907-1.576-0.949-0.556,0.034
				c0.783,0.756,1.117,1.989,2.037,2.585c0.717,0.464,1.729,1.343,2.563,1.525c1.514,0.331,3.52-1.158,5.04-0.275
				c-0.74-0.447-1.481-0.892-2.219-1.339c2.566,2.297,0.291,6.16-0.972,8.51c-0.844,1.575-0.978,1.753-0.176,3.367
				c0.582,1.165,1.328,2.238,1.901,3.407C57.813,51.843,59.676,51.877,60.043,52.627"/>
			<path fill="#002A96" d="M124.363,53.287c-3.542,3.375-9.188,2.886-12.18,7.271c-2.756,4.04-5.856,7.501-10.368,9.513
				c-1.162,0.518-2.003,0.51-3.034,1.411c-1.236,1.079-2.126,2.639-3.121,3.929c-2.062,2.672-4.577,4.969-7.102,7.191
				c-2.522,2.221-4.883,4.523-7.904,6.056c-0.708,0.36-4.61,2.981-5.359,1.856c0.758,1.193,1.517,2.388,2.277,3.582
				c-2.024-4.083-3.936-7.857-7.116-11.215c0.818,1.279,1.636,2.558,2.455,3.838c0.229-2.254-0.082-3.89-1.271-5.77
				c-1.011-1.604-1.86-3.466-3.666-4.271c0.819,1.28,1.638,2.558,2.455,3.838c-1.243-3.675-1.571-7.855-3.635-11.206
				c-0.816-1.325-1.651-2.64-2.535-3.92c-1.391-2.018,2.227,4.259,0.857,1.235c-0.422-0.931-0.765-1.899-1.107-2.861
				c-1.152-3.223-1.689-6.222-3.544-9.106c-0.795-1.235-1.218-2.035-2.772-2.274c-1.292-0.199-3.284,0.383-4.354-0.524
				c1.099,0.931,1.34,2.893,2.454,3.837c1.665,1.414,4.684-0.52,6.206,1.403l-2.453-3.839c1.1,2.946,1.705,6.063,2.892,9.003
				c0.904,2.235,2.316,4.284,3.683,6.256c1.063,1.534-1.811-3.463-0.857-1.217c0.356,0.838,0.599,1.727,0.853,2.599
				c0.594,2.054,1.031,4.149,1.661,6.194c0.341,1.104,1.112,2.061,1.731,3.024c0.81,1.258,1.83,1.645,2.723,2.789
				c-0.805-1.255-1.61-2.51-2.414-3.766c0.444,0.799,0.598,1.46,0.719,2.338c0.078,0.569-0.293,2.044-0.042,2.471
				c0.644,1.092,1.349,2.153,2.043,3.213c0.308,0.473,0.529,0.72,0.945,1.16c0.389,0.411,0.763,0.833,1.125,1.268
				c-0.629-1.049-0.716-1.1-0.263-0.154c0.42,0.982,0.794,1.878,1.365,2.78c0.647,1.027,1.288,2.064,1.98,3.063
				c0.564,0.812,1.775,0.006,2.395-0.295c2.089-1.013,4.215-1.98,6.111-3.334c1.94-1.387,3.688-3.22,5.479-4.797
				c1.822-1.603,3.552-3.289,5.174-5.094c1.56-1.739,2.781-3.746,4.385-5.442c1.293-1.365,3.344-1.422,4.881-2.475
				c1.108-0.759,2.498-1.201,3.459-2.15c2.686-2.656,4.365-6.42,7.421-8.693c3.01-2.236,7.108-2.291,9.822-4.877
				C127.052,56.901,124.179,53.462,124.363,53.287"/>
			<path fill="#002A96" d="M134.54,56.98c2.807-2.17,4.016-5.658,6.084-8.472c1.893-2.573,4.351-4.149,5.585-7.236
				c0.848-2.119,0.727-4.834,0.905-7.064c0.193-2.417-1.143-4.942-2.93-6.499c-0.479-0.416-1.068-0.654-1.646-0.88
				c-0.924-0.36-1.187-0.458-1.436,0.532c-0.396,1.573-1.273,3.053-2.157,4.392c-1.837,2.784-3.606,5.619-5.449,8.403
				c-0.898,1.356-2.482,2.486-2.775,4.062c-0.253,1.361-0.702,2.658-0.873,4.037c-0.244,1.972-0.461,3.982-0.469,5.971
				c0.16-1.778,0.32-3.557,0.481-5.335c-0.238,0.047-0.477,0.094-0.716,0.141c-0.53,0.105-0.027,5.246-0.481,5.335
				c0.239-0.047,0.478-0.093,0.716-0.141c0.286-0.056,0.479-4.772,0.481-5.335c0-0.244,0-0.487,0.002-0.731
				c-0.155,1.747-0.311,3.494-0.466,5.241c0.202-1.629,0.72-3.198,1.023-4.809c0.133-0.718,2.105-2.406,2.594-3.101
				c1.798-2.557,3.156-5.381,5.057-7.872c0.795-1.041,1.41-2.163,1.965-3.346c0.354-0.752,0.576-1.542,0.778-2.344
				c0.048-0.19,1.698,0.413,1.823,0.462c2.5,0.976,3.575,3.983,4.047,6.37c0.033-0.442,0.063-0.884,0.097-1.324
				c-0.024,0.29-0.05,0.581-0.075,0.872c0.13-1.338,0.258-2.676,0.388-4.013c-0.705,3.648-3.103,5.663-5.482,8.266
				c-2.567,2.81-3.528,6.717-6.59,9.083c-0.313,0.243-0.233,2.3-0.265,2.666C134.725,54.64,134.806,56.776,134.54,56.98"/>
			<path fill="#002A96" d="M81.48,123.49c1.213,0.458,2.124,0.209,3.417,0.179c1.148-0.026,2.2-1.712,2.843-2.5
				c1.228-1.504,2.184-3.118,2.244-5.082c0.051-1.744,1.606-3.83,2.499-5.251c1.032-1.643,2.642-2.883,3.73-4.513
				c0.676-1.011,1.499-1.854,2.326-2.739c1.048-1.123,1.65-2.55,2.45-3.844c1.161-1.884,3.091-4.384,5.064-5.382
				c0.114-0.058,0.521-2.093,0.6-2.328c0.26-0.775,0.698-1.483,1.106-2.184c0.49-0.837,1.05-1.822,2.036-2.099
				c-0.809,0.012-1.619,0.026-2.428,0.038c0.11-0.001,0.22-0.001,0.329-0.002c-0.811-0.002-1.618-0.006-2.429-0.01
				c0.615,0.131,1.14,0.4,1.694,0.689c0.387,0.2,4.767,0.18,4.859-0.029c1.512-3.427,4.989-4.727,7.304-7.467
				c1.436-1.701,2.565-3.635,4.049-5.296c0.759-0.849,2.667-1.414,2.578-2.707c-0.098-1.453,1.102-2.494,2.279-3.045
				c1.55-0.723,2.742-1.16,3.783-2.612c0.781-1.086-1.141-2.953-1.287-4.359c-0.167-1.614,1.349-3.399,2.168-4.626
				c-0.486,0.729-4.342-0.75-4.86,0.029c-0.87,1.305-1.837,2.616-2.146,4.182c-0.284,1.445,0.935,2.965,1.661,4.074
				c0.677,1.032-3.1,2.911-3.709,3.15c-1.437,0.568-2.379,1.331-2.736,2.899c-0.326,1.425-0.874,1.59-2.127,2.603
				c-1.624,1.313-2.735,3.416-3.981,5.065c-2.335,3.09-6.228,4.491-7.835,8.139c1.621-0.01,3.241-0.019,4.859-0.029
				c-1.536-0.798-2.738-0.708-4.454-0.696c-2.372,0.017-3.122-0.003-4.465,2.138c-0.733,1.168-1.219,2.377-1.561,3.707
				c-0.306,1.193-1.944,2.22-2.842,3.261c-1.839,2.132-3.023,4.651-4.821,6.772c-2.876,3.391-6.024,6.626-7.941,10.688
				c-0.862,1.827-0.725,3.649-1.815,5.442c-0.763,1.257-1.327,3.1-2.755,3.698c1.62-0.01,2.441,0.222,4.062,0.213
				c-0.021-0.008-0.042-0.016-0.062-0.024c-1.426-0.538-1.694,0.464-3.094-0.064"/>
			<path fill="#002A96" d="M89.311,146.055c0.739-4.373,2.73-8.134,1.81-12.429c-0.258-1.196-1.887-7.859-3.315-7.74
				c-7.227,0.599-17.244,1.554-24.317-0.375c0.413,0.112,0.132,2.856,0.586,2.98c5.082,1.386,10.744,1.017,15.953,0.81
				c2.061-0.082,5.895-0.244,7.952-0.403c1.378-0.107,1.572,1.583,2.089,2.751c0.659,1.483-0.487,3.013-0.492,4.652
				c-0.008,2.261-0.476,4.554-0.851,6.773c-0.758,4.49-0.894,8.64-0.398,13.167c0.121,1.097,0.288,2.188,0.477,3.275
				c-0.093-1.198-0.1-2.333-0.165-3.015C88.307,152.953,88.722,149.553,89.311,146.055"/>
			<path fill="#002A96" d="M94.076,192.137c-0.444-3.269-3.763-17.263-3.883-18.125c-0.018-0.136,0.289-0.629,0.27-0.765
				c-0.234-1.757,1.41-4.329,1.071-6.07c-0.124-0.64-0.159-2.654-0.897-2.959c-0.547-0.226-0.929-0.754-1.203-1.437
				c0.031,0.146,0.06,0.295,0.09,0.443c0.242,1.163,0.535,2.319,0.979,3.424c0.205,0.507,0.633,0.486,0.926,0.783
				c0.231,1.718-1.363,4.246-1.095,5.96c0.017,0.119-0.326,0.523-0.307,0.644c0.572,3.656,1.991,12.945,2.491,16.613
				c0.13,0.961,0.218,0.468,0.487,2.38c0.209,1.494-0.329,3.274-0.579,4.733c-0.498,2.886-4.314,16.484-5.081,22.604
				c-0.202,1.612-0.475,3.36-0.186,4.977c0.164,0.913,0.344,1.824,0.539,2.731c0.172,0.798,0.698,1.444,0.976,2.213
				c0.014,0.075,0.024,0.134,0.031,0.162c0.094,0.477,0.182,0.958,0.292,1.434c0.15,0.638,0.514,1.116,0.948,1.543
				c-1.185-0.296-2.586-0.885-3.037-1.126c-1.734-0.929-1.816-2.966-2.601-4.562c-0.713-1.453-1.615-0.636-2.355,0.268
				c0.773-1.66,1.107-3.443,1.498-5.309c0.715-3.415,0.861-7.8,0.429-11.609c-0.489-4.31-0.002-7.048-0.004-7.053
				c-0.037-0.23,1.275-5.912,1.23-6.14c0.37,1.915-2.289-7.808-3.709-11.827c0.187,0.528,0.288,3.159,0.619,4.565
				c0.187,0.791,2.035,6.288,2.488,6.926c0.009,0.113-1.627,7.412-1.472,9.65c0.186,2.656,0.168,5.361,0,8.027
				c-0.144,2.332-0.007,4.673-0.484,6.966c-0.69,3.33-3.266,6.579-5.25,9.247c-0.119,0.158,0.455,2.935,0.586,2.98
				c1.999,0.688,4.306-3.001,5.4-4.256c1.125-1.29,2.003,1.384,2.244,2.088c0.528,1.554,0.959,2.479,2.484,3.295
				c1.167,0.623,2.583,0.821,3.87,1.043c0.881,0.149,0.323-1.311,0.204-1.918c-0.091-0.46-0.163-0.918-0.283-1.358
				c-0.009-0.043-0.018-0.085-0.027-0.128c0,0.005-0.004,0.01-0.005,0.017c-0.093-0.313-0.214-0.618-0.389-0.904
				c-0.803-1.315-2.379-1.744-2.923-3.281c-0.201-0.872-0.452-1.724-0.804-2.57c0.008-0.183,0.019-0.367,0.027-0.55
				c0.065-1.138,0.21-2.273,0.359-3.402c0.809-6.193,2.092-12.332,3.269-18.463c0.738-3.821,1.873-4.077,2.288-7.996
				C93.709,194.989,94.131,192.551,94.076,192.137 M87.644,227.055c-0.003-0.167,0.002-0.334,0.008-0.501
				C88.025,227.779,87.658,228.21,87.644,227.055 M87.241,225.552c0.069,0.136,0.128,0.264,0.183,0.389
				C87.363,225.812,87.308,225.682,87.241,225.552"/>
			<path fill="#002A96" d="M64.596,183.205c0.999-1.25,2.08-1.194,3.36-0.352c0.781,0.515,1.349,1.36,1.88,2.104
				c0.253,0.352,2.557,0.776,3.059,0.964c1.725,0.639,3.131,0.449,4.887,0.583c1.256,0.095,2.741,0.536,3.808-0.337
				c1.248-1.023,1.631-6.311,2.448-7.34c0.882-1.108,3.468-5.304,5.134-5.243c0.528,0.02,1.134-2.586,1.621-2.568
				c-1.564-0.057-3.911,3.735-4.749,4.764c-1.485,1.831-4.752,4.816-5.246,7.162c-0.361,1.71-7.062,0.7-8.179,0.369
				c-1.014-0.299-1.99-0.726-3.004-1.039c-1.084-0.335-1.396-1.067-2.19-1.883c-1.21-1.244-2.725-1.438-3.836-0.049
				C63.242,180.774,64.917,182.803,64.596,183.205"/>
			<path fill="#002A96" d="M54.284,170.687l-0.255,2.052l-8.81,2.049c-0.41,0.137-0.854,0.293-1.138,0.411
				c-0.129,0.017-0.447-0.021-0.664-0.078l-1.212-0.334l-1.028,2.984l0.041,0.529c-0.053,0.02-0.097,0.031-0.137,0.04
				c-0.988-0.228-1.829,0.307-2.208,0.931l-0.239,0.395l0.053,0.457c0.017,0.143,0.107,0.885,0.214,1.319l0.05,0.201l-1.052,0.035
				l-0.269,0.144c-0.27,0.142-1.158,0.679-1.348,1.657c-0.11,0.571,0.048,1.146,0.447,1.618c0.544,0.642,1.958,1.769,2.547,2.227
				l0.007,0.014c-0.245,0.094-0.545,0.191-0.906,0.28c-0.825,0.201-1.963,0.586-2.321,1.594c-0.224,0.626-0.035,1.207,0.217,1.542
				l0.4,0.531l2.184,0.009l0.674,0.942c0.154,0.217,0.328,0.456,0.5,0.685c-0.48,0.314-0.735,0.867-0.618,1.445
				c0.302,1.494,2.167,1.188,2.781,1.087c0.142-0.023,0.283-0.043,0.42-0.061c-0.087,0.342-0.048,0.705,0.13,1.028
				c0.377,0.677,0.974,0.897,2.498,0.733c-0.048,0.122-0.083,0.216-0.098,0.257l-0.193,0.535l0.25,0.513
				c0.404,0.817,0.999,1.258,1.681,1.239c0.583-0.017,1.095-0.378,1.325-0.917c0.068-0.135,0.247-0.376,0.452-0.63
				c-0.025,0.485-0.011,0.989,0.1,1.445c0.233,0.956,0.912,1.203,1.192,1.266c0.455,0.1,0.831-0.015,1.137-0.206
				c0.723,0.914,1.834,1.908,3.206,1.365c0.022-0.008,0.044-0.018,0.065-0.025c1.688-0.726,1.992-3.153,2.045-3.787
				c0.432,0.07,0.949,0.155,1.431,0.236l0.946,0.155l1.666-3.09c0.755,0.369,1.7,0.585,2.719,0.336
				c1.516-0.372,3.439-1.623,3.101-3.003c-0.184-0.747-0.92-1.187-1.656-1.007c-0.086,0.018-0.217,0.036-0.37,0.052
				c-0.049-0.603-0.307-1.128-0.471-1.459c-0.046-0.095-0.109-0.224-0.15-0.318c0.095-0.236,0.306-0.659,0.469-0.986
				c0.789-1.577,1.766-3.531,1.267-5.135c0.235-1.324,4.088-4.922,5.283-4.9c0,0-0.021,0-0.062-0.01l0.707-2.581
				c-2.41-0.659-5.778,2.838-6.43,3.546c-1.797,1.956-2.488,3.548-2.053,4.735c0.198,0.545-0.746,2.436-1.104,3.149
				c-0.468,0.936-0.777,1.554-0.78,2.143c-0.002,0.614,0.251,1.131,0.455,1.543c0.054,0.109,0.129,0.26,0.172,0.366
				c-0.205,0.303-0.294,0.605-0.307,0.888c-0.155-0.119-0.248-0.217-0.248-0.217l-1.27-1.428l-2.385,4.425
				c-0.694-0.111-1.458-0.232-1.68-0.252c-1.573-0.121-1.824,1.844-1.907,2.486l-0.005,0.074c-0.037,0.472-0.174,1.023-0.303,1.341
				c-0.188-0.201-0.434-0.531-0.737-0.981c-0.187-0.283-0.312-0.471-0.481-0.626c-0.223-0.206-0.504-0.333-0.802-0.368
				c0.059-0.547,0.098-0.988,0-1.384c-0.159-0.657-0.73-1.693-2.778-1.202c-0.182,0.046-0.369,0.137-0.561,0.262l-0.242-0.992
				l-1.241,0.23c-0.301,0.056-0.615,0.106-0.912,0.149c0.008-0.229-0.002-0.418-0.009-0.53l-0.092-1.204l-1.207-0.032
				c-0.034-0.001-0.541-0.014-1.259,0.037c-0.071-0.249-0.209-0.473-0.4-0.649c-0.038-0.039-0.106-0.121-0.191-0.229
				c0.316-0.575,0.36-1.285,0.387-1.719l0.016-0.238c0.041-0.5-0.166-0.987-0.559-1.297c-0.009-0.01-0.021-0.019-0.032-0.026
				l0.476-0.489l-1.509-2.498l-0.199-0.152c-0.384-0.297-0.884-0.694-1.328-1.067l2.552-0.09l-0.788-3.226
				c0.62-0.112,1.25-0.405,1.741-0.688l0.736-0.419l-0.133-1.75l0.085-0.244c0.371,0.001,0.771-0.05,1.129-0.204
				c0.35-0.154,1.356-0.479,1.906-0.651L48,176.709l-0.055-1.026c0.005-0.002,0.009-0.002,0.014-0.003
				c0.892-0.125,7.478-1.522,7.643-1.902l1.737-3.366"/>
			<path fill="#002A96" d="M55.322,167.248c0.668-0.672-3.655-4.368-5.547-6.727c-1.341-1.669-8.94-18.161-8.94-18.161
				c-0.507,0.917-8.91,1.704-8.91,1.704c5.418,0.405,9.079,1.663,9.293,1.779c0.804,3.884,6.153,13.564,7.925,17.161l1.924,1.366"/>
			<path fill="#002A96" d="M28.15,138.229c-2.759,0.31-3.919,1.54-6.702,1.32c-4.23-0.334-6.605-1.663-10.75-0.024
				c-1.72,0.681-7.996,2.245-4.222,4.667c0.574,0.368,2.339,0.026,2.995-0.038c1.198-0.119,2.396-0.238,3.596-0.358
				c-1.071,0.515-2.156,1.4-1.723,1.555c1.283,0.461,1.945,0.081,3.19-0.282c0.479-0.141,0.953-0.313,1.422-0.494
				c1.056-0.142,2.062-0.012,3.066,0.388c1.03,0.413,4.755-1.197,5.743-0.804c-1.288-0.514-5.844-0.901-6.044-0.82
				c-0.065,0.013-0.163,0.038-0.312,0.082c-1.442,0.421-2.995,0.826-4.501,0.873c-0.429,0.014-0.431-0.163-0.154-0.413
				c0.102-0.091,0.205-0.175,0.305-0.253c-0.217,0.047-0.453,0.095-0.715,0.142c0.323-0.059,0.64-0.177,0.953-0.316
				c0.134-0.092,0.264-0.171,0.389-0.239l0.446-0.186c0.049-0.027,0.099-0.054,0.148-0.081c0.062-0.022,0.121-0.039,0.177-0.055
				l2.095-0.867c-0.275,0.049-0.547,0.123-0.821,0.209c0.271-0.102,0.545-0.183,0.821-0.209c-2.065,0.205-4.131,0.41-6.195,0.615
				c-1.485,0.147-5.105,0.601-4.587-0.463c3.45-0.39,3.785-1.603,11.016-1.842c21.622-0.713,24.406-4.584,25.54-4.271
				C41.225,135.482,30.272,137.991,28.15,138.229"/>
			<path fill="#002A96" d="M52.294,143.959c-0.661-0.961,0.389-1.186-0.362-2.4c-0.659-1.068-5.874-4.904-7.254-5.54
				c-1.238-0.573-0.994-0.715-2.221-0.16c-0.097,0.044-0.16,0.682-0.086,0.645c0.258,0.577,2.034,0.267,2.497,0.694
				c4.911,4.554,7.228,7.657,7.958,8.334"/>
			<path fill="#002A96" d="M55.442,157.24c0.074,0.022,0.75-2.203,0.767-2.164c-0.024-0.063-0.22-0.455-0.308-0.759
				c0.166-0.011,0.285-0.034,0.328-0.075c0.463-0.46-0.816-3.758-0.946-4.468c-0.379-2.055-0.685-4.225-0.256-6.257
				c0.315-1.488,4.283-10.923,4.166-12.307c-0.178-2.116,1.41-2.724,2.65-4.014c1.122-1.17,0.837-3.688,1.04-5.167
				c0.324-2.354,1-4.168-0.018-6.456c-0.268-0.6-2.678-0.226-2.933-0.795c0.864,1.935,0.592,3.566,0.184,5.584
				c-0.371,1.832-0.241,3.753-0.896,5.518c-0.669,1.802-2.681,1.873-2.954,4.111c-0.167,1.36-4.122,15.603-3.907,17.705
				c0.065,0.619,1.254,2.938,1.492,4.274"/>
		</g>
		<path fill="#002A96" d="M47.139,49.648c-0.051,1.391,0.434,1.747,1.733,1.665c1.35-0.086,1.449,2.34,1.749,3.204
			c-0.053-0.151,0.747-1.133,0.834-1.269c0.097-0.152,0.872-1.101,0.809-1.286c-0.332-0.953-0.342-2.884-1.532-3.187
			c-0.476-0.121-0.944,0.108-1.427-0.079c-0.584-0.227-0.541-1.112-0.524-1.603c-0.01,0.314-0.668,1.012-0.834,1.271
			C47.769,48.639,47.149,49.304,47.139,49.648"/>
	</g>
	<path fill="#6D0212" d="M89.434,162.78c-0.224-1.086-0.437-2.172-0.629-3.264C88.895,160.664,89.066,161.862,89.434,162.78"/>
	<g>
		<path fill="#2B66FF" d="M42.192,81.939c0,0,71.312,40.094,77.755,8.561c6.445-31.532-14.36-80.196-14.36-80.196
			s68.636,123.854,3.576,112.543C70.618,116.146,42.192,81.939,42.192,81.939"/>
		<path fill="#2B66FF" d="M101.081,85.611c-0.827,6.027,2.658,11.483,7.786,12.188c5.129,0.704,9.957-3.61,10.784-9.638
			c0.828-6.027-2.658-11.484-7.785-12.188C106.736,75.27,101.908,79.584,101.081,85.611"/>
		<path fill="#2B66FF" d="M130.181,246.944c0,0-39.747-114.146-13.601-126.201c26.15-12.054,54.872-11.24,77.601-58.81
			c0,0,15.651,40.562-68.632,76.314C103.258,147.703,130.181,246.944,130.181,246.944"/>
	</g>
	<g>
		<path fill="#002A96" d="M131.263,230.369c0.892-0.382,2.872-1.203,3.752-0.472c-1.103-0.966-2.203-1.929-3.307-2.896
			c1.107,1.873-1.052,4.07-1.841,5.584c-2.42,4.632-2.296,9.094-2.811,14.091c-0.095,0.93,3.648,2.226,3.56,3.099
			c0.372-3.627,0.229-7.056,1.315-10.606c0.561-1.828,1.463-3.668,2.521-5.267c0.335-0.507,0.696-0.869,0.86-1.468
			c0.7-2.562-1.307-3.482-3.073-4.991c-1.412-1.205-2.887-0.878-4.535-0.172C128.304,227.015,130.605,230.649,131.263,230.369"/>
		<path fill="#002A96" d="M102.477,9.586c0.773,2.681,2.584,4.947,3.289,7.641c-0.254-1.524-0.507-3.048-0.759-4.572
			c0.427,3.1-4.008-0.071-4.84-0.715c-0.326-0.251-0.962-0.975-0.849-0.204c0.21,1.43,0.283,3.063,0.759,4.431
			c0.512,1.471,2.004,2.943,2.9,4.176c1.789,2.467,3.571,4.939,5.235,7.492c0.726,1.109,1.421,2.241,2.028,3.42
			c1.177,2.289-0.642,1.545-0.26-3.343c-0.118,1.53,0.886,3.142,0.767,4.655c0.155-1.998-0.557-4.63-1.522-6.442
			c-1.345-2.525-3.044-4.878-4.687-7.212c-1.232-1.747-2.507-3.463-3.754-5.198c-0.5-0.696-1.22-1.473-1.508-2.298
			c0.256,1.551,0.512,3.103,0.766,4.655c0.005-0.051,1.931,1.305,2.135,1.451c0.818,0.577,3.105,2.047,3.626,0.414
			c0.424-1.324-0.465-4.067-0.806-5.366c-0.703-2.693-2.514-4.959-3.289-7.641C102.141,6.425,102.041,8.082,102.477,9.586"/>
		<path fill="#002A96" d="M111.746,39.019c1.826-0.004,3.409-1.063,4.616-2.341c0.27-0.284,2.765-3.256,2.606-3.721
			c0.417,1.221,0.829,2.444,1.241,3.668c2.308,6.858,4.561,13.736,6.759,20.632c2.613,8.209,5.385,16.786,7.455,24.928
			c0.681,2.675,1.348,5.416,1.597,8.172c0.222,2.467-1.32,4.707-1.731,7.152c-0.624,3.723-0.74,7.593-0.673,11.364
			c0.028,1.537,1.158,3.047,1.187,4.567c-0.067-3.593,0.104-7.215,0.585-10.776c0.261-1.942,0.629-4.032,1.681-5.719
			c0.298-0.479,0.186-1.289,0.154-1.815c-0.37-6.087-2.538-12.322-4.138-18.156c-4.185-15.245-9.137-30.288-14.179-45.267
			c-0.372-1.105-0.746-2.212-1.126-3.317c0.134,0.385-1.911,2.786-2.102,3.067c-1.128,1.647-3.058,2.991-5.118,2.995
			C110.918,34.451,111.319,39.019,111.746,39.019"/>
		<path fill="#002A96" d="M120.463,122.013c10.08-2.323,19.948-6.527,29.022-11.405c8.199-4.408,15.875-9.845,22.455-16.447
			c1.684-1.69,3.262-3.485,4.766-5.336c0.763-0.936,1.479-1.903,2.187-2.879c0.426-0.589,0.833-1.192,1.239-1.796
			c0.635-0.942,0.517-0.414,0.926,0.33c1.719,3.103,3.246,6.325,4.758,9.533c-0.623-1.319,0.249-3.36-0.384-4.703
			c-1.432-3.032-2.902-6.05-4.475-9.012c-0.182-0.339-0.366-0.675-0.555-1.011c-0.492-0.891-0.706,0.237-1.063,0.764
			c-0.674,1.004-1.394,1.974-2.126,2.936c-1.591,2.095-3.343,4.065-5.16,5.963c-6.466,6.74-14.24,12.155-22.395,16.65
			c-9.185,5.066-19.318,9.346-29.581,11.71C119.824,117.368,120.65,121.97,120.463,122.013"/>
		<path fill="#002A96" d="M136.029,130.262c-3.386,2.5-6.099,6.081-8.215,9.668c-4.112,6.978-5.092,15.098-5.343,23.006
			c-0.246,7.693,0.379,15.179,0.381,22.873c0.002,2.472,0.039,4.989-0.308,7.442c-0.118,0.824-0.387,1.407-0.406,2.261
			c-0.017,0.838,0.156,3.071-0.688,3.658c1.396-0.729,2.79-1.453,4.187-2.181c-0.576,0.082-0.919-1.061-1.064-1.479
			c0.104,0.3-4.22,1.726-4.186,2.18c0.701,9.641,4.915,19.726,11.822,26.494c0.343-0.186,0.685-0.372,1.027-0.557
			c-3.765,1.996-7.881,4.034-10.713,7.312c-1.919,2.221-2.043,1.44,2.36-0.332c-1.039,0.419-2.432,0.211-3.51,0.171
			c-0.713-0.025-2.863,0.183-3.071-0.474c-0.224-0.716-0.431-1.437-0.636-2.157c-0.499-1.764-0.942-3.543-1.368-5.324
			c-1.106-4.609-2.034-9.261-2.881-13.924c-2.09-11.497-3.585-23.122-4.336-34.785c-0.689-10.702-0.874-21.76,1.352-32.308
			c-0.201,0.951-3.973,1.177-4.185,2.181c-2.331,11.044-2.01,22.607-1.254,33.806c0.812,12.028,2.481,24.012,4.713,35.856
			c0.867,4.602,1.843,9.187,2.987,13.727c0.403,1.6,0.843,3.193,1.319,4.772c0.383,1.266,4.063,0.881,5.424,0.837
			c0.999-0.031,1.71-0.395,2.584-0.845c1.18-0.605,2.77-1.116,3.689-2.122c2.888-3.154,5.781-5.401,9.657-7.456
			c0.022-0.013,1.005-0.578,1.024-0.557c-6.907-6.771-11.12-16.855-11.821-26.495c-1.396,0.727-2.791,1.453-4.186,2.18
			c0.613,1.764,1.058,1.503,2.612,0.699c0.829-0.428,2.517-0.892,2.937-1.822c0.648-1.427,0.088-3.165,0.596-4.595
			c0.826-2.323,0.494-5.361,0.506-7.772c0.021-4.442-0.074-8.888-0.101-13.33c-0.052-9.443-0.546-19.729,2.908-28.68
			c2.045-5.302,5.746-10.691,10.37-14.108C138.97,129,137.285,129.335,136.029,130.262"/>
		<path fill="#002A96" d="M57.095,91.05c-1.657,2.526-3.589,4.716-6.19,6.295c-0.726,0.443-1.736,0.647-1.517,1.689
			c0.573,2.717,0.707,4.879,3.028,6.519c6.218,4.393,14.251,6.799,21.311,9.452c3.165,1.19,6.364,2.779,9.738,3.053
			c5.854,0.473,11.722,0.849,17.598,0.978c3.153,0.07,7.03,0.496,10.13-0.417c-0.365-1.53-0.73-3.06-1.096-4.59
			c-4.413,10.934-8.826,21.867-13.242,32.801c-0.488,1.208,1.566,3.421,1.094,4.59c4.415-10.934,8.829-21.867,13.243-32.801
			c0.181-0.45-1.265-4.54-1.096-4.59c-1.863,0.55-4.087,0.411-5.998,0.438c-3.477,0.053-6.956-0.081-10.429-0.249
			c-2.473-0.12-4.945-0.282-7.418-0.456c-2.286-0.161-4.815-0.027-6.964-0.855c-5.652-2.176-11.355-4.207-16.953-6.523
			c-2.968-1.228-5.922-2.521-8.75-4.05c-1.366-0.739-3.644-1.787-4.211-3.383c0.36,1.501,0.721,3.003,1.08,4.507
			c-0.182-0.865,0.987-1.235,1.545-1.522c2.628-1.353,4.604-3.878,6.188-6.297C58.794,94.716,56.516,91.931,57.095,91.05"/>
		<path fill="#002A96" d="M123.552,110.273c0.284-0.602-0.647-1.275-1.021-1.544c-2.875-2.077-7.022-2.787-10.383-3.543
			c-7.082-1.592-14.24-2.667-21.282-4.475c-6.437-1.654-12.821-3.586-19.049-5.918c-2.589-0.97-5.165-2.023-7.62-3.3
			c-1.113-0.578-3.078-1.425-3.568-2.707c-0.135-0.353-1.184-0.253-1.311,0.078c-0.606,1.57-1.437,3.059-2.327,4.482
			c-0.178,0.289,1.085,0.338,1.299-0.004c0.886-1.424,1.718-2.914,2.325-4.483c-0.439,0.026-0.876,0.053-1.313,0.079
			c0.37,0.973,1.477,1.609,2.312,2.129c1.758,1.092,3.682,1.932,5.584,2.736c5.648,2.386,11.526,4.25,17.415,5.937
			c6.755,1.934,13.602,3.528,20.525,4.728c5.027,0.872,10.564,1.712,15.189,4.019c0.468,0.235,2.206,1.201,1.928,1.792
			C122.094,110.62,123.386,110.629,123.552,110.273"/>
		<path fill="#002A96" d="M115.251,102.501c-0.022-0.062-0.024-0.129-0.029-0.193c-0.088-1.228,1.696-3.838-0.921,2.881
			c0.645-1.658,1.715-3.167,2.728-4.612c1.305-1.86,2.267-3.01,2.898-5.159c0.742-2.534,1.397-5.093,2.008-7.663
			c0.957-4.044,1.647-8.146,1.4-12.313c-0.283-4.845-1.818-9.617-3.083-14.269c0.347,1.275-1.687,3.217-1.329,4.528
			c1.32,4.863,2.818,9.769,3.117,14.828c0.338,5.766-1.322,11.552-2.783,17.063c0.436-1.482,0.873-2.963,1.312-4.444
			c-2.171,2.735-4.385,5.563-5.421,8.942c-0.343,1.121-1.688,3.679-1.225,4.938C113.493,105.862,115.692,103.706,115.251,102.501"/>
		<path fill="#002A96" d="M56.345,87.741c-3.267-1.951-6.336-4.844-8.002-8.286c-0.285-0.592-1.294-0.316-1.247,0.338
			c0.074,0.99,0.171,1.977,0.251,2.967c0.036,0.423,0.209,1.186,0.008,1.589c0.104-0.21,0.332-0.066-0.043-0.184
			c-0.344-0.108-0.668-0.315-0.979-0.489c-1.037-0.584-2.037-1.235-3.052-1.857c-2.411-1.48-4.867-3.067-6.542-5.403
			c-0.351-0.489-0.664-1.026-0.867-1.595c-0.051-0.145-0.152-0.7-0.134-0.469c-0.06-0.777-1.039-0.88-1.313-0.177
			c-1.19,3.03-0.684,6.666,1.722,8.93c0.629,0.591,1.576-0.353,0.948-0.946c-2.088-1.963-2.401-5.029-1.381-7.629
			c-0.439-0.06-0.877-0.118-1.314-0.178c0.081,1.065,0.715,2.086,1.319,2.927c2,2.786,5.034,4.551,7.892,6.314
			c0.861,0.531,3.581,2.812,4.698,1.682c0.443-0.447,0.443-1.111,0.429-1.699c-0.034-1.261-0.212-2.524-0.304-3.783
			c-0.413,0.112-0.83,0.225-1.246,0.337c1.76,3.639,5.032,6.705,8.481,8.766C56.412,89.34,57.085,88.184,56.345,87.741"/>
		<path fill="#002A96" d="M112.683,85.351c3.041-0.611,8.798-3.938,4.567-7.158c-1.682-1.282-3.639-2.687-5.696-3.308
			c-4.697-1.418-10.423-0.414-13.902,3.137c-2.513,2.564-3.286,6.287-3.424,9.745c-0.205,5.161,0.909,10.595,1.937,15.639
			c0.47,2.295,1.281,4.667,1.243,7.031c-0.038,2.268-1.406,4.423-2.474,6.335c-0.068,0.121,4.071,2.742,4.037,2.803
			c1.779-3.18,2.78-5.901,2.037-9.537c-1.402-6.856-3.237-13.98-2.753-21.025c0.367-5.347,3.271-9.861,8.47-11.497
			c2.893-0.912,7.536-1.199,10.249,0.511c-1.227-0.801-2.454-1.603-3.68-2.406c4.23,3.222-1.525,6.548-4.567,7.159
			C109.803,82.563,111.558,85.577,112.683,85.351"/>
		<path fill="#002A96" d="M185.057,84.391c1.825-2.167,3.247-4.71,4.508-7.233c1.307-2.619,2.288-5.384,3.054-8.205
			c0.498-1.835,0.49-3.435,1.824-4.872c0.671-0.723,1.438-0.76,1.994,0.027c-0.786-1.363-1.572-2.725-2.358-4.088
			c0.842,1.867,0.351,3.769-0.111,5.66c-0.665,2.718-1.481,5.399-2.217,8.099c-0.632,2.335-1.183,4.589-1.165,7.021
			c0.021,2.688-0.353,4.246-3.242,4.848c0.448-0.094,1.843,4.193,2.358,4.086c2.876-0.598,3.283-2.161,3.244-4.847
			c-0.038-2.644,0.646-5.114,1.335-7.645c0.724-2.669,1.518-5.318,2.174-8.004c0.444-1.813,0.787-3.695-0.168-5.415
			c-0.638-1.152-1.609-3.991-2.997-4.414c-1.651-0.506-2.433,2.812-2.613,3.701c-0.4,1.977-1.01,3.909-1.69,5.805
			c-1.438,4.006-3.526,8.113-6.286,11.39C182.331,80.74,185.38,84.008,185.057,84.391"/>
	</g>
</g>
<g id="Layer_2" display="none">
	<rect x="213.822" y="-9.082" display="inline" fill="#41D7F0" width="17.4" height="16.79"/>
	<rect x="213.822" y="12.135" display="inline" fill="#5AF0FF" width="17.4" height="16.79"/>
	<rect x="213.822" y="36.099" display="inline" fill="#0091AA" width="17.4" height="16.79"/>
	<rect x="213.822" y="58.536" display="inline" fill="#0D47DB" width="17.4" height="16.79"/>
	<rect x="213.822" y="81.125" display="inline" fill="#2B66FF" width="17.4" height="16.791"/>
	<rect x="213.822" y="104.458" display="inline" fill="#002A96" width="17.4" height="16.791"/>
</g>
</svg>
